<svg width="18" height="18" viewBox="0 0 18 18" fill="none" xmlns="http://www.w3.org/2000/svg">
<path d="M7.79983 0.15H2.5998C1.95002 0.15 1.32685 0.408126 0.867379 0.867593C0.407912 1.32706 0.149787 1.95023 0.149787 2.60002V14.7334C0.149787 15.3832 0.407912 16.0064 0.867379 16.4658C1.32685 16.9253 1.95002 17.1834 2.5998 17.1834H7.79983C7.98991 17.1834 8.17219 17.1079 8.3066 16.9735C8.441 16.8391 8.5165 16.6568 8.5165 16.4668C8.5165 16.2767 8.441 16.0944 8.3066 15.96C8.17219 15.8256 7.98991 15.7501 7.79983 15.7501H2.5998C2.33016 15.7501 2.07157 15.643 1.88091 15.4523C1.69024 15.2617 1.58313 15.0031 1.58313 14.7334V2.60002C1.58313 2.33038 1.69024 2.07178 1.88091 1.88112C2.07157 1.69046 2.33016 1.58334 2.5998 1.58334H7.79983C7.98991 1.58334 8.17219 1.50784 8.3066 1.37344C8.441 1.23903 8.5165 1.05674 8.5165 0.866672C8.5165 0.676599 8.441 0.49431 8.3066 0.359908C8.17219 0.225506 7.98991 0.15 7.79983 0.15Z" fill="white" stroke="#202020" stroke-width="0.3"/>
<path d="M12.4932 11.6268L12.4932 11.6268L12.4913 11.6286C12.4229 11.6947 12.3683 11.7738 12.3307 11.8612C12.2931 11.9487 12.2734 12.0427 12.2725 12.1379C12.2717 12.233 12.2898 12.3274 12.3259 12.4155C12.3619 12.5036 12.4151 12.5836 12.4824 12.6509C12.5497 12.7182 12.6297 12.7714 12.7178 12.8074C12.8059 12.8434 12.9003 12.8616 12.9954 12.8607C13.0906 12.8599 13.1846 12.8401 13.272 12.8026C13.3595 12.765 13.4386 12.7104 13.5047 12.642L13.5047 12.642L13.5065 12.6401L16.9732 9.17345C17.1075 9.03905 17.183 8.8568 17.183 8.66676C17.183 8.47673 17.1075 8.29447 16.9732 8.16008L13.5065 4.6934L13.5065 4.69342L13.5047 4.69155C13.4386 4.6231 13.3595 4.5685 13.272 4.53094C13.1846 4.49338 13.0906 4.47361 12.9954 4.47278C12.9003 4.47195 12.8059 4.49009 12.7178 4.52612C12.6297 4.56216 12.5497 4.61537 12.4824 4.68266C12.4151 4.74995 12.3619 4.82997 12.3259 4.91805C12.2898 5.00612 12.2717 5.10049 12.2725 5.19565C12.2734 5.29081 12.2931 5.38485 12.3307 5.47229C12.3683 5.55973 12.4229 5.63881 12.4913 5.70492L12.4913 5.7049L12.4932 5.70675L14.4804 7.69402L14.7365 7.95009H14.3744H4.33312C4.14304 7.95009 3.96076 8.0256 3.82635 8.16C3.69195 8.2944 3.61645 8.47669 3.61645 8.66676C3.61645 8.85684 3.69195 9.03912 3.82635 9.17353C3.96076 9.30793 4.14304 9.38343 4.33312 9.38343H14.3744H14.7365L14.4804 9.6395L12.4932 11.6268Z" fill="white" stroke="#202020" stroke-width="0.3"/>
</svg>
