<svg width="17" height="20" viewBox="0 0 17 20" fill="none" xmlns="http://www.w3.org/2000/svg">
<path d="M8.78313 9.6341C7.45961 9.6341 6.31367 9.15938 5.37707 8.22277C4.44078 7.28637 3.96594 6.14059 3.96594 4.81691C3.96594 3.49363 4.44063 2.34773 5.37723 1.41098C6.31383 0.474687 7.45977 0 8.78313 0C10.1068 0 11.2527 0.474688 12.1891 1.41113C13.1255 2.34758 13.6004 3.49352 13.6004 4.81691C13.6004 6.14059 13.1255 7.28652 12.189 8.22297C11.2523 9.15926 10.1064 9.6341 8.78316 9.6341H8.78313ZM11.3602 2.23984C10.6417 1.52129 9.79875 1.17203 8.78313 1.17203C7.76766 1.17203 6.92461 1.52129 6.20594 2.23984C5.48738 2.95852 5.13797 3.80156 5.13797 4.81687C5.13797 5.8325 5.48738 6.67543 6.20594 7.3941C6.92461 8.11281 7.76766 8.46207 8.78313 8.46207C9.79848 8.46207 10.6413 8.11266 11.3602 7.3941C12.0789 6.67559 12.4283 5.83254 12.4283 4.81691C12.4283 3.80156 12.0789 2.95852 11.3602 2.23984ZM0.354338 15.379C0.381369 14.9893 0.435978 14.5642 0.516407 14.1153C0.597579 13.663 0.702071 13.2355 0.827228 12.8447C0.956603 12.4408 1.13223 12.042 1.34969 11.6597C1.57508 11.263 1.83992 10.9175 2.13719 10.6332C2.44801 10.3359 2.82856 10.0968 3.26863 9.9223C3.70715 9.74887 4.19317 9.66098 4.71301 9.66098C4.91719 9.66098 5.11461 9.74473 5.49594 9.99301C5.767 10.1695 6.03886 10.3448 6.31152 10.5188C6.57352 10.6857 6.92844 10.8421 7.36684 10.9837C7.79453 11.1221 8.22879 11.1923 8.65758 11.1923C9.08602 11.1923 9.52031 11.1221 9.94832 10.9837C10.3862 10.8423 10.7413 10.6859 11.0029 10.5189C11.3064 10.325 11.581 10.148 11.8192 9.99281C12.2002 9.74457 12.3977 9.66078 12.6018 9.66078C13.1218 9.66078 13.6077 9.74883 14.0461 9.9225C14.4858 10.0966 14.8665 10.3357 15.1777 10.6334C15.4749 10.9178 15.7398 11.2631 15.965 11.6597C16.1821 12.0419 16.3579 12.4406 16.4873 12.8448C16.6123 13.2356 16.7168 13.663 16.798 14.1153C16.8786 14.5636 16.933 14.9889 16.96 15.3795C16.9866 15.7614 17 16.1589 17 16.5605C17 17.6045 16.6681 18.4497 16.0137 19.073C15.3673 19.6882 14.5122 20 13.472 20H3.84188C2.80203 20 1.94692 19.6881 1.30039 19.073C0.645783 18.4502 0.313908 17.6047 0.313908 16.5604C0.314064 16.1574 0.327619 15.7599 0.354338 15.379ZM2.10848 18.2239C2.53559 18.6304 3.10262 18.828 3.84207 18.828H13.472C14.2116 18.828 14.7786 18.6304 15.2055 18.2241C15.6244 17.8253 15.8279 17.2811 15.8279 16.5605C15.8279 16.1857 15.8156 15.8157 15.7908 15.4605C15.7668 15.112 15.7175 14.7291 15.6443 14.3223C15.5722 13.9206 15.4804 13.5436 15.3711 13.2022C15.2663 12.8749 15.1233 12.5508 14.946 12.2386C14.7768 11.9411 14.5821 11.6858 14.3672 11.4801C14.1663 11.2877 13.9129 11.1302 13.6145 11.0121C13.3385 10.9029 13.0282 10.843 12.6915 10.834C12.6505 10.8559 12.5773 10.8975 12.4589 10.9747C12.218 11.1318 11.9403 11.3109 11.6333 11.507C11.2872 11.7276 10.8414 11.9269 10.3087 12.0988C9.7641 12.2749 9.20867 12.3643 8.65738 12.3643C8.10606 12.3643 7.55051 12.2749 7.00621 12.099C6.47309 11.9267 6.02738 11.7276 5.68082 11.5066C5.36664 11.3059 5.09672 11.1319 4.85582 10.9747C4.73738 10.8977 4.6643 10.8559 4.62324 10.8341C4.28633 10.843 3.97613 10.9029 3.69996 11.0121C3.40164 11.1302 3.14832 11.2879 2.94738 11.4801C2.73254 11.6856 2.53785 11.9409 2.36863 12.2388C2.19117 12.5508 2.04801 12.8751 1.94336 13.2021C1.83395 13.5439 1.74195 13.9207 1.66992 14.3222C1.59699 14.7298 1.54754 15.1128 1.52344 15.4607V15.461C1.49856 15.8148 1.48606 16.1847 1.4859 16.5605C1.48606 17.2812 1.68961 17.8254 2.10844 18.2239H2.10848Z" fill="white"/>
</svg>
