<svg width="18" height="20" viewBox="0 0 18 20" fill="none" xmlns="http://www.w3.org/2000/svg">
<path d="M14.1337 13.4529C13.1755 13.4529 12.3121 13.8667 11.713 14.525L6.3234 11.187C6.47136 10.8087 6.54723 10.4062 6.54707 10C6.54726 9.59384 6.47139 9.19124 6.3234 8.81301L11.713 5.47484C12.3122 6.13313 13.1755 6.54711 14.1337 6.54711C15.9389 6.54711 17.4074 5.07859 17.4074 3.27348C17.4074 1.46836 15.9389 0 14.1337 0C12.3287 0 10.8602 1.46852 10.8602 3.27363C10.8601 3.67977 10.9359 4.08233 11.0838 4.46059L5.69441 7.79863C5.09519 7.14035 4.23187 6.72637 3.27363 6.72637C1.46852 6.72637 0 8.19504 0 10C0 11.8051 1.46852 13.2736 3.27363 13.2736C4.23184 13.2736 5.09523 12.8598 5.69441 12.2014L11.0839 15.5394C10.936 15.9177 10.8601 16.3203 10.8602 16.7265C10.8602 18.5315 12.3286 20 14.1337 20C15.9389 20 17.4074 18.5315 17.4074 16.7266C17.4074 14.9214 15.9389 13.4529 14.1337 13.4529ZM12.0538 3.27363C12.0538 2.12676 12.9869 1.19371 14.1337 1.19371C15.2806 1.19371 16.2137 2.12676 16.2137 3.27363C16.2137 4.42051 15.2806 5.35355 14.1337 5.35355C12.9869 5.35355 12.0538 4.42047 12.0538 3.27363ZM3.27363 12.0799C2.1266 12.0799 1.19355 11.1468 1.19355 10C1.19355 8.85316 2.1266 7.92008 3.27363 7.92008C4.42051 7.92008 5.3534 8.85316 5.3534 10C5.3534 11.1468 4.42047 12.0799 3.27363 12.0799ZM12.0538 16.7264C12.0538 15.5795 12.9869 14.6464 14.1337 14.6464C15.2806 14.6464 16.2137 15.5795 16.2137 16.7264C16.2137 17.8732 15.2806 18.8063 14.1337 18.8063C12.9869 18.8063 12.0538 17.8732 12.0538 16.7264V16.7264Z" fill="#D9D9D9"/>
</svg>
