<svg width="56" height="56" viewBox="0 0 56 56" fill="none" xmlns="http://www.w3.org/2000/svg">
<rect width="56" height="56" rx="28" fill="url(#paint0_linear_85_3144)" fill-opacity="0.1"/>
<rect x="0.5" y="0.5" width="55" height="55" rx="27.5" stroke="url(#paint1_linear_85_3144)" stroke-opacity="0.2"/>
<path d="M36.0126 20.6946H35.7563C32.1582 20.6946 30.0126 22.9921 28.5506 24.9857C27.9904 25.7547 27.4683 26.5617 26.9747 27.3402C26.0348 28.8212 25.1424 30.2072 24.0885 31.2136C22.9777 32.2769 21.5823 32.8465 20.0537 32.8465C18.81 32.8086 17.6518 32.2864 16.7878 31.3845C15.924 30.4826 15.4492 29.2864 15.4492 28.0237C15.4492 26.7611 15.9714 25.4889 16.8638 24.587C17.7657 23.6756 18.9715 23.1724 20.2531 23.1724H20.2626C20.7847 23.1724 21.3923 23.2769 21.9905 23.4667C22.1043 23.5047 22.1993 23.5902 22.2373 23.7136C22.2753 23.837 22.2562 23.9699 22.1803 24.0743L19.0664 28.5744C18.9715 28.7073 18.9619 28.8782 19.0379 29.0205C19.1138 29.163 19.2563 29.2485 19.4176 29.2485H21.1835C21.4208 29.2485 21.6487 29.1345 21.7816 28.9352L24.9905 24.2642C25.1233 24.0838 25.1993 23.875 25.2468 23.6471C25.2847 23.4288 25.2847 23.2009 25.2468 22.9826C25.1993 22.7642 25.1044 22.5553 24.981 22.375C24.848 22.1946 24.6866 22.0427 24.4968 21.9193C24.3639 21.8433 24.231 21.7674 24.0885 21.6914C22.9113 21.0458 21.5727 20.7041 20.2341 20.7041C18.3068 20.7041 16.4936 21.4636 15.1265 22.8402C13.7784 24.1978 12.9999 26.0775 12.9999 28.0142C12.9999 29.9509 13.712 31.7168 15.0221 33.0839C16.3322 34.4605 18.0885 35.2484 19.9778 35.3054C22.0094 35.3054 23.8037 34.6029 25.4556 33.1503C26.9271 31.8591 28.057 30.1693 29.0063 28.6978C29.7374 27.549 30.4304 26.4668 31.1898 25.5743C31.4557 25.2611 31.712 24.9857 31.9683 24.7484C33.1171 23.6756 34.3228 23.1724 35.7658 23.1724H35.9462C37.1899 23.2104 38.3481 23.7231 39.212 24.6345C39.9526 25.413 40.4272 26.4478 40.5316 27.53C40.5507 27.6915 40.5601 27.8529 40.5601 28.0142C40.5601 29.3053 40.057 30.5205 39.1456 31.432C38.2437 32.3434 37.038 32.8465 35.7563 32.8465H35.7469C35.0822 32.8465 34.4462 32.6851 34.019 32.5523C33.905 32.5142 33.8101 32.4288 33.7721 32.3054C33.7342 32.182 33.7531 32.0491 33.8291 31.9351L36.9336 27.4826C37.0285 27.3497 37.038 27.1788 36.9621 27.0364C36.8861 26.8845 36.7437 26.8085 36.5822 26.8085H34.8165C34.5791 26.8085 34.3607 26.9225 34.2183 27.1218L31.0094 31.7453C30.8765 31.9351 30.8006 32.1345 30.7531 32.3624C30.7152 32.5807 30.7152 32.8086 30.7531 33.0269C30.8006 33.2453 30.8956 33.4542 31.019 33.6346C31.1424 33.8149 31.3227 33.9762 31.5127 34.0902C31.6456 34.1662 31.769 34.2421 31.9019 34.318C33.0791 34.9636 34.4177 35.3054 35.7563 35.3054C37.693 35.3054 39.5063 34.5459 40.8734 33.1694C42.2405 31.7927 43.0001 29.97 43.0001 28.0237C43.0001 26.0775 42.269 24.2642 40.9683 22.9161C39.6582 21.5395 37.9019 20.7515 36.0126 20.6946Z" fill="#1ED760"/>
<defs>
<linearGradient id="paint0_linear_85_3144" x1="28" y1="-37.0811" x2="28" y2="144.541" gradientUnits="userSpaceOnUse">
<stop stop-color="#4AFF86"/>
<stop offset="0.465" stop-color="#101A11"/>
</linearGradient>
<linearGradient id="paint1_linear_85_3144" x1="28" y1="-97.2432" x2="28" y2="106.703" gradientUnits="userSpaceOnUse">
<stop stop-color="#CAFF33"/>
<stop offset="0.716291" stop-color="#CAFF33" stop-opacity="0"/>
</linearGradient>
</defs>
</svg>
