<svg width="56" height="56" viewBox="0 0 56 56" fill="none" xmlns="http://www.w3.org/2000/svg">
<rect width="56" height="56" rx="28" fill="url(#paint0_linear_34_527)" fill-opacity="0.1"/>
<rect x="0.5" y="0.5" width="55" height="55" rx="27.5" stroke="url(#paint1_linear_34_527)" stroke-opacity="0.2"/>
<path d="M38.784 17.2604C38.0605 17.0625 37.3049 17.0108 36.5612 17.1084C35.8176 17.206 35.1008 17.4509 34.453 17.8288C34.2743 17.9642 29.9812 20.3787 27.2526 21.9812C28.6508 22.0707 29.9899 22.5781 31.0964 23.4375L35.9688 20.6332C38.9139 19.0578 41.2906 23.2426 38.4808 24.9642C38.0315 25.2349 30.4738 29.6796 29.6564 29.9936C29.2661 30.1201 28.8509 30.1496 28.4467 30.0795C28.0425 30.0093 27.6615 29.8417 27.3367 29.591C27.0119 29.3404 26.7531 29.0143 26.5828 28.6411C26.4125 28.2678 26.3358 27.8587 26.3594 27.4491C25.1142 28.0663 24.7352 28.4128 23.2627 29.2032C24.0856 32.1916 27.5937 34.1676 30.5388 33.074C30.8095 33.1769 39.6448 27.9039 40.1699 27.6602C40.8169 27.2906 41.3838 26.7957 41.8374 26.2046C42.291 25.6134 42.6223 24.9377 42.8118 24.2171C43.1956 22.7606 42.9875 21.2114 42.2328 19.908C41.4781 18.6045 40.2382 17.6527 38.784 17.2604Z" fill="#1ED760"/>
<path d="M19.7276 35.8026C16.7879 37.3617 14.4004 33.1931 17.2156 31.4715C17.7569 31.1413 25.8776 26.2906 26.733 26.3122C27.0869 26.3016 27.4391 26.3652 27.767 26.4988C28.0949 26.6324 28.3912 26.8331 28.637 27.088C28.8827 27.3429 29.0724 27.6464 29.1939 27.9789C29.3154 28.3115 29.366 28.6658 29.3424 29.0191C30.2898 28.5535 31.5079 27.7794 32.4337 27.2596C31.4971 23.8057 27.1661 21.9054 24.0098 23.9248L15.5265 28.7971C14.3258 29.5985 13.4753 30.827 13.148 32.233C12.8206 33.6389 13.041 35.1168 13.7642 36.3661C14.4874 37.6154 15.6593 38.5424 17.0416 38.9586C18.4238 39.3749 19.9127 39.2491 21.2055 38.6069C21.3517 38.477 25.6827 36.0624 28.3896 34.46C27.0067 34.3669 25.6849 33.8552 24.5999 32.9928L19.7276 35.8026ZM27.0253 20.4058C27.1689 20.4058 27.3066 20.3488 27.4081 20.2472C27.5097 20.1457 27.5667 20.008 27.5667 19.8644V17.3416C27.5667 17.198 27.5097 17.0603 27.4081 16.9588C27.3066 16.8573 27.1689 16.8002 27.0253 16.8002C26.8817 16.8002 26.744 16.8573 26.6425 16.9588C26.541 17.0603 26.4839 17.198 26.4839 17.3416V19.8644C26.4839 20.008 26.541 20.1457 26.6425 20.2472C26.744 20.3488 26.8817 20.4058 27.0253 20.4058ZM23.8258 20.4491C23.8596 20.5138 23.9062 20.571 23.9627 20.6172C24.0192 20.6634 24.0845 20.6978 24.1546 20.7181C24.2248 20.7385 24.2983 20.7444 24.3708 20.7356C24.4432 20.7268 24.5132 20.7034 24.5764 20.6669C24.6396 20.6303 24.6948 20.5814 24.7386 20.523C24.7824 20.4646 24.8139 20.3979 24.8313 20.327C24.8487 20.2561 24.8515 20.1824 24.8397 20.1103C24.8278 20.0383 24.8015 19.9694 24.7624 19.9077L23.501 17.7422C23.426 17.6244 23.3085 17.5401 23.1729 17.5068C23.0373 17.4736 22.894 17.4941 22.7731 17.564C22.6523 17.6338 22.563 17.7477 22.5241 17.8818C22.4852 18.0159 22.4996 18.1599 22.5644 18.2836L23.8258 20.4491ZM20.1986 21.5914L22.3641 22.8528C22.489 22.9246 22.6373 22.9438 22.7764 22.9063C22.9155 22.8687 23.034 22.7774 23.1057 22.6525C23.1775 22.5276 23.1968 22.3793 23.1592 22.2402C23.1216 22.1011 23.0304 21.9826 22.9054 21.9108L20.7399 20.6494C20.615 20.5776 20.4667 20.5584 20.3276 20.596C20.1885 20.6335 20.07 20.7248 19.9982 20.8497C19.9265 20.9746 19.9072 21.123 19.9448 21.2621C19.9824 21.4012 20.0736 21.5196 20.1986 21.5914Z" fill="#1ED760"/>
<defs>
<linearGradient id="paint0_linear_34_527" x1="28" y1="-37.0811" x2="28" y2="144.541" gradientUnits="userSpaceOnUse">
<stop stop-color="#4AFF86"/>
<stop offset="0.465" stop-color="#101A11"/>
</linearGradient>
<linearGradient id="paint1_linear_34_527" x1="28" y1="-97.2432" x2="28" y2="106.703" gradientUnits="userSpaceOnUse">
<stop stop-color="#CAFF33"/>
<stop offset="0.716291" stop-color="#CAFF33" stop-opacity="0"/>
</linearGradient>
</defs>
</svg>
