<svg width="30" height="30" viewBox="0 0 30 30" fill="none" xmlns="http://www.w3.org/2000/svg">
<path fill-rule="evenodd" clip-rule="evenodd" d="M24.4192 9.41826C24.4192 8.40057 24.015 7.42456 23.2953 6.70495C22.5757 5.98533 21.5997 5.58105 20.582 5.58105H9.41924C8.40155 5.58105 7.42554 5.98533 6.70592 6.70495C5.98631 7.42456 5.58203 8.40057 5.58203 9.41826V20.5811C5.58203 21.5987 5.98631 22.5748 6.70592 23.2944C7.42554 24.014 8.40155 24.4183 9.41924 24.4183H20.582C21.5997 24.4183 22.5757 24.014 23.2953 23.2944C24.015 22.5748 24.4192 21.5987 24.4192 20.5811V9.41826ZM17.7913 12.209V17.7904C17.7913 18.0679 17.9016 18.3341 18.0978 18.5303C18.2941 18.7266 18.5603 18.8369 18.8378 18.8369C19.1154 18.8369 19.3816 18.7266 19.5778 18.5303C19.7741 18.3341 19.8844 18.0679 19.8844 17.7904V12.209C19.8844 11.9314 19.7741 11.6652 19.5778 11.469C19.3816 11.2727 19.1154 11.1624 18.8378 11.1624C18.5603 11.1624 18.2941 11.2727 18.0978 11.469C17.9016 11.6652 17.7913 11.9314 17.7913 12.209ZM16.396 17.7904V13.6043C16.396 12.9567 16.1387 12.3356 15.6808 11.8777C15.2228 11.4197 14.6017 11.1624 13.9541 11.1624H12.5588C11.9112 11.1624 11.2901 11.4197 10.8321 11.8777C10.3742 12.3356 10.1169 12.9567 10.1169 13.6043V17.7904C10.1169 18.0679 10.2272 18.3341 10.4234 18.5303C10.6197 18.7266 10.8859 18.8369 11.1634 18.8369C11.441 18.8369 11.7072 18.7266 11.9034 18.5303C12.0997 18.3341 12.2099 18.0679 12.2099 17.7904V16.7438H14.303V17.7904C14.303 18.0679 14.4132 18.3341 14.6095 18.5303C14.8057 18.7266 15.0719 18.8369 15.3495 18.8369C15.627 18.8369 15.8932 18.7266 16.0895 18.5303C16.2857 18.3341 16.396 18.0679 16.396 17.7904ZM12.2099 14.6508H14.303V13.6043C14.303 13.5118 14.2662 13.4231 14.2008 13.3576C14.1354 13.2922 14.0466 13.2555 13.9541 13.2555H12.5588C12.4663 13.2555 12.3775 13.2922 12.3121 13.3576C12.2467 13.4231 12.2099 13.5118 12.2099 13.6043V14.6508Z" fill="#1ED760"/>
<path fill-rule="evenodd" clip-rule="evenodd" d="M23.3721 16.0465H28.9535C29.231 16.0465 29.4972 15.9363 29.6935 15.74C29.8897 15.5437 30 15.2776 30 15C30 14.7224 29.8897 14.4563 29.6935 14.26C29.4972 14.0637 29.231 13.9535 28.9535 13.9535H23.3721C23.0945 13.9535 22.8284 14.0637 22.6321 14.26C22.4358 14.4563 22.3256 14.7224 22.3256 15C22.3256 15.2776 22.4358 15.5437 22.6321 15.74C22.8284 15.9363 23.0945 16.0465 23.3721 16.0465ZM16.0465 6.62791V1.04651C16.0465 0.768959 15.9363 0.502775 15.74 0.306516C15.5437 0.110257 15.2776 0 15 0C14.7224 0 14.4563 0.110257 14.26 0.306516C14.0637 0.502775 13.9535 0.768959 13.9535 1.04651V6.62791C13.9535 6.90546 14.0637 7.17164 14.26 7.3679C14.4563 7.56416 14.7224 7.67442 15 7.67442C15.2776 7.67442 15.5437 7.56416 15.74 7.3679C15.9363 7.17164 16.0465 6.90546 16.0465 6.62791ZM13.9535 23.3721V28.9535C13.9535 29.231 14.0637 29.4972 14.26 29.6935C14.4563 29.8897 14.7224 30 15 30C15.2776 30 15.5437 29.8897 15.74 29.6935C15.9363 29.4972 16.0465 29.231 16.0465 28.9535V23.3721C16.0465 23.0945 15.9363 22.8284 15.74 22.6321C15.5437 22.4358 15.2776 22.3256 15 22.3256C14.7224 22.3256 14.4563 22.4358 14.26 22.6321C14.0637 22.8284 13.9535 23.0945 13.9535 23.3721ZM6.62791 13.9535H1.04651C0.768959 13.9535 0.502775 14.0637 0.306516 14.26C0.110257 14.4563 0 14.7224 0 15C0 15.2776 0.110257 15.5437 0.306516 15.74C0.502775 15.9363 0.768959 16.0465 1.04651 16.0465H6.62791C6.90546 16.0465 7.17164 15.9363 7.3679 15.74C7.56416 15.5437 7.67442 15.2776 7.67442 15C7.67442 14.7224 7.56416 14.4563 7.3679 14.26C7.17164 14.0637 6.90546 13.9535 6.62791 13.9535ZM23.3721 11.8605H26.8605C27.138 11.8605 27.4042 11.7502 27.6005 11.5539C27.7967 11.3577 27.907 11.0915 27.907 10.814C27.907 10.5364 27.7967 10.2702 27.6005 10.074C27.4042 9.8777 27.138 9.76744 26.8605 9.76744H23.3721C23.0945 9.76744 22.8284 9.8777 22.6321 10.074C22.4358 10.2702 22.3256 10.5364 22.3256 10.814C22.3256 11.0915 22.4358 11.3577 22.6321 11.5539C22.8284 11.7502 23.0945 11.8605 23.3721 11.8605ZM11.8605 6.62791V3.13953C11.8605 2.86198 11.7502 2.5958 11.5539 2.39954C11.3577 2.20328 11.0915 2.09302 10.814 2.09302C10.5364 2.09302 10.2702 2.20328 10.074 2.39954C9.8777 2.5958 9.76744 2.86198 9.76744 3.13953V6.62791C9.76744 6.90546 9.8777 7.17164 10.074 7.3679C10.2702 7.56416 10.5364 7.67442 10.814 7.67442C11.0915 7.67442 11.3577 7.56416 11.5539 7.3679C11.7502 7.17164 11.8605 6.90546 11.8605 6.62791ZM9.76744 23.3721V26.8605C9.76744 27.138 9.8777 27.4042 10.074 27.6005C10.2702 27.7967 10.5364 27.907 10.814 27.907C11.0915 27.907 11.3577 27.7967 11.5539 27.6005C11.7502 27.4042 11.8605 27.138 11.8605 26.8605V23.3721C11.8605 23.0945 11.7502 22.8284 11.5539 22.6321C11.3577 22.4358 11.0915 22.3256 10.814 22.3256C10.5364 22.3256 10.2702 22.4358 10.074 22.6321C9.8777 22.8284 9.76744 23.0945 9.76744 23.3721ZM6.62791 9.76744H3.13953C2.86198 9.76744 2.5958 9.8777 2.39954 10.074C2.20328 10.2702 2.09302 10.5364 2.09302 10.814C2.09302 11.0915 2.20328 11.3577 2.39954 11.5539C2.5958 11.7502 2.86198 11.8605 3.13953 11.8605H6.62791C6.90546 11.8605 7.17164 11.7502 7.3679 11.5539C7.56416 11.3577 7.67442 11.0915 7.67442 10.814C7.67442 10.5364 7.56416 10.2702 7.3679 10.074C7.17164 9.8777 6.90546 9.76744 6.62791 9.76744ZM23.3721 20.2326H26.8605C27.138 20.2326 27.4042 20.1223 27.6005 19.926C27.7967 19.7298 27.907 19.4636 27.907 19.186C27.907 18.9085 27.7967 18.6423 27.6005 18.4461C27.4042 18.2498 27.138 18.1395 26.8605 18.1395H23.3721C23.0945 18.1395 22.8284 18.2498 22.6321 18.4461C22.4358 18.6423 22.3256 18.9085 22.3256 19.186C22.3256 19.4636 22.4358 19.7298 22.6321 19.926C22.8284 20.1223 23.0945 20.2326 23.3721 20.2326ZM20.2326 6.62791V3.13953C20.2326 2.86198 20.1223 2.5958 19.926 2.39954C19.7298 2.20328 19.4636 2.09302 19.186 2.09302C18.9085 2.09302 18.6423 2.20328 18.4461 2.39954C18.2498 2.5958 18.1395 2.86198 18.1395 3.13953V6.62791C18.1395 6.90546 18.2498 7.17164 18.4461 7.3679C18.6423 7.56416 18.9085 7.67442 19.186 7.67442C19.4636 7.67442 19.7298 7.56416 19.926 7.3679C20.1223 7.17164 20.2326 6.90546 20.2326 6.62791ZM18.1395 23.3721V26.8605C18.1395 27.138 18.2498 27.4042 18.4461 27.6005C18.6423 27.7967 18.9085 27.907 19.186 27.907C19.4636 27.907 19.7298 27.7967 19.926 27.6005C20.1223 27.4042 20.2326 27.138 20.2326 26.8605V23.3721C20.2326 23.0945 20.1223 22.8284 19.926 22.6321C19.7298 22.4358 19.4636 22.3256 19.186 22.3256C18.9085 22.3256 18.6423 22.4358 18.4461 22.6321C18.2498 22.8284 18.1395 23.0945 18.1395 23.3721ZM6.62791 18.1395H3.13953C2.86198 18.1395 2.5958 18.2498 2.39954 18.4461C2.20328 18.6423 2.09302 18.9085 2.09302 19.186C2.09302 19.4636 2.20328 19.7298 2.39954 19.926C2.5958 20.1223 2.86198 20.2326 3.13953 20.2326H6.62791C6.90546 20.2326 7.17164 20.1223 7.3679 19.926C7.56416 19.7298 7.67442 19.4636 7.67442 19.186C7.67442 18.9085 7.56416 18.6423 7.3679 18.4461C7.17164 18.2498 6.90546 18.1395 6.62791 18.1395Z" fill="#1ED760"/>
</svg>
