<svg width="57" height="37" viewBox="0 0 57 37" fill="none" xmlns="http://www.w3.org/2000/svg">
<path d="M26.6586 32.9921C-2.24118 35.658 -0.190537 19.0116 6.12976 12.118V10.6144C1.47865 14.6935 -1.0419 19.8551 0.410033 25.952C3.9398 40.836 33.0749 38.6613 46.6098 31.2269V26.975C41.6607 29.9238 33.4765 32.3595 26.6586 32.9921ZM55.8732 10.5126C53.2426 -2.33012 28.3065 -3.14432 12.2325 6.6403V7.7212C28.2882 -0.533446 51.0626 -0.483243 53.1361 11.3474C53.8318 15.2608 51.6275 19.3382 47.6892 21.6857V24.7555C52.4267 23.0177 57.286 17.3972 55.8732 10.5126Z" fill="#DADADA"/>
<path d="M46.5387 27.0164V29.3003C32.7015 36.9006 1.36992 39.3658 0.0297841 21.6896C-0.0584545 23.0544 0.0582836 24.4755 0.409923 25.9522C3.93969 40.8363 33.0748 38.6616 46.6097 31.2272V26.9753C46.5865 26.9889 46.562 27.0026 46.5387 27.0164ZM47.6891 21.6857V24.7555C48.1634 24.5815 48.6389 24.3679 49.1093 24.1187V22.8118C49.1093 22.3818 49.3233 21.9796 49.6808 21.7408C53.2589 19.351 55.2181 15.4828 54.5567 11.7625C53.7821 7.34299 50.1186 4.56759 44.9961 3.25464C49.3686 4.69583 52.4351 7.34847 53.136 11.3475C53.8317 15.2609 51.6274 19.3383 47.6891 21.6857Z" fill="white"/>
<path d="M45.5743 8.64249H42.944C42.8674 8.64249 42.8054 8.70453 42.8054 8.78115V21.5927C42.8054 23.0739 43.5042 24.3667 45.5584 24.6241C45.5779 24.6263 45.5976 24.6244 45.6163 24.6185C45.6349 24.6126 45.6521 24.6028 45.6667 24.5897C45.6814 24.5767 45.693 24.5607 45.701 24.5428C45.709 24.5249 45.7131 24.5056 45.7131 24.486V8.78115C45.7131 8.70453 45.6509 8.64249 45.5743 8.64249ZM10.952 13.3709H8.31634C8.23972 13.3709 8.17768 13.4329 8.17768 13.5095L8.17615 21.8318C8.17615 23.3184 8.87723 24.6098 10.9363 24.8635C10.9557 24.8657 10.9754 24.8637 10.9941 24.8578C11.0127 24.8519 11.0298 24.842 11.0444 24.829C11.059 24.816 11.0706 24.8 11.0786 24.7821C11.0866 24.7643 11.0907 24.7449 11.0907 24.7254V13.5095C11.0907 13.4329 11.0286 13.3709 10.952 13.3709ZM8.17768 9.17521V11.6541C8.17768 11.7307 8.23972 11.7928 8.31634 11.7928H10.9429C11.0195 11.7928 11.0816 11.7307 11.0816 11.6541V9.17521C11.0816 9.09859 11.0195 9.03654 10.9429 9.03654H8.31634C8.29813 9.03653 8.28009 9.04011 8.26326 9.04707C8.24643 9.05403 8.23114 9.06425 8.21826 9.07713C8.20538 9.09 8.19517 9.1053 8.18821 9.12213C8.18124 9.13896 8.17767 9.15699 8.17768 9.17521ZM28.5045 24.7463C26.1508 24.7463 25.1548 23.1106 25.1548 21.4991V10.4036C25.1548 10.327 25.2168 10.265 25.2935 10.265H27.8986C27.9753 10.265 28.0373 10.327 28.0373 10.4036V13.2321C28.0373 13.3087 28.0993 13.3708 28.176 13.3708H30.0692C30.1458 13.3708 30.2079 13.4328 30.2079 13.5094V15.5603C30.2079 15.6369 30.1458 15.6989 30.0692 15.6989H28.176C28.0993 15.6989 28.0373 15.761 28.0373 15.8376V21.3209C28.0373 21.9778 28.3491 22.3439 29.0341 22.3439H30.0692C30.1458 22.3439 30.2079 22.406 30.2079 22.4826V24.6074C30.2079 24.684 30.1458 24.7461 30.0692 24.7461H28.5045M33.8083 19.9601C33.8083 21.4352 34.7308 22.5191 36.3629 22.5191C37.586 22.5191 38.2159 22.1946 38.9144 21.5283C38.9402 21.5034 38.9745 21.4894 39.0102 21.4892C39.046 21.4889 39.0805 21.5025 39.1066 21.527L40.6867 23.0321C40.7438 23.0864 40.7443 23.1784 40.6874 23.2331C39.5763 24.3008 38.3891 24.9457 36.3415 24.9457C33.583 24.9457 30.9402 23.4401 30.9402 19.0511C30.9402 15.2989 33.2496 13.178 36.2776 13.178C39.3557 13.178 41.1248 15.6609 41.1248 18.9203V19.8213C41.1248 19.8979 41.0627 19.9599 40.9861 19.9599L33.8083 19.9601ZM34.0854 16.7555C33.9173 17.1256 33.8449 17.4221 33.8164 17.8453C33.8151 17.8643 33.8177 17.8835 33.824 17.9015C33.8303 17.9195 33.8403 17.936 33.8533 17.95C33.8663 17.964 33.882 17.9752 33.8995 17.9829C33.917 17.9906 33.9359 17.9946 33.955 17.9947H38.1032C38.1831 17.9947 38.2478 17.9272 38.2416 17.8475C38.003 14.7659 34.8216 15.1842 34.0854 16.7555ZM18.9193 15.6991C19.7646 15.6991 20.1159 16.1169 20.1159 16.7952V24.6244C20.1159 24.701 20.1779 24.7631 20.2545 24.7631H22.8602C22.9368 24.7631 22.9988 24.701 22.9988 24.6244V16.7784C22.9988 15.1604 22.1368 13.3739 19.6052 13.3739L13.7886 13.371C13.7119 13.371 13.6498 13.433 13.6498 13.5096V24.6244C13.6498 24.701 13.7118 24.7631 13.7885 24.7631H16.3952C16.4718 24.7631 16.5338 24.701 16.5338 24.6244V15.8377C16.5338 15.7611 16.5959 15.6991 16.6725 15.6991H18.9193Z" fill="#DADADA"/>
<path d="M44.2734 21.5927V8.78115C44.2734 8.70453 44.3355 8.64249 44.4121 8.64249H42.944C42.8674 8.64249 42.8054 8.70453 42.8054 8.78115V21.5927C42.8054 23.0739 43.5042 24.3667 45.5584 24.6241C45.5779 24.6263 45.5976 24.6244 45.6163 24.6185C45.6349 24.6126 45.6521 24.6028 45.6667 24.5897C45.6814 24.5767 45.693 24.5607 45.701 24.5428C45.709 24.5249 45.7131 24.5056 45.7131 24.486V24.2411C44.6628 23.6975 44.2734 22.6978 44.2734 21.5927ZM9.6442 21.8318L9.64573 13.5095C9.64573 13.433 9.70777 13.3709 9.78439 13.3709H8.31634C8.23972 13.3709 8.17768 13.4329 8.17768 13.5095L8.17615 21.8318C8.17615 23.3184 8.87734 24.6098 10.9363 24.8635C10.9558 24.8657 10.9754 24.8638 10.9941 24.8578C11.0127 24.8519 11.0299 24.8421 11.0445 24.829C11.0591 24.816 11.0707 24.8 11.0787 24.7822C11.0867 24.7643 11.0908 24.7449 11.0908 24.7254V24.4844C10.0354 23.9427 9.6442 22.9417 9.6442 21.8318ZM9.64573 11.654V9.1751C9.64573 9.09848 9.70777 9.03644 9.78439 9.03644H8.31634C8.23972 9.03644 8.17768 9.09848 8.17768 9.1751V11.654C8.17768 11.7306 8.23972 11.7927 8.31634 11.7927H9.78439C9.74762 11.7927 9.71235 11.7781 9.68634 11.752C9.66034 11.726 9.64573 11.6908 9.64573 11.654ZM26.623 21.4991V10.4038C26.623 10.3271 26.685 10.2651 26.7616 10.2651H25.2936C25.2169 10.2651 25.1549 10.3271 25.1549 10.4038V21.4992C25.1549 23.1107 26.1509 24.7464 28.5046 24.7464H29.9726C27.6189 24.7463 26.623 23.1106 26.623 21.4991ZM32.4083 19.0512C32.4083 15.6208 34.339 13.5551 36.9838 13.2257C36.7498 13.1942 36.5139 13.1783 36.2777 13.1781C33.2497 13.1781 30.9404 15.299 30.9404 19.0512C30.9404 23.4402 33.5832 24.9458 36.3417 24.9458C36.6133 24.9458 36.8689 24.9336 37.1121 24.9115C34.622 24.6686 32.4083 23.0679 32.4083 19.0512ZM15.1177 24.6244V13.5096C15.1177 13.4343 15.178 13.3737 15.2528 13.3717L13.7885 13.371C13.7118 13.371 13.6497 13.433 13.6497 13.5096V24.6244C13.6497 24.701 13.7117 24.7631 13.7883 24.7631H15.2564C15.2196 24.7631 15.1844 24.7484 15.1584 24.7224C15.1324 24.6964 15.1178 24.6612 15.1177 24.6244Z" fill="white"/>
</svg>
