<svg width="34" height="42" viewBox="0 0 34 42" fill="none" xmlns="http://www.w3.org/2000/svg">
<path fill-rule="evenodd" clip-rule="evenodd" d="M30.7113 28.5712C31.5954 28.9503 31.9622 29.688 32.1264 30.5392C32.303 31.448 32.5739 32.2978 33.261 32.963C33.3527 33.0506 33.4184 33.1683 33.4895 33.2778C34.3353 34.5629 34.1423 35.4702 32.8189 36.2366C32.2263 36.5815 31.5995 36.8675 30.9878 37.1755C30.0678 37.6236 29.2466 38.2508 28.5722 39.0203C27.7018 40.0194 26.6384 40.7393 25.2985 40.9897C23.6959 41.2894 22.2877 40.5887 21.6034 39.0915C21.4569 38.7713 21.2913 38.6741 20.9464 38.6563C20.0966 38.6057 19.2467 38.5194 18.4036 38.3949C16.9187 38.1759 15.4926 38.5413 14.046 38.7535C13.474 38.8369 13.0757 39.0258 12.6966 39.513C11.9494 40.4724 10.8189 40.7188 9.68025 40.5682C8.75646 40.445 7.80803 40.2124 6.97046 39.8169C5.74968 39.2448 4.48647 38.9806 3.17263 38.8383C2.67459 38.789 2.17942 38.7141 1.68909 38.6139C0.371138 38.3278 -0.254305 37.4725 0.0960527 36.1792C0.384824 35.113 0.424513 34.0975 0.287655 33.0095C0.0919471 31.4562 0.562741 30.7267 2.10514 30.2888C3.3396 29.9384 3.80902 28.8695 4.56448 28.0621C4.62333 27.9978 4.61238 27.8486 4.6028 27.7418C4.38794 25.6328 5.01748 23.7086 5.90159 21.8473C6.87055 19.8081 8.16934 17.9811 9.57761 16.2252C11.1091 14.316 11.729 12.1194 11.573 9.68746C11.4567 7.85629 11.3007 6.02239 11.7413 4.2049C12.3161 1.82357 13.953 0.312649 16.3863 0.0827271C17.4251 -0.0158111 18.5158 -0.0596058 19.5272 0.144313C21.8908 0.617844 23.0103 2.35184 23.5385 4.55526C23.9532 6.28515 24.0066 8.04926 23.93 9.81063C23.8547 11.5104 24.2461 13.0473 25.2698 14.4077C26.0061 15.3862 26.8136 16.3114 27.5033 17.3214C28.3683 18.5915 29.2469 19.867 29.9326 21.2356C31.074 23.5115 31.5092 25.7834 30.7113 28.5712ZM11.9767 33.7116C12.5721 34.7134 13.2523 35.5236 14.38 35.9109C16.8941 36.7772 19.1837 36.2531 21.3543 34.8982C21.5965 34.749 21.847 34.4438 21.8962 34.1769C22.1262 32.8863 22.289 31.5821 22.4738 30.2792C22.6462 29.057 22.8953 27.8787 24.1476 27.2423C24.2557 27.1862 24.3091 26.9877 24.3515 26.8468C24.5814 26.0954 24.9509 25.7341 25.7078 25.8518C27.2187 26.0872 28.7186 26.4239 29.2346 28.266C29.5439 27.7528 29.3879 27.3121 29.0649 26.9823C28.6981 26.6059 28.2711 26.2446 27.8017 26.0229C27.205 25.7451 26.9929 25.4727 27.0476 24.735C27.2351 22.2141 26.0609 20.2091 24.3775 18.4491C24.3419 18.4122 24.2762 18.4012 24.2242 18.3793C25.9349 20.4035 27.0668 22.5563 26.2675 25.2962C25.3697 25.2291 25.3574 25.2318 25.2767 24.8391C24.94 23.2036 24.2735 21.6982 23.5399 20.2091C22.9371 18.9597 22.3842 17.6869 21.8826 16.3935C21.4378 15.2658 21.0806 14.097 20.6946 12.9775C20.2731 13.2554 19.8776 13.5496 19.452 13.7932C18.9127 14.1011 18.342 14.3489 17.8028 14.6568C16.4383 15.4314 15.3298 15.3274 14.1364 14.301C13.8093 14.0177 13.4466 13.7768 13.0251 13.462C12.8212 15.6216 12.0944 17.4843 11.2815 19.3223C10.9147 20.1524 10.5392 20.9786 10.1552 21.8008C9.42707 23.3569 9.03702 24.9978 8.88647 26.8262C8.23092 25.8778 8.0489 24.9417 8.11322 23.9454C8.19534 22.6575 8.66203 21.4915 9.25736 20.3665C9.48318 19.9382 9.68299 19.5002 9.89649 19.0636L9.77195 19.0075C8.82899 20.4965 7.97637 22.0335 7.63422 23.7866C7.18806 26.0694 7.94626 27.5721 9.93207 28.7505C11.1789 29.4881 12.3175 30.3914 12.9881 31.734C13.5287 32.8083 13.1797 33.4762 11.9767 33.7116ZM9.35179 39.2954C10.5055 39.2092 11.3321 39.0546 11.8057 38.2101C12.2792 37.3685 12.1218 36.55 11.6141 35.7836C11.2938 35.2978 10.9202 34.8448 10.5972 34.3589C9.99229 33.4447 9.3997 32.5196 8.81531 31.593C8.39379 30.9224 8.05027 30.1971 7.574 29.5716C6.86644 28.641 5.64293 28.2167 4.71092 29.6702C4.23791 30.4337 3.49554 30.992 2.63067 31.2345C1.69182 31.5178 1.4359 32.0734 1.51391 33.0629C1.57139 33.8115 1.68361 34.608 1.50296 35.3142C1.08554 36.9469 1.36336 37.4684 3.03714 37.6394C4.55627 37.7968 6.03845 38.0377 7.43304 38.7535C8.0927 39.0901 8.88374 39.1695 9.35179 39.2954ZM24.7867 28.6834C24.5636 28.9667 24.2803 29.2076 24.1585 29.5141C23.9538 29.9927 23.8219 30.4992 23.7671 31.0168C23.6357 32.5989 23.4824 34.1687 22.9459 35.6755C22.8365 35.9834 22.7735 36.3064 22.7147 36.6267C22.5313 37.6107 22.6284 38.5276 23.466 39.2092C24.2913 39.8853 25.237 39.9072 26.1389 39.4706C26.8013 39.1531 27.4719 38.7357 27.9659 38.2006C28.8418 37.2521 29.86 36.5651 31.011 36.0272C31.4531 35.822 31.8897 35.5893 32.292 35.3156C32.756 35.0008 32.8463 34.6285 32.5999 34.1208C32.4399 33.7819 32.2335 33.4668 31.9868 33.1847C31.5516 32.7057 31.3258 32.1473 31.1917 31.5328C31.1068 31.151 31.0179 30.7623 30.8577 30.4106C30.4773 29.5607 29.3783 29.3732 28.6297 29.9192C28.1438 30.2699 27.6077 30.5449 27.0394 30.7349C26.3277 30.9758 25.7009 30.6952 25.3328 30.0424C25.1124 29.6537 24.992 29.2103 24.7867 28.6834ZM16.1892 14.3406C16.4014 14.2845 16.7791 14.2476 17.1021 14.0916C17.9397 13.6988 18.7553 13.2581 19.5738 12.8243C19.727 12.7435 19.8666 12.6313 19.998 12.5163C20.8766 11.7335 20.7357 10.8644 19.6641 10.3909C18.8962 10.0555 18.1324 9.71063 17.3731 9.35626C16.374 8.89368 15.4078 8.86767 14.5004 9.56155C13.916 10.0077 13.3453 10.473 12.776 10.9383C12.4352 11.2134 12.3545 11.5638 12.5283 11.973C12.8034 12.6176 15.0095 14.2284 15.7226 14.301C15.8252 14.3146 15.9292 14.3201 16.1892 14.3406ZM19.1413 9.72988C19.3438 9.81747 19.5026 9.87222 19.6422 9.95433C20.1034 10.2294 20.4141 10.0447 20.4989 9.58755C20.6235 8.90599 20.7904 8.19433 20.7015 7.52372C20.555 6.40422 19.7175 5.64192 18.8429 5.59676C17.7919 5.54612 16.9173 6.41517 16.7271 7.69206C16.5807 8.67333 16.6067 8.71029 17.5633 8.93473C17.6659 8.52553 17.7056 8.08484 17.8959 7.72354C18.019 7.48814 18.3653 7.22674 18.6034 7.23495C18.8416 7.24043 19.1632 7.52372 19.285 7.76733C19.6052 8.40509 19.4971 9.06201 19.1413 9.72988ZM25.5572 27.9991C25.5901 28.5466 25.7064 29.1487 26.3017 29.4293C26.8669 29.6989 27.3747 29.3978 27.8345 29.0625C27.9481 28.979 28.0535 28.8778 28.1452 28.771C28.4723 28.3946 28.4682 27.9444 28.0576 27.6611C27.6708 27.3918 27.2484 27.1777 26.8026 27.0247C25.9692 26.7482 25.5517 27.0794 25.5572 27.9991ZM14.4799 9.09623C14.7536 8.87999 15.1792 8.70892 15.2039 8.48994C15.2969 7.677 15.0862 6.90239 14.4552 6.31663C13.9037 5.80615 13.2454 5.88416 12.7678 6.48223C12 7.43887 12.1245 9.28372 13.036 10.1815L13.5205 9.82021C13.0689 9.32341 12.9785 8.75408 13.1127 8.17928C13.1701 7.93567 13.4439 7.7468 13.619 7.53194C13.8175 7.70027 14.083 7.83439 14.1952 8.04789C14.3444 8.33256 14.3745 8.67744 14.4799 9.09623Z" fill="white"/>
<path fill-rule="evenodd" clip-rule="evenodd" d="M13.9734 14.6376C14.087 14.7334 14.202 14.8251 14.3115 14.9264C15.3899 15.9254 16.2343 16.0431 17.5345 15.3561C17.9095 15.1577 18.2694 14.9277 18.6444 14.7252C18.789 14.6505 18.9515 14.6174 19.1138 14.6294C18.045 15.1905 17.1266 16.1348 15.7704 15.9473C14.9602 15.8351 14.4045 15.3164 13.8749 14.769C13.9084 14.7257 13.9412 14.6819 13.9734 14.6376Z" fill="white"/>
</svg>
