<svg width="36" height="38" viewBox="0 0 36 38" fill="none" xmlns="http://www.w3.org/2000/svg">
<path fill-rule="evenodd" clip-rule="evenodd" d="M35.9979 16.8662C35.9979 17.1491 35.8863 17.4205 35.6878 17.6206C35.4892 17.8207 35.2199 17.9331 34.9391 17.9331H18.0011C17.7203 17.9331 17.451 17.8207 17.2524 17.6206C17.0538 17.4205 16.9423 17.1491 16.9423 16.8662V4.07911C16.9422 3.82829 17.0299 3.58547 17.1898 3.39329C17.3497 3.2011 17.5717 3.07184 17.8168 3.02819L34.757 0.0162751C34.9093 -0.010843 35.0657 -0.00400804 35.2151 0.0362984C35.3645 0.0766047 35.5033 0.149404 35.6218 0.249577C35.7402 0.349749 35.8355 0.474863 35.9008 0.616119C35.9662 0.757375 36 0.911342 36 1.06719L35.9979 16.8662ZM13.5818 3.78144C13.7341 3.75432 13.8904 3.76116 14.0398 3.80146C14.1892 3.84177 14.328 3.91457 14.4465 4.01474C14.565 4.11491 14.6603 4.24003 14.7256 4.38128C14.791 4.52254 14.8248 4.67651 14.8248 4.83236V16.8662C14.8248 17.1491 14.7132 17.4205 14.5147 17.6206C14.3161 17.8207 14.0468 17.9331 13.766 17.9331H1.063C0.782195 17.9331 0.512895 17.8207 0.314339 17.6206C0.115783 17.4205 0.00423477 17.1491 0.00423477 16.8662L3.42766e-08 7.0921C-6.32711e-05 6.84128 0.0875641 6.59846 0.247495 6.40627C0.407426 6.21408 0.629435 6.08482 0.874537 6.04118L13.5818 3.78144ZM0.00635214 21.1338C0.00635214 20.8509 0.1179 20.5795 0.316456 20.3794C0.515013 20.1793 0.784312 20.0669 1.06511 20.0669H13.766C14.0468 20.0669 14.3161 20.1793 14.5147 20.3794C14.7132 20.5795 14.8248 20.8509 14.8248 21.1338V33.1666C14.8248 33.3224 14.791 33.4764 14.7256 33.6176C14.6603 33.7589 14.565 33.884 14.4465 33.9842C14.328 34.0844 14.1892 34.1572 14.0398 34.1975C13.8904 34.2378 13.7341 34.2446 13.5818 34.2175L0.885124 31.9588C0.640022 31.9152 0.418014 31.7859 0.258083 31.5937C0.098152 31.4015 0.0105246 31.1587 0.0105879 30.9079L0.00635214 21.1338ZM35.9958 36.9328C35.9958 37.0887 35.962 37.2426 35.8966 37.3839C35.8313 37.5251 35.736 37.6503 35.6175 37.7504C35.499 37.8506 35.3602 37.9234 35.2108 37.9637C35.0614 38.004 34.9051 38.0108 34.7528 37.9837L17.8168 34.9707C17.5717 34.9271 17.3497 34.7978 17.1898 34.6056C17.0299 34.4135 16.9422 34.1706 16.9423 33.9198V21.1338C16.9423 20.8509 17.0538 20.5795 17.2524 20.3794C17.451 20.1793 17.7203 20.0669 18.0011 20.0669H34.9391C35.2199 20.0669 35.4892 20.1793 35.6878 20.3794C35.8863 20.5795 35.9979 20.8509 35.9979 21.1338L35.9958 36.9328Z" fill="white"/>
</svg>
