<svg width="145" height="27" viewBox="0 0 145 27" fill="none" xmlns="http://www.w3.org/2000/svg">
<g clip-path="url(#clip0_122_3092)">
<path d="M39.1367 7.74375C39.5253 7.74375 39.8583 8.0625 39.8583 8.475V22.4437C39.8583 22.8375 39.5068 23.1562 39.1367 23.1562H37.2677C36.9162 23.1562 36.5646 22.875 36.5646 22.4813V21.1875C35.6209 22.5938 33.9925 23.5687 31.6239 23.5687C27.664 23.5687 25.2214 20.9062 25.2214 16.95V8.4375C25.2214 8.04375 25.573 7.725 25.9431 7.725H27.812C28.2006 7.725 28.5152 8.04375 28.5152 8.4375V16.4062C28.5152 18.975 29.8475 20.6813 32.4751 20.6813C35.0472 20.6813 36.5646 18.9187 36.5646 16.4437V8.4375C36.5646 8.04375 36.9162 7.725 37.2677 7.725H39.1367M11.5652 0C5.16271 0 0 5.04375 0 11.775C0 18.525 5.16271 23.55 11.5652 23.55C12.657 23.55 13.7117 23.4 14.7109 23.1188L15.9692 26.4C16.0988 26.7563 16.3578 26.9812 16.8204 26.9812H18.8189C19.3 26.9812 19.6516 26.6625 19.4296 26.0437L17.8012 21.75C21.0024 19.7062 23.1304 16.0875 23.1304 11.7563C23.1304 5.04375 17.9677 0 11.5652 0ZM16.5984 18.6188L15.1365 14.775C15.007 14.4563 14.748 14.1562 14.1928 14.1562H12.2869C11.8058 14.1562 11.4357 14.475 11.6577 15.0938L13.5822 20.1375C12.953 20.3062 12.2684 20.3812 11.5652 20.3812C6.88361 20.3812 3.55283 16.65 3.55283 11.775C3.55283 6.9 6.88361 3.16875 11.5652 3.16875C16.2468 3.16875 19.5776 6.9 19.5776 11.775C19.5776 14.625 18.4488 17.0625 16.5984 18.6188ZM144.944 22.3688C145.111 22.7625 144.907 23.1375 144.445 23.1375H142.354C141.965 23.1375 141.651 22.95 141.521 22.5563L137.654 12.0187L133.731 22.5563C133.564 22.9688 133.287 23.1375 132.898 23.1375H131.029C130.641 23.1375 130.363 22.9688 130.197 22.5563L126.237 11.9625L122.332 22.5563C122.166 22.95 121.888 23.1375 121.499 23.1375H119.538C119.149 23.1375 118.872 22.95 118.705 22.5563L114.838 11.9625L110.841 22.5563C110.674 22.9688 110.397 23.1375 110.008 23.1375H108.139C107.751 23.1375 107.473 22.9688 107.307 22.5563L103.402 11.9625L99.4978 22.5563C99.3683 22.95 99.0537 23.1375 98.6651 23.1375H96.6297C96.1486 23.1375 95.9635 22.7438 96.13 22.3688L101.422 8.34375C101.589 7.93125 101.866 7.725 102.255 7.725H104.531C104.92 7.725 105.197 7.9125 105.364 8.34375L109.176 18.5812L112.95 8.34375C113.117 7.93125 113.395 7.725 113.783 7.725H116.022C116.411 7.725 116.688 7.9125 116.855 8.34375L120.593 18.5812L124.331 8.34375C124.497 7.93125 124.775 7.725 125.163 7.725H127.421C127.809 7.725 128.087 7.9125 128.254 8.34375L132.047 18.5812L135.748 8.34375C135.914 7.93125 136.192 7.725 136.581 7.725H138.857C139.245 7.725 139.523 7.9125 139.689 8.34375L144.944 22.3688ZM57.2524 7.74375H55.3835C54.9949 7.74375 54.6618 8.0625 54.6618 8.475V9.75C53.7181 8.30625 51.8677 7.275 49.6842 7.275C45.5577 7.275 42.0234 10.575 42.0234 15.3937C42.0234 20.2687 45.5762 23.55 49.6656 23.55C51.8862 23.55 53.6811 22.5188 54.6803 21.075V22.425C54.6803 22.8188 55.0319 23.1375 55.402 23.1375H57.2709C57.6595 23.1375 57.9741 22.8188 57.9741 22.425V8.475C57.9556 8.0625 57.641 7.74375 57.2524 7.74375ZM50.0357 20.475C47.3156 20.475 45.3726 18.225 45.3726 15.4313C45.3726 12.6 47.2971 10.425 50.0357 10.425C52.7374 10.425 54.6988 12.6 54.6988 15.4313C54.6803 18.2438 52.7189 20.475 50.0357 20.475ZM79.5502 20.9625C79.9573 21.4688 79.6057 21.8625 79.3836 22.0312C78.0883 23.025 76.3674 23.5687 74.4985 23.5687C69.7799 23.5687 66.6341 20.0625 66.6341 15.45C66.6341 10.8375 69.7799 7.29375 74.4985 7.29375C76.3674 7.29375 78.0698 7.8375 79.3836 8.83125C79.6057 9 79.9202 9.3375 79.5502 9.9L78.6619 11.1562C78.3104 11.6438 77.9033 11.5125 77.5517 11.2875C76.719 10.7812 75.7383 10.35 74.6095 10.35C71.8524 10.35 70.0204 12.6 70.0204 15.45C70.0204 18.3 71.8524 20.5312 74.6095 20.5312C75.7568 20.5312 76.6635 20.0812 77.4962 19.5938C77.8478 19.4062 78.2178 19.2375 78.6064 19.7625L79.5502 20.9625ZM88.3582 7.3125C83.9172 7.3125 80.3829 10.8375 80.3829 15.4313C80.3829 20.0625 83.9357 23.55 88.3582 23.55C92.7993 23.55 96.3336 20.0438 96.3336 15.4313C96.3521 10.8563 92.7993 7.3125 88.3582 7.3125ZM88.3582 20.4562C85.6381 20.4562 83.6951 18.2437 83.6951 15.45C83.6951 12.6188 85.6196 10.4438 88.3582 10.4438C91.0784 10.4438 93.0213 12.6188 93.0213 15.45C93.0213 18.2437 91.0969 20.4562 88.3582 20.4562ZM63.803 0.4125C64.2101 0.4125 64.5061 0.76875 64.5061 1.14375V22.4062C64.5061 22.8 64.2286 23.1375 63.803 23.1375H61.934C61.5454 23.1375 61.2124 22.7812 61.2124 22.4062V1.1625C61.2124 0.76875 61.5639 0.43125 61.934 0.43125H63.803" fill="white"/>
</g>
<defs>
<clipPath id="clip0_122_3092">
<rect width="145" height="27" fill="white"/>
</clipPath>
</defs>
</svg>
