<svg width="13" height="11" viewBox="0 0 13 11" fill="none" xmlns="http://www.w3.org/2000/svg">
<path d="M12.3303 5.42788L7.83031 9.98994C7.73649 10.0851 7.60924 10.1385 7.47656 10.1385C7.34388 10.1385 7.21663 10.0851 7.12281 9.98994C7.02899 9.89483 6.97628 9.76583 6.97628 9.63131C6.97628 9.4968 7.02899 9.3678 7.12281 9.27269L10.7697 5.57614H0.976562C0.843954 5.57614 0.716777 5.52274 0.623009 5.42768C0.529241 5.33261 0.476562 5.20368 0.476562 5.06925C0.476562 4.93481 0.529241 4.80588 0.623009 4.71082C0.716777 4.61576 0.843954 4.56235 0.976562 4.56235H10.7697L7.12281 0.865807C7.02899 0.770693 6.97628 0.64169 6.97628 0.507178C6.97628 0.372666 7.02899 0.243663 7.12281 0.148549C7.21663 0.0534347 7.34388 0 7.47656 0C7.60924 0 7.73649 0.0534347 7.83031 0.148549L12.3303 4.71062C12.3768 4.75769 12.4137 4.8136 12.4388 4.87513C12.464 4.93667 12.477 5.00263 12.477 5.06925C12.477 5.13586 12.464 5.20182 12.4388 5.26336C12.4137 5.32489 12.3768 5.3808 12.3303 5.42788Z" fill="white"/>
</svg>
