<svg width="1364" height="596" viewBox="0 0 1364 596" fill="none" xmlns="http://www.w3.org/2000/svg">
<g opacity="0.2">
<path fill-rule="evenodd" clip-rule="evenodd" d="M-8.25 33.75H45.1875V78.75H-8.25V33.75ZM-5.4375 36.5625H42.375V75.9375H-5.4375V36.5625Z" fill="url(#paint0_linear_1_3)"/>
<path fill-rule="evenodd" clip-rule="evenodd" d="M-13.875 28.125V95.625H62.0625V28.125H-13.875ZM59.25 30.9375H-11.0625V92.8125H59.25V30.9375Z" fill="url(#paint1_linear_1_3)"/>
<path fill-rule="evenodd" clip-rule="evenodd" d="M-19.5 22.5H78.9375V112.5H-19.5V22.5ZM-16.6875 25.3125H76.125V109.688H-16.6875V25.3125Z" fill="url(#paint2_linear_1_3)"/>
<path fill-rule="evenodd" clip-rule="evenodd" d="M-25.125 16.875V129.375H93V16.875H-25.125ZM90.1875 19.6875H-22.3125V126.562H90.1875V19.6875Z" fill="url(#paint3_linear_1_3)"/>
<path fill-rule="evenodd" clip-rule="evenodd" d="M-30.75 11.25H107.062V146.25H-30.75V11.25ZM-27.9375 14.0625H104.25V143.438H-27.9375V14.0625Z" fill="url(#paint4_linear_1_3)"/>
<path fill-rule="evenodd" clip-rule="evenodd" d="M-36.375 5.625V163.125H121.125V5.625H-36.375ZM118.312 8.4375H-33.5625V160.312H118.312V8.4375Z" fill="url(#paint5_linear_1_3)"/>
<path fill-rule="evenodd" clip-rule="evenodd" d="M-42 0V180H138V0H-42ZM135.188 2.8125H-39.1875V177.188H135.188V2.8125Z" fill="url(#paint6_linear_1_3)"/>
</g>
<g opacity="0.5">
<path d="M827.5 536C827.5 547.83 825.715 558.519 822.845 566.231C821.409 570.089 819.712 573.177 817.853 575.291C815.992 577.405 814.013 578.5 812 578.5C809.987 578.5 808.008 577.405 806.147 575.291C804.288 573.177 802.591 570.089 801.155 566.231C798.285 558.519 796.5 547.83 796.5 536C796.5 524.17 798.285 513.481 801.155 505.769C802.591 501.911 804.288 498.823 806.147 496.709C808.008 494.595 809.987 493.5 812 493.5C814.013 493.5 815.992 494.595 817.853 496.709C819.712 498.823 821.409 501.911 822.845 505.769C825.715 513.481 827.5 524.17 827.5 536Z" stroke="url(#paint7_linear_1_3)"/>
<path d="M812 520.5C823.83 520.5 834.519 522.285 842.231 525.155C846.089 526.591 849.177 528.288 851.291 530.147C853.405 532.008 854.5 533.987 854.5 536C854.5 538.013 853.405 539.992 851.291 541.853C849.177 543.712 846.089 545.409 842.231 546.845C834.519 549.715 823.83 551.5 812 551.5C800.17 551.5 789.481 549.715 781.769 546.845C777.911 545.409 774.823 543.712 772.709 541.853C770.595 539.992 769.5 538.013 769.5 536C769.5 533.987 770.595 532.008 772.709 530.147C774.823 528.288 777.911 526.591 781.769 525.155C789.481 522.285 800.17 520.5 812 520.5Z" stroke="url(#paint8_linear_1_3)"/>
<path d="M822.879 525.121C831.12 533.361 837.311 542.059 840.669 549.445C842.348 553.14 843.307 556.481 843.474 559.258C843.641 562.036 843.014 564.187 841.601 565.601C840.187 567.014 838.036 567.641 835.258 567.474C832.481 567.307 829.14 566.348 825.445 564.669C818.059 561.311 809.361 555.12 801.121 546.879C792.88 538.639 786.689 529.941 783.331 522.555C781.652 518.86 780.693 515.519 780.526 512.742C780.359 509.964 780.986 507.813 782.399 506.399C783.813 504.986 785.964 504.359 788.742 504.526C791.519 504.693 794.86 505.652 798.555 507.331C805.941 510.689 814.639 516.88 822.879 525.121Z" stroke="url(#paint9_linear_1_3)"/>
<path d="M782.399 565.601C780.986 564.187 780.359 562.036 780.526 559.258C780.693 556.481 781.652 553.14 783.331 549.445C786.689 542.059 792.88 533.361 801.121 525.121C809.361 516.88 818.059 510.689 825.445 507.331C829.14 505.652 832.481 504.693 835.258 504.526C838.036 504.359 840.187 504.986 841.601 506.399C843.014 507.813 843.641 509.964 843.474 512.742C843.307 515.519 842.348 518.86 840.669 522.555C837.311 529.941 831.12 538.639 822.879 546.879C814.639 555.12 805.941 561.311 798.555 564.669C794.86 566.348 791.519 567.307 788.742 567.474C785.964 567.641 783.813 567.014 782.399 565.601Z" stroke="url(#paint10_linear_1_3)"/>
</g>
<path fill-rule="evenodd" clip-rule="evenodd" d="M444.413 438.735C440.367 436.553 435.738 435.315 430.819 435.315C430.541 435.315 430.315 435.54 430.315 435.818C430.315 440.737 431.553 445.367 433.735 449.413C429.14 449.547 424.512 450.79 420.252 453.249C420.011 453.388 419.929 453.696 420.068 453.936C422.527 458.196 425.914 461.587 429.827 464C425.914 466.413 422.527 469.804 420.068 474.064C419.929 474.304 420.011 474.612 420.252 474.751C424.512 477.21 429.14 478.453 433.735 478.587C431.553 482.633 430.315 487.262 430.315 492.181C430.315 492.459 430.541 492.685 430.819 492.685C435.738 492.685 440.367 491.447 444.413 489.265C444.547 493.86 445.789 498.488 448.249 502.748C448.388 502.989 448.696 503.071 448.936 502.933C453.196 500.473 456.587 497.086 459 493.173C461.413 497.086 464.804 500.473 469.064 502.933C469.304 503.071 469.612 502.989 469.751 502.748C472.211 498.488 473.453 493.86 473.587 489.265C477.633 491.447 482.263 492.685 487.182 492.685C487.459 492.685 487.685 492.459 487.685 492.181C487.685 487.262 486.447 482.633 484.265 478.587C488.86 478.453 493.488 477.21 497.748 474.751C497.989 474.612 498.071 474.304 497.932 474.064C495.473 469.804 492.086 466.413 488.173 464C492.086 461.587 495.473 458.196 497.932 453.936C498.071 453.696 497.989 453.388 497.748 453.249C493.488 450.79 488.86 449.547 484.265 449.413C486.447 445.367 487.685 440.737 487.685 435.818C487.685 435.54 487.459 435.315 487.182 435.315C482.263 435.315 477.633 436.553 473.587 438.735C473.453 434.14 472.21 429.512 469.751 425.252C469.612 425.011 469.304 424.929 469.064 425.068C464.804 427.527 461.413 430.914 459 434.827C456.587 430.914 453.196 427.527 448.936 425.068C448.696 424.929 448.388 425.011 448.249 425.252C445.79 429.512 444.547 434.14 444.413 438.735ZM456.311 459.343C454.205 456.898 451.74 454.874 449.042 453.304C446.815 449.389 445.572 444.98 445.423 440.484C449.242 442.861 452.44 446.142 454.717 450.028C454.727 453.149 455.247 456.297 456.311 459.343ZM454.768 448.208C452.368 444.575 449.164 441.521 445.409 439.298C445.453 434.848 446.571 430.35 448.871 426.197C452.939 428.644 456.157 431.98 458.419 435.812C456.279 439.614 455.031 443.862 454.768 448.208ZM455.807 452.082C456.064 455.378 456.918 458.671 458.411 461.801C458.139 458.344 457.232 455.065 455.807 452.082ZM447.082 460.807C450.378 461.064 453.671 461.918 456.8 463.411C453.344 463.139 450.065 462.232 447.082 460.807ZM445.028 459.717C448.15 459.727 451.297 460.247 454.343 461.311C451.898 459.205 449.874 456.74 448.304 454.042C444.39 451.815 439.98 450.572 435.484 450.423C437.861 454.242 441.142 457.44 445.028 459.717ZM434.298 450.409C436.521 454.164 439.575 457.368 443.208 459.768C438.862 460.031 434.614 461.279 430.812 463.419C426.98 461.157 423.644 457.939 421.197 453.871C425.35 451.571 429.849 450.453 434.298 450.409ZM434.879 449.403C439.242 449.45 443.545 450.493 447.439 452.439C445.493 448.544 444.45 444.242 444.403 439.879C440.528 437.692 436.073 436.412 431.326 436.326C431.412 441.073 432.692 445.528 434.879 449.403ZM472.591 439.298C472.547 434.849 471.429 430.35 469.129 426.197C465.061 428.644 461.843 431.98 459.581 435.812C461.721 439.614 462.969 443.862 463.232 448.208C465.632 444.575 468.836 441.521 472.591 439.298ZM463.283 450.028C465.56 446.142 468.758 442.861 472.577 440.484C472.428 444.98 471.185 449.389 468.958 453.304C466.26 454.874 463.795 456.898 461.689 459.343C462.753 456.297 463.273 453.149 463.283 450.028ZM459.589 461.8C461.082 458.671 461.936 455.378 462.193 452.082C460.768 455.065 459.861 458.344 459.589 461.8ZM462.276 449.758C460.724 452.466 459.601 455.452 459 458.622C458.399 455.452 457.276 452.466 455.724 449.758C455.752 445.254 456.881 440.814 459 436.846C461.119 440.814 462.248 445.254 462.276 449.758ZM473.597 439.879C477.472 437.692 481.927 436.412 486.674 436.326C486.588 441.073 485.308 445.528 483.121 449.403C478.758 449.45 474.455 450.493 470.561 452.439C472.507 448.544 473.55 444.242 473.597 439.879ZM482.516 450.423C478.02 450.572 473.61 451.815 469.696 454.042C468.126 456.74 466.102 459.205 463.657 461.311C466.703 460.247 469.85 459.727 472.972 459.717C476.858 457.44 480.139 454.242 482.516 450.423ZM461.2 463.411C464.656 463.139 467.935 462.232 470.918 460.807C467.622 461.064 464.329 461.918 461.2 463.411ZM473.242 460.724C477.746 460.752 482.186 461.881 486.154 464C482.186 466.119 477.746 467.248 473.242 467.276C470.534 465.724 467.548 464.601 464.378 464C467.548 463.399 470.534 462.276 473.242 460.724ZM461.199 464.589C464.329 466.082 467.622 466.936 470.918 467.193C467.935 465.768 464.656 464.861 461.199 464.589ZM472.972 468.283C476.858 470.56 480.139 473.758 482.516 477.577C478.02 477.428 473.611 476.185 469.696 473.958C468.126 471.26 466.102 468.795 463.657 466.689C466.703 467.753 469.851 468.274 472.972 468.283ZM483.702 477.591C481.479 473.836 478.425 470.632 474.792 468.232C479.138 467.969 483.386 466.721 487.188 464.581C491.02 466.843 494.356 470.061 496.803 474.129C492.65 476.429 488.151 477.547 483.702 477.591ZM483.121 478.597C478.758 478.55 474.456 477.507 470.561 475.561C472.507 479.455 473.55 483.758 473.597 488.121C477.472 490.308 481.927 491.588 486.674 491.674C486.588 486.927 485.308 482.472 483.121 478.597ZM472.577 487.516C472.428 483.02 471.185 478.61 468.958 474.696C466.26 473.126 463.795 471.102 461.689 468.657C462.753 471.703 463.273 474.85 463.283 477.972C465.56 481.858 468.758 485.139 472.577 487.516ZM459.589 466.2C459.861 469.656 460.768 472.935 462.193 475.918C461.936 472.622 461.082 469.329 459.589 466.2ZM462.276 478.242C462.248 482.746 461.119 487.186 459 491.154C456.881 487.186 455.752 482.746 455.724 478.242C457.276 475.534 458.399 472.548 459 469.377C459.601 472.548 460.724 475.533 462.276 478.242ZM455.807 475.918C456.064 472.622 456.918 469.329 458.411 466.199C458.139 469.656 457.232 472.935 455.807 475.918ZM454.717 477.972C452.44 481.858 449.242 485.139 445.423 487.516C445.572 483.02 446.815 478.611 449.042 474.696C451.74 473.126 454.205 471.102 456.311 468.657C455.247 471.703 454.727 474.851 454.717 477.972ZM445.409 488.702C449.164 486.479 452.368 483.425 454.768 479.792C455.031 484.138 456.279 488.386 458.419 492.188C456.157 496.02 452.939 499.356 448.871 501.803C446.571 497.65 445.453 493.151 445.409 488.702ZM444.403 488.121C444.45 483.758 445.493 479.455 447.439 475.561C443.544 477.507 439.242 478.55 434.879 478.597C432.692 482.472 431.412 486.927 431.326 491.674C436.073 491.588 440.528 490.308 444.403 488.121ZM435.484 477.577C439.98 477.428 444.389 476.185 448.304 473.958C449.874 471.26 451.898 468.795 454.343 466.689C451.297 467.753 448.149 468.273 445.028 468.283C441.142 470.56 437.861 473.758 435.484 477.577ZM444.758 467.276C440.254 467.248 435.814 466.119 431.846 464C435.814 461.881 440.254 460.752 444.758 460.724C447.467 462.276 450.452 463.399 453.622 464C450.452 464.601 447.466 465.724 444.758 467.276ZM447.082 467.193C450.065 465.768 453.344 464.861 456.801 464.589C453.671 466.082 450.378 466.936 447.082 467.193ZM443.208 468.232C439.575 470.632 436.521 473.836 434.298 477.591C429.849 477.547 425.35 476.429 421.197 474.129C423.644 470.061 426.98 466.843 430.812 464.581C434.614 466.721 438.862 467.969 443.208 468.232ZM463.232 479.792C465.632 483.425 468.836 486.479 472.591 488.702C472.547 493.151 471.429 497.65 469.129 501.803C465.061 499.356 461.843 496.02 459.581 492.188C461.721 488.386 462.969 484.138 463.232 479.792ZM474.792 459.768C478.425 457.368 481.479 454.164 483.702 450.409C488.151 450.453 492.65 451.571 496.803 453.871C494.356 457.939 491.02 461.157 487.188 463.419C483.386 461.279 479.138 460.031 474.792 459.768ZM467.725 455.275C464.999 457.146 462.574 459.532 460.61 462.39C463.468 460.426 465.854 458.001 467.725 455.275ZM467.725 472.725C465.854 469.999 463.468 467.574 460.61 465.61C462.574 468.468 464.999 470.854 467.725 472.725ZM457.39 465.61C455.426 468.468 453.001 470.854 450.275 472.725C452.146 469.999 454.532 467.574 457.39 465.61ZM457.39 462.39C454.532 460.426 452.146 458.001 450.275 455.275C453.001 457.146 455.426 459.532 457.39 462.39Z" fill="url(#paint11_radial_1_3)"/>
<path opacity="0.5" fill-rule="evenodd" clip-rule="evenodd" d="M1339.31 68.8208L1293.23 69.3441L1271.21 107.492L1292.31 150.176L1339.67 150.386L1363.16 109.707L1339.31 68.8208ZM1349.65 130.217L1361.08 110.424L1342.81 110.343L1331.24 130.381L1349.65 130.217ZM1348.81 131.667L1338.84 148.941L1320.57 148.86L1330.41 131.831L1348.81 131.667ZM1328.73 131.846L1318.91 148.852L1294.01 148.741L1303.63 132.069L1328.73 131.846ZM1302.39 131.342L1292.81 147.93L1281.67 125.407L1290.67 109.825L1302.39 131.342ZM1291.51 108.362L1303.23 129.878L1315 109.497L1303.15 88.4266L1303.02 88.4288L1291.51 108.362ZM1289.86 108.341L1280.9 123.854L1272.84 107.545L1281.38 92.7599L1289.86 108.341ZM1282.22 91.2966L1290.71 106.878L1302.18 87.0009L1302.35 86.9982L1293.64 71.5163L1282.22 91.2966ZM1304.47 130.62L1329.57 130.396L1341.15 110.335L1316.24 110.224L1304.47 130.62ZM1340.93 108.892L1316.25 108.783L1304.79 88.399L1328.74 87.9961L1340.93 108.892ZM1327.91 86.5681L1303.99 86.9706L1294.87 70.7673L1318.54 70.4986L1327.91 86.5681ZM1320.19 70.4797L1329.56 86.5403L1347.8 86.2336L1338.48 70.272L1320.19 70.4797ZM1348.63 87.6616L1330.39 87.9683L1342.6 108.9L1361.06 108.982L1348.63 87.6616Z" fill="url(#paint12_linear_1_3)"/>
<path fill-rule="evenodd" clip-rule="evenodd" d="M438.03 120.68L434.763 132.981L447.064 136.249L450.332 123.947L438.03 120.68ZM446.354 135.026L435.986 132.271L438.74 121.903L449.108 124.657L446.354 135.026Z" fill="url(#paint13_radial_1_3)"/>
<path fill-rule="evenodd" clip-rule="evenodd" d="M467.438 103.616L479.739 106.884L476.472 119.185L464.171 115.917L467.438 103.616ZM465.394 115.208L475.762 117.962L478.516 107.593L468.148 104.839L465.394 115.208Z" fill="url(#paint14_radial_1_3)"/>
<path fill-rule="evenodd" clip-rule="evenodd" d="M438.18 87.0647L489.003 100.931L475.82 151.935L424.997 138.069L438.18 87.0647ZM435.732 100.53L438.894 88.2962L451.084 91.6219L447.862 103.752L435.732 100.53ZM435.482 101.498L426.212 137.364L462.633 147.301L465.802 135.373L453.983 132.234L457.251 119.932L469.552 123.2L466.413 135.018L478.341 138.186L487.788 101.636L452.049 91.8852L448.701 104.492L460.519 107.631L457.251 119.932L444.95 116.665L448.089 104.847L435.482 101.498ZM478.091 139.155L466.64 136.113L463.598 147.564L475.106 150.704L478.091 139.155ZM446.173 115.955L456.541 118.709L459.295 108.341L448.927 105.587L446.173 115.955ZM465.575 134.278L455.207 131.524L457.961 121.156L468.329 123.91L465.575 134.278Z" fill="url(#paint15_radial_1_3)"/>
<path fill-rule="evenodd" clip-rule="evenodd" d="M942.639 44.5308L962.639 30H987.361L1007.36 44.5309L1015 68.0423L1007.36 91.5537L987.361 106.085H962.639L942.639 91.5537L935 68.0423L942.639 44.5308ZM975 34.0162L965.717 31L984.283 31L975 34.0162ZM973.382 34.542L963.021 31.1756L956.618 39.9889L973.382 34.542ZM957.073 40.8925L973.914 35.4207L967.421 44.387L957.073 40.8925ZM955.307 41.7937L944.503 56.6633L955.262 53.2164L955.307 41.7937ZM955.258 54.2678L944.313 57.7745L951.019 67.0364L955.23 61.2213L955.258 54.2678ZM956.236 59.8328L956.259 53.947L961.779 52.1785L956.236 59.8328ZM955.224 62.9356L951.637 67.8889L955.185 72.7887L955.224 62.9356ZM956.18 74.1622L956.229 61.5471L963.386 51.6635L974.909 47.9716L987.121 52.0955L994.262 61.9567L994.36 74.4166L982.666 90.131L963.235 83.9057L956.18 74.1622ZM955.178 74.4845L951.019 68.7414L944.407 77.8733L955.151 81.3157L955.178 74.4845ZM956.15 81.6357L956.173 75.858L961.628 83.3906L956.15 81.6357ZM955.147 82.3645L944.061 78.8126L955.101 94.0083L955.147 82.3645ZM956.098 94.8752L956.146 82.6845L962.618 84.7579L974.204 100.758L956.098 94.8752ZM988.755 52.6475L994.248 60.2329L994.203 54.4872L988.755 52.6475ZM994.194 53.4289L987.743 51.2503L983.399 45.2515L994.102 41.8223L994.194 53.4289ZM995.205 54.8258L995.259 61.6292L999.509 67.498L1006.18 58.5324L995.205 54.8258ZM1006.06 57.4353L995.197 53.7675L995.107 42.3629L1006.06 57.4353ZM986.109 50.6984L976.513 47.4577L982.397 45.5725L986.109 50.6984ZM974.918 46.9189L981.78 44.7202L975.097 35.4914L968.413 44.7221L974.918 46.9189ZM966.807 45.2351L962.769 50.8112L956.263 52.8956L956.307 41.6893L966.807 45.2351ZM967.799 45.5702L973.314 47.4327L964.376 50.2962L967.799 45.5702ZM983.672 90.4535L994.373 76.074L994.514 93.9272L983.672 90.4535ZM995.363 74.7443L995.508 93.1687L1006.24 78.3968L1006.19 78.4321L999.498 69.1878L995.363 74.7443ZM995.273 63.353L995.35 73.0869L998.883 68.3388L995.273 63.353ZM976.34 35.5032L993.324 41.0216L982.782 44.3991L976.34 35.5032ZM943.639 58.5497V77.2281L950.402 67.8889L943.639 58.5497ZM976.07 100.669L994.048 94.8278L983.041 91.3014L976.07 100.669ZM982.035 90.9789L975.103 100.294L964.225 85.2729L982.035 90.9789ZM1000.12 68.3469L1006.36 76.96V59.9659L1000.12 68.3469ZM955 40.5146L960.737 32.618L945.717 43.5308L955 40.5146ZM945.717 92.5537L960.737 103.466L955 95.5699L945.717 92.5537ZM954 94.1935L943.639 79.9332V90.8271L954 94.1935ZM942.639 78.5568V88.3175L936.902 70.6603L942.639 78.5568ZM942.639 59.229L936.236 68.0423L942.639 76.8555V59.229ZM942.639 57.5277L936.902 65.4242L942.639 47.767V57.5277ZM943.639 56.1513V45.2574L954 41.891L943.639 56.1513ZM956.618 96.0956L963.021 104.909L973.382 101.543L956.618 96.0956ZM975 102.068L965.717 105.085H984.283L975 102.068ZM989.263 103.467L1004.28 92.5537L995 95.5699L989.263 103.467ZM993.382 96.0956L976.618 101.543L986.979 104.909L993.382 96.0956ZM996 94.1935L1006.36 90.8271V79.9332L996 94.1935ZM1007.36 78.5568V88.3176L1013.1 70.6602L1007.36 78.5568ZM1013.1 65.4243L1007.36 47.7669V57.5277L1013.1 65.4243ZM1007.36 76.8555L1013.76 68.0423L1007.36 59.229V76.8555ZM1006.36 56.1513V45.2574L996 41.891L1006.36 56.1513ZM995 40.5146L1004.28 43.5309L989.263 32.618L995 40.5146ZM993.382 39.9889L976.618 34.542L986.979 31.1756L993.382 39.9889Z" fill="url(#paint16_radial_1_3)"/>
<g opacity="0.5">
<path d="M105.198 415.737C111.752 424.618 110.521 438.03 103.091 452.604C95.6693 467.164 82.0955 482.807 64.1221 496.069C46.1486 509.332 27.1984 517.689 11.0979 520.487C-5.0191 523.288 -18.1978 520.51 -24.7517 511.628C-31.3056 502.746 -30.0738 489.335 -22.6443 474.76C-15.2225 460.201 -1.64878 444.558 16.3247 431.295C34.2982 418.033 53.2484 409.676 69.3489 406.878C85.4658 404.077 98.6445 406.855 105.198 415.737Z" stroke="url(#paint17_linear_1_3)" stroke-width="0.5"/>
<path d="M107.87 419.357C114.424 428.239 113.192 441.651 105.763 456.225C98.3411 470.784 84.7674 486.427 66.7939 499.69C48.8205 512.953 29.8703 521.31 13.7698 524.108C-2.34722 526.909 -15.5259 524.131 -22.0798 515.249C-28.6338 506.367 -27.4019 492.955 -19.9725 478.381C-12.5507 463.822 1.0231 448.179 18.9966 434.916C36.97 421.653 55.9202 413.297 72.0207 410.498C88.1377 407.697 101.316 410.476 107.87 419.357Z" stroke="url(#paint18_linear_1_3)" stroke-width="0.5"/>
<path d="M110.542 422.978C117.096 431.86 115.864 445.272 108.435 459.846C101.013 474.405 87.4393 490.048 69.4658 503.311C51.4923 516.574 32.5421 524.931 16.4416 527.729C0.324652 530.53 -12.854 527.752 -19.408 518.87C-25.9619 509.988 -24.73 496.576 -17.3006 482.002C-9.87878 467.443 3.69497 451.8 21.6684 438.537C39.6419 425.274 58.5921 416.917 74.6926 414.119C90.8096 411.318 103.988 414.097 110.542 422.978Z" stroke="url(#paint19_linear_1_3)" stroke-width="0.5"/>
<path d="M113.214 426.599C119.768 435.481 118.536 448.893 111.107 463.467C103.685 478.026 90.1111 493.669 72.1377 506.932C54.1642 520.195 35.214 528.552 19.1135 531.35C2.99653 534.151 -10.1822 531.373 -16.7361 522.491C-23.29 513.609 -22.0581 500.197 -14.6287 485.623C-7.2069 471.064 6.36685 455.421 24.3403 442.158C42.3138 428.895 61.264 420.539 77.3645 417.74C93.4815 414.939 106.66 417.718 113.214 426.599Z" stroke="url(#paint20_linear_1_3)" stroke-width="0.5"/>
<path d="M115.886 430.22C122.44 439.102 121.208 452.514 113.779 467.088C106.357 481.647 92.783 497.29 74.8096 510.553C56.8361 523.816 37.8859 532.173 21.7854 534.971C5.6684 537.772 -7.5103 534.994 -14.0642 526.112C-20.6181 517.23 -19.3863 503.818 -11.9568 489.244C-4.53503 474.685 9.03872 459.042 27.0122 445.779C44.9857 432.516 63.9359 424.159 80.0364 421.361C96.1533 418.56 109.332 421.338 115.886 430.22Z" stroke="url(#paint21_linear_1_3)" stroke-width="0.5"/>
<path d="M118.558 433.841C125.112 442.723 123.88 456.135 116.451 470.709C109.029 485.268 95.4551 500.911 77.4817 514.174C59.5082 527.437 40.558 535.793 24.4575 538.592C8.34052 541.393 -4.83818 538.614 -11.3921 529.733C-17.946 520.851 -16.7141 507.439 -9.28473 492.865C-1.86291 478.306 11.7108 462.663 29.6843 449.4C47.6578 436.137 66.608 427.78 82.7085 424.982C98.8255 422.181 112.004 424.959 118.558 433.841Z" stroke="url(#paint22_linear_1_3)" stroke-width="0.5"/>
<path d="M121.23 437.462C127.784 446.344 126.552 459.756 119.123 474.33C111.701 488.889 98.127 504.532 80.1536 517.795C62.1801 531.057 43.2299 539.414 27.1294 542.212C11.0124 545.013 -2.16631 542.235 -8.72022 533.354C-15.2741 524.472 -14.0423 511.06 -6.61286 496.486C0.808964 481.926 14.3827 466.284 32.3562 453.021C50.3296 439.758 69.2798 431.401 85.3804 428.603C101.497 425.802 114.676 428.58 121.23 437.462Z" stroke="url(#paint23_linear_1_3)" stroke-width="0.5"/>
<path d="M123.902 441.083C130.456 449.965 129.224 463.377 121.794 477.951C114.373 492.51 100.799 508.153 82.8254 521.416C64.852 534.679 45.9018 543.035 29.8013 545.834C13.6843 548.635 0.505569 545.856 -6.04835 536.975C-12.6023 528.093 -11.3704 514.681 -3.94098 500.107C3.48084 485.548 17.0546 469.905 35.0281 456.642C53.0015 443.379 71.9517 435.022 88.0522 432.224C104.169 429.423 117.348 432.201 123.902 441.083Z" stroke="url(#paint24_linear_1_3)" stroke-width="0.5"/>
<path d="M126.574 444.704C133.128 453.586 131.896 466.997 124.466 481.572C117.045 496.131 103.471 511.774 85.4973 525.037C67.5238 538.299 48.5736 546.656 32.4731 549.454C16.3561 552.255 3.17744 549.477 -3.37647 540.595C-9.93039 531.714 -8.69852 518.302 -1.26911 503.728C6.15271 489.168 19.7265 473.525 37.6999 460.263C55.6734 447 74.6236 438.643 90.7241 435.845C106.841 433.044 120.02 435.822 126.574 444.704Z" stroke="url(#paint25_linear_1_3)" stroke-width="0.5"/>
<path d="M129.246 448.325C135.799 457.206 134.568 470.618 127.138 485.192C119.716 499.752 106.143 515.395 88.1692 528.657C70.1957 541.92 51.2455 550.277 35.145 553.075C19.028 555.876 5.84932 553.098 -0.704596 544.216C-7.25851 535.335 -6.02664 521.923 1.40277 507.349C8.82459 492.789 22.3983 477.146 40.3718 463.884C58.3453 450.621 77.2955 442.264 93.396 439.466C109.513 436.665 122.692 439.443 129.246 448.325Z" stroke="url(#paint26_linear_1_3)" stroke-width="0.5"/>
<path d="M131.917 451.946C138.471 460.827 137.239 474.239 129.81 488.813C122.388 503.373 108.815 519.015 90.8411 532.278C72.8676 545.541 53.9174 553.898 37.8169 556.696C21.6999 559.497 8.52119 556.719 1.96728 547.837C-4.58664 538.955 -3.35477 525.544 4.07464 510.969C11.4965 496.41 25.0702 480.767 43.0437 467.504C61.0171 454.242 79.9673 445.885 96.0679 443.087C112.185 440.286 125.364 443.064 131.917 451.946Z" stroke="url(#paint27_linear_1_3)" stroke-width="0.5"/>
<path d="M134.589 455.566C141.143 464.448 139.911 477.86 132.482 492.434C125.06 506.993 111.486 522.636 93.5129 535.899C75.5395 549.162 56.5893 557.519 40.4888 560.317C24.3718 563.118 11.1931 560.34 4.63915 551.458C-1.91476 542.576 -0.682894 529.164 6.74652 514.59C14.1683 500.031 27.7421 484.388 45.7156 471.125C63.689 457.862 82.6392 449.506 98.7397 446.707C114.857 443.906 128.035 446.685 134.589 455.566Z" stroke="url(#paint28_linear_1_3)" stroke-width="0.5"/>
<path d="M137.261 459.187C143.815 468.069 142.583 481.481 135.154 496.055C127.732 510.615 114.158 526.257 96.1848 539.52C78.2113 552.783 59.2611 561.14 43.1606 563.938C27.0436 566.739 13.8649 563.961 7.31103 555.079C0.757114 546.197 1.98898 532.785 9.41839 518.211C16.8402 503.652 30.414 488.009 48.3874 474.746C66.3609 461.484 85.3111 453.127 101.412 450.329C117.529 447.528 130.707 450.306 137.261 459.187Z" stroke="url(#paint29_linear_1_3)" stroke-width="0.5"/>
<path d="M139.933 462.808C146.487 471.69 145.255 485.102 137.826 499.676C130.404 514.235 116.83 529.878 98.8567 543.141C80.8832 556.404 61.933 564.761 45.8325 567.559C29.7155 570.36 16.5368 567.582 9.9829 558.7C3.42899 549.818 4.66086 536.406 12.0903 521.832C19.5121 507.273 33.0858 491.63 51.0593 478.367C69.0328 465.104 87.983 456.747 104.083 453.949C120.2 451.148 133.379 453.927 139.933 462.808Z" stroke="url(#paint30_linear_1_3)" stroke-width="0.5"/>
<path d="M142.605 466.429C149.159 475.311 147.927 488.723 140.498 503.297C133.076 517.856 119.502 533.499 101.529 546.762C83.5553 560.025 64.6051 568.382 48.5046 571.18C32.3876 573.981 19.2089 571.203 12.655 562.321C6.10111 553.439 7.33298 540.027 14.7624 525.453C22.1842 510.894 35.758 495.251 53.7314 481.988C71.7049 468.725 90.6551 460.368 106.756 457.57C122.873 454.769 136.051 457.547 142.605 466.429Z" stroke="url(#paint31_linear_1_3)" stroke-width="0.5"/>
</g>
<path d="M1187.74 456.474V443H1190.26V456.474H1187.74Z" fill="url(#paint32_linear_1_3)"/>
<path d="M1185.95 473.737L1177.39 465.175L1179.17 463.389L1187.74 471.95V459.842H1190.26V471.95L1198.83 463.389L1200.61 465.175L1192.05 473.737H1204.16V476.263H1192.05L1200.61 484.825L1198.83 486.611L1190.26 478.049V490.158H1187.74V478.049L1179.17 486.611L1177.39 484.825L1185.95 476.263H1173.84V473.737H1185.95Z" fill="url(#paint33_linear_1_3)"/>
<path d="M1157 473.737H1170.47V476.263H1157V473.737Z" fill="url(#paint34_linear_1_3)"/>
<path d="M1207.53 473.737H1221V476.263H1207.53V473.737Z" fill="url(#paint35_linear_1_3)"/>
<path d="M1187.74 493.526V507H1190.26V493.526H1187.74Z" fill="url(#paint36_linear_1_3)"/>
<path d="M1175.01 487.207L1165.48 496.734L1167.27 498.521L1176.79 488.993L1175.01 487.207Z" fill="url(#paint37_linear_1_3)"/>
<path d="M1201.21 461.007L1210.73 451.479L1212.52 453.266L1202.99 462.793L1201.21 461.007Z" fill="url(#paint38_linear_1_3)"/>
<path d="M1202.99 487.207L1212.52 496.734L1210.73 498.521L1201.21 488.993L1202.99 487.207Z" fill="url(#paint39_linear_1_3)"/>
<path d="M1176.79 461.007L1167.27 451.479L1165.48 453.266L1175.01 462.793L1176.79 461.007Z" fill="url(#paint40_linear_1_3)"/>
<defs>
<linearGradient id="paint0_linear_1_3" x1="-39.1875" y1="-1.33128e-06" x2="140.812" y2="184.219" gradientUnits="userSpaceOnUse">
<stop stop-color="#098131"/>
<stop offset="1" stop-color="#037529" stop-opacity="0"/>
</linearGradient>
<linearGradient id="paint1_linear_1_3" x1="-39.1875" y1="-1.33128e-06" x2="140.812" y2="184.219" gradientUnits="userSpaceOnUse">
<stop stop-color="#098131"/>
<stop offset="1" stop-color="#037529" stop-opacity="0"/>
</linearGradient>
<linearGradient id="paint2_linear_1_3" x1="-39.1875" y1="-1.33128e-06" x2="140.812" y2="184.219" gradientUnits="userSpaceOnUse">
<stop stop-color="#098131"/>
<stop offset="1" stop-color="#037529" stop-opacity="0"/>
</linearGradient>
<linearGradient id="paint3_linear_1_3" x1="-39.1875" y1="-1.33128e-06" x2="140.812" y2="184.219" gradientUnits="userSpaceOnUse">
<stop stop-color="#098131"/>
<stop offset="1" stop-color="#037529" stop-opacity="0"/>
</linearGradient>
<linearGradient id="paint4_linear_1_3" x1="-39.1875" y1="-1.33128e-06" x2="140.812" y2="184.219" gradientUnits="userSpaceOnUse">
<stop stop-color="#098131"/>
<stop offset="1" stop-color="#037529" stop-opacity="0"/>
</linearGradient>
<linearGradient id="paint5_linear_1_3" x1="-39.1875" y1="-1.33128e-06" x2="140.812" y2="184.219" gradientUnits="userSpaceOnUse">
<stop stop-color="#098131"/>
<stop offset="1" stop-color="#037529" stop-opacity="0"/>
</linearGradient>
<linearGradient id="paint6_linear_1_3" x1="-39.1875" y1="-1.33128e-06" x2="140.812" y2="184.219" gradientUnits="userSpaceOnUse">
<stop stop-color="#098131"/>
<stop offset="1" stop-color="#037529" stop-opacity="0"/>
</linearGradient>
<linearGradient id="paint7_linear_1_3" x1="812" y1="493" x2="812" y2="579" gradientUnits="userSpaceOnUse">
<stop stop-color="#00CD44"/>
<stop offset="1" stop-color="#00CD44" stop-opacity="0"/>
</linearGradient>
<linearGradient id="paint8_linear_1_3" x1="769" y1="536" x2="855" y2="536" gradientUnits="userSpaceOnUse">
<stop stop-color="#00CD44"/>
<stop offset="1" stop-color="#00CD44" stop-opacity="0"/>
</linearGradient>
<linearGradient id="paint9_linear_1_3" x1="782.046" y1="506.046" x2="841.954" y2="565.954" gradientUnits="userSpaceOnUse">
<stop stop-color="#00CD44"/>
<stop offset="1" stop-color="#00CD44" stop-opacity="0"/>
</linearGradient>
<linearGradient id="paint10_linear_1_3" x1="841.954" y1="506.046" x2="782.046" y2="565.954" gradientUnits="userSpaceOnUse">
<stop stop-color="#00CD44"/>
<stop offset="1" stop-color="#00CD44" stop-opacity="0"/>
</linearGradient>
<radialGradient id="paint11_radial_1_3" cx="0" cy="0" r="1" gradientUnits="userSpaceOnUse" gradientTransform="translate(459 464) rotate(90) scale(31.7042 31.7042)">
<stop stop-color="#00CD44"/>
<stop offset="1" stop-color="#00CD44" stop-opacity="0.15"/>
</radialGradient>
<linearGradient id="paint12_linear_1_3" x1="1292" y1="69.1845" x2="1338.85" y2="152.806" gradientUnits="userSpaceOnUse">
<stop stop-color="#00CD44"/>
<stop offset="1" stop-color="#043213"/>
</linearGradient>
<radialGradient id="paint13_radial_1_3" cx="0" cy="0" r="1" gradientUnits="userSpaceOnUse" gradientTransform="translate(457.251 119.932) rotate(59.8759) scale(42 41.44)">
<stop stop-color="#00CD44"/>
<stop offset="1" stop-color="#00CD44" stop-opacity="0"/>
</radialGradient>
<radialGradient id="paint14_radial_1_3" cx="0" cy="0" r="1" gradientUnits="userSpaceOnUse" gradientTransform="translate(457.251 119.932) rotate(59.8759) scale(42 41.44)">
<stop stop-color="#00CD44"/>
<stop offset="1" stop-color="#00CD44" stop-opacity="0"/>
</radialGradient>
<radialGradient id="paint15_radial_1_3" cx="0" cy="0" r="1" gradientUnits="userSpaceOnUse" gradientTransform="translate(457.251 119.932) rotate(59.8759) scale(42 41.44)">
<stop stop-color="#00CD44"/>
<stop offset="1" stop-color="#00CD44" stop-opacity="0"/>
</radialGradient>
<radialGradient id="paint16_radial_1_3" cx="0" cy="0" r="1" gradientUnits="userSpaceOnUse" gradientTransform="translate(976.097 67.6389) rotate(57.1886) scale(45.2134 47.5402)">
<stop stop-color="#00CD44"/>
<stop offset="1" stop-color="#00CD44" stop-opacity="0"/>
</radialGradient>
<linearGradient id="paint17_linear_1_3" x1="16.1762" y1="431.094" x2="64.2705" y2="496.27" gradientUnits="userSpaceOnUse">
<stop stop-color="#00CD44"/>
<stop offset="1" stop-color="#00CD44" stop-opacity="0.54"/>
</linearGradient>
<linearGradient id="paint18_linear_1_3" x1="18.8481" y1="434.715" x2="66.9424" y2="499.891" gradientUnits="userSpaceOnUse">
<stop stop-color="#00CD44"/>
<stop offset="1" stop-color="#00CD44" stop-opacity="0.54"/>
</linearGradient>
<linearGradient id="paint19_linear_1_3" x1="21.52" y1="438.336" x2="69.6142" y2="503.512" gradientUnits="userSpaceOnUse">
<stop stop-color="#00CD44"/>
<stop offset="1" stop-color="#00CD44" stop-opacity="0.54"/>
</linearGradient>
<linearGradient id="paint20_linear_1_3" x1="24.1919" y1="441.957" x2="72.2861" y2="507.133" gradientUnits="userSpaceOnUse">
<stop stop-color="#00CD44"/>
<stop offset="1" stop-color="#00CD44" stop-opacity="0.54"/>
</linearGradient>
<linearGradient id="paint21_linear_1_3" x1="26.8637" y1="445.578" x2="74.958" y2="510.754" gradientUnits="userSpaceOnUse">
<stop stop-color="#00CD44"/>
<stop offset="1" stop-color="#00CD44" stop-opacity="0.54"/>
</linearGradient>
<linearGradient id="paint22_linear_1_3" x1="29.5359" y1="449.199" x2="77.6301" y2="514.375" gradientUnits="userSpaceOnUse">
<stop stop-color="#00CD44"/>
<stop offset="1" stop-color="#00CD44" stop-opacity="0.54"/>
</linearGradient>
<linearGradient id="paint23_linear_1_3" x1="32.2077" y1="452.82" x2="80.302" y2="517.996" gradientUnits="userSpaceOnUse">
<stop stop-color="#00CD44"/>
<stop offset="1" stop-color="#00CD44" stop-opacity="0.54"/>
</linearGradient>
<linearGradient id="paint24_linear_1_3" x1="34.8796" y1="456.441" x2="82.9739" y2="521.617" gradientUnits="userSpaceOnUse">
<stop stop-color="#00CD44"/>
<stop offset="1" stop-color="#00CD44" stop-opacity="0.54"/>
</linearGradient>
<linearGradient id="paint25_linear_1_3" x1="37.5515" y1="460.062" x2="85.6457" y2="525.238" gradientUnits="userSpaceOnUse">
<stop stop-color="#00CD44"/>
<stop offset="1" stop-color="#00CD44" stop-opacity="0.54"/>
</linearGradient>
<linearGradient id="paint26_linear_1_3" x1="40.2234" y1="463.682" x2="88.3176" y2="528.859" gradientUnits="userSpaceOnUse">
<stop stop-color="#00CD44"/>
<stop offset="1" stop-color="#00CD44" stop-opacity="0.54"/>
</linearGradient>
<linearGradient id="paint27_linear_1_3" x1="42.8952" y1="467.303" x2="90.9895" y2="532.479" gradientUnits="userSpaceOnUse">
<stop stop-color="#00CD44"/>
<stop offset="1" stop-color="#00CD44" stop-opacity="0.54"/>
</linearGradient>
<linearGradient id="paint28_linear_1_3" x1="45.5671" y1="470.924" x2="93.6614" y2="536.1" gradientUnits="userSpaceOnUse">
<stop stop-color="#00CD44"/>
<stop offset="1" stop-color="#00CD44" stop-opacity="0.54"/>
</linearGradient>
<linearGradient id="paint29_linear_1_3" x1="48.239" y1="474.545" x2="96.3332" y2="539.721" gradientUnits="userSpaceOnUse">
<stop stop-color="#00CD44"/>
<stop offset="1" stop-color="#00CD44" stop-opacity="0.54"/>
</linearGradient>
<linearGradient id="paint30_linear_1_3" x1="50.9109" y1="478.166" x2="99.0051" y2="543.342" gradientUnits="userSpaceOnUse">
<stop stop-color="#00CD44"/>
<stop offset="1" stop-color="#00CD44" stop-opacity="0.54"/>
</linearGradient>
<linearGradient id="paint31_linear_1_3" x1="53.583" y1="481.787" x2="101.677" y2="546.963" gradientUnits="userSpaceOnUse">
<stop stop-color="#00CD44"/>
<stop offset="1" stop-color="#00CD44" stop-opacity="0.54"/>
</linearGradient>
<linearGradient id="paint32_linear_1_3" x1="1168.37" y1="448.895" x2="1202.47" y2="507.421" gradientUnits="userSpaceOnUse">
<stop stop-color="#1ED760"/>
<stop offset="1" stop-color="#1ED760" stop-opacity="0.06"/>
</linearGradient>
<linearGradient id="paint33_linear_1_3" x1="1168.37" y1="448.895" x2="1202.47" y2="507.421" gradientUnits="userSpaceOnUse">
<stop stop-color="#1ED760"/>
<stop offset="1" stop-color="#1ED760" stop-opacity="0.06"/>
</linearGradient>
<linearGradient id="paint34_linear_1_3" x1="1168.37" y1="448.895" x2="1202.47" y2="507.421" gradientUnits="userSpaceOnUse">
<stop stop-color="#1ED760"/>
<stop offset="1" stop-color="#1ED760" stop-opacity="0.06"/>
</linearGradient>
<linearGradient id="paint35_linear_1_3" x1="1168.37" y1="448.895" x2="1202.47" y2="507.421" gradientUnits="userSpaceOnUse">
<stop stop-color="#1ED760"/>
<stop offset="1" stop-color="#1ED760" stop-opacity="0.06"/>
</linearGradient>
<linearGradient id="paint36_linear_1_3" x1="1168.37" y1="448.895" x2="1202.47" y2="507.421" gradientUnits="userSpaceOnUse">
<stop stop-color="#1ED760"/>
<stop offset="1" stop-color="#1ED760" stop-opacity="0.06"/>
</linearGradient>
<linearGradient id="paint37_linear_1_3" x1="1168.37" y1="448.895" x2="1202.47" y2="507.421" gradientUnits="userSpaceOnUse">
<stop stop-color="#1ED760"/>
<stop offset="1" stop-color="#1ED760" stop-opacity="0.06"/>
</linearGradient>
<linearGradient id="paint38_linear_1_3" x1="1168.37" y1="448.895" x2="1202.47" y2="507.421" gradientUnits="userSpaceOnUse">
<stop stop-color="#1ED760"/>
<stop offset="1" stop-color="#1ED760" stop-opacity="0.06"/>
</linearGradient>
<linearGradient id="paint39_linear_1_3" x1="1168.37" y1="448.895" x2="1202.47" y2="507.421" gradientUnits="userSpaceOnUse">
<stop stop-color="#1ED760"/>
<stop offset="1" stop-color="#1ED760" stop-opacity="0.06"/>
</linearGradient>
<linearGradient id="paint40_linear_1_3" x1="1168.37" y1="448.895" x2="1202.47" y2="507.421" gradientUnits="userSpaceOnUse">
<stop stop-color="#1ED760"/>
<stop offset="1" stop-color="#1ED760" stop-opacity="0.06"/>
</linearGradient>
</defs>
</svg>
