<svg width="205" height="60" viewBox="0 0 205 60" fill="none" xmlns="http://www.w3.org/2000/svg">
<rect x="1" y="1" width="203" height="58" rx="29" stroke="url(#paint0_linear_186_5692)" stroke-width="2"/>
<path d="M39.6148 36.144C38.6548 36.144 37.7668 35.988 36.9508 35.676C36.1468 35.352 35.4448 34.902 34.8448 34.326C34.2568 33.738 33.7948 33.054 33.4588 32.274C33.1228 31.494 32.9548 30.636 32.9548 29.7C32.9548 28.764 33.1228 27.906 33.4588 27.126C33.7948 26.346 34.2628 25.668 34.8628 25.092C35.4628 24.504 36.1648 24.054 36.9688 23.742C37.7848 23.418 38.6728 23.256 39.6328 23.256C40.6048 23.256 41.4988 23.424 42.3148 23.76C43.1428 24.084 43.8448 24.57 44.4208 25.218L43.2508 26.352C42.7708 25.848 42.2308 25.476 41.6308 25.236C41.0308 24.984 40.3888 24.858 39.7048 24.858C38.9968 24.858 38.3368 24.978 37.7248 25.218C37.1248 25.458 36.6028 25.794 36.1588 26.226C35.7148 26.658 35.3668 27.174 35.1148 27.774C34.8748 28.362 34.7548 29.004 34.7548 29.7C34.7548 30.396 34.8748 31.044 35.1148 31.644C35.3668 32.232 35.7148 32.742 36.1588 33.174C36.6028 33.606 37.1248 33.942 37.7248 34.182C38.3368 34.422 38.9968 34.542 39.7048 34.542C40.3888 34.542 41.0308 34.422 41.6308 34.182C42.2308 33.93 42.7708 33.546 43.2508 33.03L44.4208 34.164C43.8448 34.812 43.1428 35.304 42.3148 35.64C41.4988 35.976 40.5988 36.144 39.6148 36.144ZM50.4183 36.108C49.4583 36.108 48.6063 35.898 47.8623 35.478C47.1183 35.058 46.5303 34.482 46.0983 33.75C45.6663 33.006 45.4503 32.166 45.4503 31.23C45.4503 30.282 45.6663 29.442 46.0983 28.71C46.5303 27.978 47.1183 27.408 47.8623 27C48.6063 26.58 49.4583 26.37 50.4183 26.37C51.3663 26.37 52.2123 26.58 52.9563 27C53.7123 27.408 54.3003 27.978 54.7203 28.71C55.1523 29.43 55.3683 30.27 55.3683 31.23C55.3683 32.178 55.1523 33.018 54.7203 33.75C54.3003 34.482 53.7123 35.058 52.9563 35.478C52.2123 35.898 51.3663 36.108 50.4183 36.108ZM50.4183 34.596C51.0303 34.596 51.5763 34.458 52.0563 34.182C52.5483 33.906 52.9323 33.516 53.2083 33.012C53.4843 32.496 53.6223 31.902 53.6223 31.23C53.6223 30.546 53.4843 29.958 53.2083 29.466C52.9323 28.962 52.5483 28.572 52.0563 28.296C51.5763 28.02 51.0303 27.882 50.4183 27.882C49.8063 27.882 49.2603 28.02 48.7803 28.296C48.3003 28.572 47.9163 28.962 47.6283 29.466C47.3403 29.958 47.1963 30.546 47.1963 31.23C47.1963 31.902 47.3403 32.496 47.6283 33.012C47.9163 33.516 48.3003 33.906 48.7803 34.182C49.2603 34.458 49.8063 34.596 50.4183 34.596ZM62.8521 26.37C63.6321 26.37 64.3161 26.52 64.9041 26.82C65.5041 27.12 65.9721 27.576 66.3081 28.188C66.6441 28.8 66.8121 29.574 66.8121 30.51V36H65.0841V30.708C65.0841 29.784 64.8561 29.088 64.4001 28.62C63.9561 28.152 63.3261 27.918 62.5101 27.918C61.8981 27.918 61.3641 28.038 60.9081 28.278C60.4521 28.518 60.0981 28.872 59.8461 29.34C59.6061 29.808 59.4861 30.39 59.4861 31.086V36H57.7581V26.46H59.4141V29.034L59.1441 28.35C59.4561 27.726 59.9361 27.24 60.5841 26.892C61.2321 26.544 61.9881 26.37 62.8521 26.37ZM75.1041 26.37C75.8841 26.37 76.5681 26.52 77.1561 26.82C77.7561 27.12 78.2241 27.576 78.5601 28.188C78.8961 28.8 79.0641 29.574 79.0641 30.51V36H77.3361V30.708C77.3361 29.784 77.1081 29.088 76.6521 28.62C76.2081 28.152 75.5781 27.918 74.7621 27.918C74.1501 27.918 73.6161 28.038 73.1601 28.278C72.7041 28.518 72.3501 28.872 72.0981 29.34C71.8581 29.808 71.7381 30.39 71.7381 31.086V36H70.0101V26.46H71.6661V29.034L71.3961 28.35C71.7081 27.726 72.1881 27.24 72.8361 26.892C73.4841 26.544 74.2401 26.37 75.1041 26.37ZM86.51 36.108C85.49 36.108 84.59 35.898 83.81 35.478C83.042 35.058 82.442 34.482 82.01 33.75C81.59 33.018 81.38 32.178 81.38 31.23C81.38 30.282 81.584 29.442 81.992 28.71C82.412 27.978 82.982 27.408 83.702 27C84.434 26.58 85.256 26.37 86.168 26.37C87.092 26.37 87.908 26.574 88.616 26.982C89.324 27.39 89.876 27.966 90.272 28.71C90.68 29.442 90.884 30.3 90.884 31.284C90.884 31.356 90.878 31.44 90.866 31.536C90.866 31.632 90.86 31.722 90.848 31.806H82.73V30.564H89.948L89.246 30.996C89.258 30.384 89.132 29.838 88.868 29.358C88.604 28.878 88.238 28.506 87.77 28.242C87.314 27.966 86.78 27.828 86.168 27.828C85.568 27.828 85.034 27.966 84.566 28.242C84.098 28.506 83.732 28.884 83.468 29.376C83.204 29.856 83.072 30.408 83.072 31.032V31.32C83.072 31.956 83.216 32.526 83.504 33.03C83.804 33.522 84.218 33.906 84.746 34.182C85.274 34.458 85.88 34.596 86.564 34.596C87.128 34.596 87.638 34.5 88.094 34.308C88.562 34.116 88.97 33.828 89.318 33.444L90.272 34.56C89.84 35.064 89.3 35.448 88.652 35.712C88.016 35.976 87.302 36.108 86.51 36.108ZM97.4415 36.108C96.4695 36.108 95.5995 35.898 94.8315 35.478C94.0755 35.058 93.4815 34.482 93.0495 33.75C92.6175 33.018 92.4015 32.178 92.4015 31.23C92.4015 30.282 92.6175 29.442 93.0495 28.71C93.4815 27.978 94.0755 27.408 94.8315 27C95.5995 26.58 96.4695 26.37 97.4415 26.37C98.3055 26.37 99.0735 26.544 99.7455 26.892C100.43 27.228 100.958 27.732 101.33 28.404L100.016 29.25C99.7035 28.782 99.3195 28.44 98.8635 28.224C98.4195 27.996 97.9395 27.882 97.4235 27.882C96.7995 27.882 96.2415 28.02 95.7495 28.296C95.2575 28.572 94.8675 28.962 94.5795 29.466C94.2915 29.958 94.1475 30.546 94.1475 31.23C94.1475 31.914 94.2915 32.508 94.5795 33.012C94.8675 33.516 95.2575 33.906 95.7495 34.182C96.2415 34.458 96.7995 34.596 97.4235 34.596C97.9395 34.596 98.4195 34.488 98.8635 34.272C99.3195 34.044 99.7035 33.696 100.016 33.228L101.33 34.056C100.958 34.716 100.43 35.226 99.7455 35.586C99.0735 35.934 98.3055 36.108 97.4415 36.108ZM106.966 36.108C106.006 36.108 105.262 35.85 104.734 35.334C104.206 34.818 103.942 34.08 103.942 33.12V24.372H105.67V33.048C105.67 33.564 105.796 33.96 106.048 34.236C106.312 34.512 106.684 34.65 107.164 34.65C107.704 34.65 108.154 34.5 108.514 34.2L109.054 35.442C108.79 35.67 108.472 35.838 108.1 35.946C107.74 36.054 107.362 36.108 106.966 36.108ZM102.322 27.882V26.46H108.406V27.882H102.322ZM119.127 36L114.915 23.4H116.769L120.639 35.028H119.703L123.717 23.4H125.373L129.297 35.028H128.397L132.321 23.4H134.031L129.819 36H127.929L124.257 25.218H124.743L121.053 36H119.127ZM141.182 36V33.984L141.092 33.606V30.168C141.092 29.436 140.876 28.872 140.444 28.476C140.024 28.068 139.388 27.864 138.536 27.864C137.972 27.864 137.42 27.96 136.88 28.152C136.34 28.332 135.884 28.578 135.512 28.89L134.792 27.594C135.284 27.198 135.872 26.898 136.556 26.694C137.252 26.478 137.978 26.37 138.734 26.37C140.042 26.37 141.05 26.688 141.758 27.324C142.466 27.96 142.82 28.932 142.82 30.24V36H141.182ZM138.05 36.108C137.342 36.108 136.718 35.988 136.178 35.748C135.65 35.508 135.242 35.178 134.954 34.758C134.666 34.326 134.522 33.84 134.522 33.3C134.522 32.784 134.642 32.316 134.882 31.896C135.134 31.476 135.536 31.14 136.088 30.888C136.652 30.636 137.408 30.51 138.356 30.51H141.38V31.752H138.428C137.564 31.752 136.982 31.896 136.682 32.184C136.382 32.472 136.232 32.82 136.232 33.228C136.232 33.696 136.418 34.074 136.79 34.362C137.162 34.638 137.678 34.776 138.338 34.776C138.986 34.776 139.55 34.632 140.03 34.344C140.522 34.056 140.876 33.636 141.092 33.084L141.434 34.272C141.206 34.836 140.804 35.286 140.228 35.622C139.652 35.946 138.926 36.108 138.05 36.108ZM146.018 36V22.644H147.746V36H146.018ZM151.045 36V22.644H152.773V36H151.045ZM160.321 36.108C159.301 36.108 158.401 35.898 157.621 35.478C156.853 35.058 156.253 34.482 155.821 33.75C155.401 33.018 155.191 32.178 155.191 31.23C155.191 30.282 155.395 29.442 155.803 28.71C156.223 27.978 156.793 27.408 157.513 27C158.245 26.58 159.067 26.37 159.979 26.37C160.903 26.37 161.719 26.574 162.427 26.982C163.135 27.39 163.687 27.966 164.083 28.71C164.491 29.442 164.695 30.3 164.695 31.284C164.695 31.356 164.689 31.44 164.677 31.536C164.677 31.632 164.671 31.722 164.659 31.806H156.541V30.564H163.759L163.057 30.996C163.069 30.384 162.943 29.838 162.679 29.358C162.415 28.878 162.049 28.506 161.581 28.242C161.125 27.966 160.591 27.828 159.979 27.828C159.379 27.828 158.845 27.966 158.377 28.242C157.909 28.506 157.543 28.884 157.279 29.376C157.015 29.856 156.883 30.408 156.883 31.032V31.32C156.883 31.956 157.027 32.526 157.315 33.03C157.615 33.522 158.029 33.906 158.557 34.182C159.085 34.458 159.691 34.596 160.375 34.596C160.939 34.596 161.449 34.5 161.905 34.308C162.373 34.116 162.781 33.828 163.129 33.444L164.083 34.56C163.651 35.064 163.111 35.448 162.463 35.712C161.827 35.976 161.113 36.108 160.321 36.108ZM170.37 36.108C169.41 36.108 168.666 35.85 168.138 35.334C167.61 34.818 167.346 34.08 167.346 33.12V24.372H169.074V33.048C169.074 33.564 169.2 33.96 169.452 34.236C169.716 34.512 170.088 34.65 170.568 34.65C171.108 34.65 171.558 34.5 171.918 34.2L172.458 35.442C172.194 35.67 171.876 35.838 171.504 35.946C171.144 36.054 170.766 36.108 170.37 36.108ZM165.726 27.882V26.46H171.81V27.882H165.726Z" fill="white"/>
<defs>
<linearGradient id="paint0_linear_186_5692" x1="0" y1="30" x2="205" y2="30" gradientUnits="userSpaceOnUse">
<stop stop-color="#4AFF86"/>
<stop offset="1" stop-color="#006F25"/>
</linearGradient>
</defs>
</svg>
