<svg width="28" height="28" viewBox="0 0 28 28" fill="none" xmlns="http://www.w3.org/2000/svg">
<rect width="28" height="28" rx="4" fill="white"/>
<path d="M16.629 14.751L15.114 16.2712C14.4996 16.8877 13.4185 16.901 12.7909 16.2712L11.2757 14.751L5.83398 20.2104C6.03654 20.304 6.25988 20.3599 6.49731 20.3599H21.4075C21.6449 20.3599 21.8682 20.3041 22.0707 20.2104L16.629 14.751Z" fill="black"/>
<path d="M21.4103 7.64062H6.50011C6.26267 7.64062 6.03934 7.69652 5.83685 7.79019L11.6517 13.6243C11.6521 13.6247 11.6526 13.6248 11.653 13.6252C11.6532 13.6255 11.6534 13.6258 11.6534 13.6261L13.5441 15.5231C13.745 15.7239 14.1655 15.7239 14.3663 15.5231L16.2567 13.6264C16.2567 13.6264 16.2571 13.6256 16.2575 13.6252C16.2575 13.6252 16.2584 13.6247 16.2588 13.6243L22.0735 7.79015C21.871 7.69645 21.6477 7.64062 21.4103 7.64062ZM5.07926 8.53142C4.97446 8.74334 4.91016 8.97859 4.91016 9.23057V18.7703C4.91016 19.0223 4.97439 19.2575 5.07922 19.4694L10.5304 14.0006L5.07926 8.53142ZM22.8312 8.53135L17.3801 14.0006L22.8312 19.4695C22.9359 19.2576 23.0003 19.0223 23.0003 18.7703V9.23057C23.0003 8.97851 22.9359 8.74327 22.8312 8.53135Z" fill="black"/>
</svg>
