<svg width="28" height="28" viewBox="0 0 28 28" fill="none" xmlns="http://www.w3.org/2000/svg">
<rect width="28" height="28" rx="4" fill="white"/>
<path d="M23 23V16.4075C23 13.1675 22.3025 10.6925 18.5225 10.6925C16.7 10.6925 15.485 11.6825 14.99 12.6275H14.945V10.985H11.3675V23H15.1025V17.0375C15.1025 15.4625 15.395 13.955 17.33 13.955C19.2425 13.955 19.265 15.7325 19.265 17.1275V22.9775H23V23ZM5.2925 10.985H9.0275V23H5.2925V10.985ZM7.16 5C5.9675 5 5 5.9675 5 7.16C5 8.3525 5.9675 9.3425 7.16 9.3425C8.3525 9.3425 9.32 8.3525 9.32 7.16C9.32 5.9675 8.3525 5 7.16 5Z" fill="black"/>
</svg>
