<svg width="28" height="28" viewBox="0 0 28 28" fill="none" xmlns="http://www.w3.org/2000/svg">
<path d="M24.974 27.9995H3.02549C1.35459 27.9995 0 26.6449 0 24.974V3.02549C0 1.35459 1.35459 0 3.02549 0H24.9739C26.6449 0 27.9994 1.35459 27.9994 3.02549V24.9739C27.9995 26.6449 26.6449 27.9995 24.974 27.9995Z" fill="#2C2C2C"/>
<path d="M24.974 27.9995H3.02549C1.35459 27.9995 0 26.6449 0 24.974V3.02549C0 1.35459 1.35459 0 3.02549 0H24.9739C26.6449 0 27.9994 1.35459 27.9994 3.02549V24.9739C27.9995 26.6449 26.6449 27.9995 24.974 27.9995Z" fill="white"/>
<path d="M15.3621 14.0005C15.3621 17.3328 12.6792 20.0341 9.36954 20.0341C6.05996 20.0341 3.37695 17.3328 3.37695 14.0005C3.37695 10.6682 6.05991 7.9668 9.36954 7.9668C12.6791 7.9668 15.3621 10.6682 15.3621 14.0005ZM21.9361 14.0005C21.9361 17.1373 20.5947 19.6801 18.9399 19.6801C17.2851 19.6801 15.9436 17.1373 15.9436 14.0005C15.9436 10.8637 17.2851 8.32081 18.9399 8.32081C20.5947 8.32081 21.9361 10.8637 21.9361 14.0005ZM24.6251 14.0005C24.6251 16.8109 24.1533 19.0892 23.5713 19.0892C22.9893 19.0892 22.5175 16.8109 22.5175 14.0005C22.5175 11.19 22.9893 8.91171 23.5713 8.91171C24.1534 8.91171 24.6251 11.19 24.6251 14.0005Z" fill="black"/>
</svg>
