<svg width="28" height="28" viewBox="0 0 28 28" fill="none" xmlns="http://www.w3.org/2000/svg">
<path d="M24.1814 0H3.81811C1.70943 0 0 1.70943 0 3.81811V24.1814C0 26.2901 1.70943 27.9995 3.81811 27.9995H24.1814C26.2901 27.9995 27.9995 26.2901 27.9995 24.1814V3.81811C27.9995 1.70943 26.2901 0 24.1814 0Z" fill="white"/>
<path d="M21.6253 7.23819L21.3357 7.34319L5.62102 13.0051C5.50965 13.0396 5.41286 13.11 5.34582 13.2053C5.27877 13.3007 5.24526 13.4156 5.25054 13.532C5.25582 13.6485 5.29958 13.7599 5.37498 13.8488C5.45037 13.9377 5.55313 13.9991 5.66715 14.0233L9.73503 15.1369L10.4939 17.3641L11.2527 19.5914C11.2963 19.7006 11.3659 19.7974 11.4554 19.8736C11.545 19.9498 11.6518 20.003 11.7665 20.0285C11.8813 20.0541 12.0005 20.0513 12.1139 20.0203C12.2273 19.9893 12.3315 19.9311 12.4173 19.8507L14.5188 17.8653L18.6455 20.6636C19.1499 21.0073 19.8689 20.7527 19.9978 20.1864L22.7309 8.10999C22.8646 7.51182 22.2346 7.02024 21.6253 7.23819ZM19.6192 9.91882L12.5191 15.7224L12.185 15.996C12.1116 16.0542 12.0637 16.1386 12.0514 16.2314L11.9766 16.8487L11.7714 18.5828C11.773 18.6039 11.7663 18.6248 11.7526 18.6409C11.7388 18.657 11.7193 18.667 11.6982 18.6687C11.6771 18.6704 11.6562 18.6636 11.6401 18.6499C11.624 18.6361 11.614 18.6166 11.6123 18.5955L11.0348 16.863L10.4382 15.0892C10.413 15.0094 10.4163 14.9234 10.4477 14.8459C10.479 14.7684 10.5364 14.7042 10.61 14.6644L17.9981 10.4295L19.3885 9.63406C19.5905 9.51633 19.7973 9.77246 19.6192 9.91882Z" fill="black"/>
</svg>
