<svg width="28" height="28" viewBox="0 0 28 28" fill="none" xmlns="http://www.w3.org/2000/svg">
<path d="M24.1814 0H3.81811C1.70943 0 0 1.70943 0 3.81811V24.1814C0 26.2901 1.70943 27.9995 3.81811 27.9995H24.1814C26.2901 27.9995 27.9995 26.2901 27.9995 24.1814V3.81811C27.9995 1.70943 26.2901 0 24.1814 0Z" fill="white"/>
<path d="M22.0912 10.1843C21.7412 9.10726 20.5831 8.455 19.5172 8.30545C15.6833 7.89818 11.8171 7.89818 7.98329 8.30545C6.9174 8.455 5.75606 9.10089 5.40925 10.1843C4.86358 12.9646 4.86358 15.8245 5.40925 18.6048C5.75924 19.6802 6.9174 20.3341 7.98329 20.4836C11.8171 20.8909 15.6833 20.8909 19.5172 20.4836C20.5831 20.3341 21.7444 19.6882 22.0912 18.6048C22.6369 15.8245 22.6369 12.9646 22.0912 10.1843ZM11.6566 17.7473V11.0402L17.1165 14.3938C15.2759 15.5249 13.4893 16.621 11.6566 17.7473Z" fill="black"/>
</svg>
