<svg width="20" height="20" viewBox="0 0 20 20" fill="none" xmlns="http://www.w3.org/2000/svg">
<path d="M18.3337 20L13.9587 15.8333L14.4837 17.5H3.75033C3.19779 17.5 2.66789 17.2805 2.27719 16.8898C1.88649 16.4991 1.66699 15.9692 1.66699 15.4167V2.91666C1.66699 2.36413 1.88649 1.83422 2.27719 1.44352C2.66789 1.05282 3.19779 0.833328 3.75033 0.833328H16.2503C16.8029 0.833328 17.3328 1.05282 17.7235 1.44352C18.1142 1.83422 18.3337 2.36413 18.3337 2.91666V20ZM10.0003 5.66666C7.76699 5.66666 6.20033 6.62499 6.20033 6.62499C7.05866 5.85833 8.55866 5.41666 8.55866 5.41666L8.41699 5.27499C7.00866 5.29999 5.73366 6.27499 5.73366 6.27499C4.30033 9.26666 4.39199 11.85 4.39199 11.85C5.55866 13.3583 7.29199 13.25 7.29199 13.25L7.88366 12.5C6.84199 12.275 6.18366 11.35 6.18366 11.35C6.18366 11.35 7.75033 12.4167 10.0003 12.4167C12.2503 12.4167 13.817 11.35 13.817 11.35C13.817 11.35 13.1587 12.275 12.117 12.5L12.7087 13.25C12.7087 13.25 14.442 13.3583 15.6087 11.85C15.6087 11.85 15.7003 9.26666 14.267 6.27499C14.267 6.27499 12.992 5.29999 11.5837 5.27499L11.442 5.41666C11.442 5.41666 12.942 5.85833 13.8003 6.62499C13.8003 6.62499 12.2337 5.66666 10.0003 5.66666ZM8.27533 8.825C8.81699 8.825 9.25866 9.29999 9.25033 9.88333C9.25033 10.4583 8.81699 10.9417 8.27533 10.9417C7.74199 10.9417 7.30866 10.4583 7.30866 9.88333C7.30866 9.29999 7.73366 8.825 8.27533 8.825ZM11.7503 8.825C12.292 8.825 12.7253 9.29999 12.7253 9.88333C12.7253 10.4583 12.292 10.9417 11.7503 10.9417C11.217 10.9417 10.7837 10.4583 10.7837 9.88333C10.7837 9.29999 11.2087 8.825 11.7503 8.825Z" fill="white"/>
</svg>
