<svg width="20" height="20" viewBox="0 0 20 20" fill="none" xmlns="http://www.w3.org/2000/svg">
<path d="M18.7165 5.00004C18.0749 5.29171 17.3832 5.48337 16.6665 5.57504C17.3999 5.13337 17.9665 4.43337 18.2332 3.59171C17.5415 4.00837 16.7749 4.30004 15.9665 4.46671C15.3082 3.75004 14.3832 3.33337 13.3332 3.33337C11.3749 3.33337 9.77487 4.93337 9.77487 6.90837C9.77487 7.19171 9.8082 7.46671 9.86654 7.72504C6.89987 7.57504 4.2582 6.15004 2.49987 3.99171C2.19154 4.51671 2.01654 5.13337 2.01654 5.78337C2.01654 7.02504 2.64154 8.12504 3.6082 8.75004C3.01654 8.75004 2.46654 8.58337 1.9832 8.33337V8.35837C1.9832 10.0917 3.21654 11.5417 4.84987 11.8667C4.32548 12.0102 3.77495 12.0302 3.24154 11.925C3.46788 12.6354 3.91115 13.257 4.50905 13.7025C5.10695 14.1479 5.82941 14.3948 6.57487 14.4084C5.31123 15.4087 3.74487 15.9495 2.1332 15.9417C1.84987 15.9417 1.56654 15.925 1.2832 15.8917C2.86654 16.9084 4.74987 17.5 6.76654 17.5C13.3332 17.5 16.9415 12.05 16.9415 7.32504C16.9415 7.16671 16.9415 7.01671 16.9332 6.85837C17.6332 6.35837 18.2332 5.72504 18.7165 5.00004Z" fill="white"/>
</svg>
