<svg width="30" height="30" viewBox="0 0 30 30" fill="none" xmlns="http://www.w3.org/2000/svg">
<g clip-path="url(#clip0_741_744)">
<path d="M15 17.6367C13.5461 17.6367 12.3633 18.8195 12.3633 20.2734V22.4242C13.1921 22.7197 14.071 22.9102 15 22.9102C15.929 22.9102 16.8079 22.7197 17.6367 22.4242V20.2734C17.6367 18.8195 16.4539 17.6367 15 17.6367Z" fill="#1ED760"/>
<path d="M15 14.1211C15.4854 14.1211 15.8789 13.7276 15.8789 13.2422C15.8789 12.7568 15.4854 12.3633 15 12.3633C14.5146 12.3633 14.1211 12.7568 14.1211 13.2422C14.1211 13.7276 14.5146 14.1211 15 14.1211Z" fill="#1ED760"/>
<path d="M25.6055 21.2109C24.7113 21.2109 23.8807 21.4825 23.1859 21.9431L21.1664 19.9236C22.2501 18.5706 22.9102 16.8647 22.9102 15C22.9102 13.136 22.2353 11.4434 21.1528 10.0901L23.1859 8.05693C23.8807 8.51754 24.7113 8.78906 25.6055 8.78906C28.0285 8.78906 30 6.81756 30 4.39453C30 1.9715 28.0285 0 25.6055 0C23.1824 0 21.2109 1.9715 21.2109 4.39453C21.2109 5.28867 21.4825 6.1193 21.9431 6.8141L19.9099 8.84725C18.5566 7.76467 16.864 7.08984 15 7.08984C13.136 7.08984 11.4434 7.76467 10.0901 8.84725L8.05693 6.8141C8.51754 6.1193 8.78906 5.28867 8.78906 4.39453C8.78906 1.9715 6.81756 0 4.39453 0C1.9715 0 0 1.9715 0 4.39453C0 6.81756 1.9715 8.78906 4.39453 8.78906C5.28867 8.78906 6.1193 8.51754 6.8141 8.05693L8.84725 10.0901C7.76467 11.4434 7.08984 13.136 7.08984 15C7.08984 16.8647 7.7499 18.5706 8.83359 19.9236L6.8141 21.9431C6.1193 21.4825 5.28867 21.2109 4.39453 21.2109C1.9715 21.2109 0 23.1824 0 25.6055C0 28.0285 1.9715 30 4.39453 30C6.81756 30 8.78906 28.0285 8.78906 25.6055C8.78906 24.7113 8.51754 23.8807 8.05693 23.1859L10.0754 21.1675C10.2487 21.3062 10.4206 21.4471 10.6055 21.5711V20.2734C10.6055 17.8504 12.577 15.8789 15 15.8789C13.5461 15.8789 12.3633 14.6961 12.3633 13.2422C12.3633 11.7882 13.5461 10.6055 15 10.6055C16.4539 10.6055 17.6367 11.7882 17.6367 13.2422C17.6367 14.6961 16.4539 15.8789 15 15.8789C17.423 15.8789 19.3945 17.8504 19.3945 20.2734V21.5711C19.5794 21.4471 19.7512 21.3062 19.9246 21.1675L21.9431 23.186C21.4825 23.8807 21.2109 24.7113 21.2109 25.6055C21.2109 28.0285 23.1824 30 25.6055 30C28.0285 30 30 28.0285 30 25.6055C30 23.1824 28.0285 21.2109 25.6055 21.2109Z" fill="#1ED760"/>
</g>
<defs>
<clipPath id="clip0_741_744">
<rect width="30" height="30" fill="white"/>
</clipPath>
</defs>
</svg>
