<svg width="74" height="74" viewBox="0 0 74 74" fill="none" xmlns="http://www.w3.org/2000/svg">
<rect width="74" height="74" rx="37" fill="url(#paint0_linear_543_762)" fill-opacity="0.05"/>
<rect x="9" y="9" width="56" height="56" rx="28" fill="url(#paint1_linear_543_762)" fill-opacity="0.1"/>
<rect x="9.5" y="9.5" width="55" height="55" rx="27.5" stroke="url(#paint2_linear_543_762)" stroke-opacity="0.2"/>
<path fill-rule="evenodd" clip-rule="evenodd" d="M47.1915 38.9734C46.0775 38.4902 45.295 37.3533 45.295 36.0277C45.2951 34.7829 45.985 33.7045 46.9917 33.1775L46.9917 36.3887L48.3891 37.2215L49.7865 36.3887L49.7865 33.1775C50.7932 33.7044 51.4832 34.7829 51.4832 36.0277C51.4832 37.3533 50.7008 38.4902 49.5866 38.9734V45.8347C50.7008 46.3179 51.4832 47.4548 51.4831 48.7804C51.4832 50.0253 50.7931 51.1036 49.7865 51.6306V48.4194L48.3891 47.5866L46.9917 48.4194V51.6305C45.9851 51.1036 45.2951 50.0252 45.2951 48.7803C45.295 47.4547 46.0774 46.3178 47.1915 45.8346V38.9734ZM24.4194 38.4361C24.6141 38.0247 24.969 37.7082 25.3996 37.5737C25.3996 34.4226 27.859 31.8661 30.9154 31.8661C31.2023 31.8661 31.484 31.8887 31.759 31.9322C32.9495 30.3152 34.8323 29.2709 36.952 29.2709C39.177 29.2709 41.1414 30.4214 42.3176 32.1776H44.1193L44.6256 34.4474C44.9949 33.5105 45.6795 32.7429 46.5536 32.2857L47.9725 31.5408C47.7211 30.8651 47.4097 30.2148 47.0423 29.5983L48.038 27.2842L45.395 24.5559L43.1526 25.5841C42.0856 24.9056 40.9206 24.4071 39.7016 24.1073L38.8207 21.7451H35.0831L34.2025 24.1067C32.983 24.4064 31.8178 24.9051 30.7506 25.5839L28.5088 24.5559L25.8658 27.2842L26.8618 29.5991C26.2044 30.7004 25.7215 31.903 25.4311 33.1614L23.1427 34.0706V37.9289L24.4194 38.4361ZM25.8634 38.5032C25.5117 38.5032 25.2263 38.8004 25.2263 39.1608C25.2263 39.5244 25.5148 39.8185 25.8634 39.8185H35.9674C36.3178 39.8185 36.6045 39.5226 36.6045 39.1608C36.6045 38.7991 36.3177 38.5032 35.9674 38.5032H25.8634ZM30.9154 32.8661C33.4106 32.8661 35.4324 34.9371 35.4618 37.5032H26.3692C26.4012 34.9364 28.4221 32.8661 30.9154 32.8661ZM34.9784 40.8185C34.3769 42.5341 32.7849 43.76 30.9154 43.76C29.0459 43.76 27.454 42.5341 26.8524 40.8185H34.9784ZM23.1237 52.2556L38.707 52.2555C38.7964 52.2559 38.8849 52.2357 38.9658 52.1965C39.0468 52.1573 39.1184 52.1 39.1753 52.0287C39.2322 51.9575 39.273 51.874 39.2949 51.7845C39.3167 51.6949 39.319 51.6015 39.3015 51.5109C38.5363 47.4503 35.0727 44.385 30.9154 44.385C26.7579 44.385 23.2943 47.4504 22.5292 51.511C22.5117 51.6016 22.514 51.695 22.5358 51.7846C22.5577 51.8741 22.5985 51.9575 22.6554 52.0288C22.7123 52.1 22.7839 52.1574 22.8649 52.1966C22.9458 52.2358 23.0343 52.2559 23.1237 52.2556ZM44.1007 51.6306H41.0378V45.0054C41.0378 44.7353 41.2519 44.5143 41.5136 44.5143H43.6249C43.8866 44.5143 44.1007 44.7353 44.1007 45.0054V51.6306ZM41.7901 43.5144V36.7754L41.2554 35.5749L41.7901 33.1776H43.3483L43.883 35.5749L43.3483 36.7754V43.5144H41.7901V43.5144Z" fill="#1ED760"/>
<defs>
<linearGradient id="paint0_linear_543_762" x1="37" y1="0" x2="37" y2="74" gradientUnits="userSpaceOnUse">
<stop stop-color="#CAFF33"/>
<stop offset="1" stop-color="#CAFF33" stop-opacity="0"/>
</linearGradient>
<linearGradient id="paint1_linear_543_762" x1="37" y1="-28.0811" x2="37" y2="153.541" gradientUnits="userSpaceOnUse">
<stop stop-color="#4AFF86"/>
<stop offset="0.465" stop-color="#101A11"/>
</linearGradient>
<linearGradient id="paint2_linear_543_762" x1="37" y1="-88.2432" x2="37" y2="115.703" gradientUnits="userSpaceOnUse">
<stop stop-color="#CAFF33"/>
<stop offset="0.716291" stop-color="#CAFF33" stop-opacity="0"/>
</linearGradient>
</defs>
</svg>
