<svg width="18" height="15" viewBox="0 0 18 15" fill="none" xmlns="http://www.w3.org/2000/svg">
<path d="M10.8725 4.99344V3.0561H15.7198V0H2.26759V3.0561H7.12748V4.99344C3.05592 5.17224 0 5.91535 0 6.7979C0 7.68045 3.05232 8.42684 7.12748 8.60236V15H10.8725V8.60236C14.9441 8.4252 18 7.68209 18 6.7979C18 5.91371 14.9531 5.17224 10.8725 4.99344ZM9 8.03806C4.5911 8.03806 1.01744 7.41798 1.01744 6.67159C1.01744 6.03018 3.62056 5.49049 7.12387 5.34613V7.53445C7.7264 7.55906 8.35238 7.57382 8.99639 7.57382C9.64041 7.57382 10.27 7.55906 10.8689 7.53445V5.34613C14.3722 5.49049 16.9753 6.03018 16.9753 6.67159C16.9826 7.42618 13.4089 8.03806 9 8.03806Z" fill="white"/>
</svg>
