<svg width="74" height="74" viewBox="0 0 74 74" fill="none" xmlns="http://www.w3.org/2000/svg">
<rect width="74" height="74" rx="37" fill="url(#paint0_linear_543_906)" fill-opacity="0.05"/>
<rect x="9" y="9" width="56" height="56" rx="28" fill="url(#paint1_linear_543_906)" fill-opacity="0.1"/>
<rect x="9.5" y="9.5" width="55" height="55" rx="27.5" stroke="url(#paint2_linear_543_906)" stroke-opacity="0.2"/>
<g clip-path="url(#clip0_543_906)">
<path d="M38.6585 29.9772L37.0002 29.106L35.3419 29.9772C35.0467 30.1317 34.6879 30.1068 34.4167 29.9102C34.1455 29.7136 34.0099 29.3806 34.0665 29.051L34.3841 27.2048L33.0434 25.8976C32.9258 25.7833 32.8426 25.6384 32.8031 25.4793C32.7637 25.3202 32.7696 25.1532 32.8202 24.9972C32.8709 24.8413 32.9641 24.7027 33.0894 24.597C33.2146 24.4913 33.367 24.4227 33.5292 24.399L35.3831 24.1294L36.2122 22.4506C36.5075 21.8498 37.4928 21.8498 37.7881 22.4506L38.6172 24.1294L40.4712 24.399C40.6334 24.4227 40.7857 24.4913 40.911 24.597C41.0363 24.7027 41.1295 24.8413 41.1802 24.9972C41.2308 25.1532 41.2367 25.3202 41.1972 25.4793C41.1578 25.6384 41.0746 25.7833 40.957 25.8976L39.6163 27.2048L39.9339 29.051C39.9617 29.2127 39.9436 29.3788 39.8817 29.5307C39.8198 29.6826 39.7165 29.814 39.5837 29.9102C39.4512 30.0068 39.2942 30.0643 39.1307 30.0762C38.9671 30.088 38.8035 30.0537 38.6585 29.9772ZM28.1116 37.1651L26.4533 36.2939L24.7951 37.1651C24.4998 37.3196 24.141 37.2964 23.8698 37.0981C23.737 37.002 23.6337 36.8705 23.5718 36.7186C23.5099 36.5668 23.4918 36.4006 23.5196 36.239L23.8372 34.3927L22.4965 33.0855C22.3789 32.9712 22.2957 32.8263 22.2563 32.6672C22.2168 32.5081 22.2227 32.3411 22.2733 32.1851C22.324 32.0293 22.4172 31.8906 22.5425 31.7849C22.6678 31.6792 22.8201 31.6106 22.9823 31.5869L24.8363 31.3174L25.6654 29.6385C25.9606 29.0377 26.9459 29.0377 27.2412 29.6385L28.0703 31.3174L29.9243 31.5869C30.0865 31.6106 30.2388 31.6792 30.3641 31.7849C30.4894 31.8906 30.5826 32.0293 30.6333 32.1851C30.6839 32.3411 30.6898 32.5081 30.6504 32.6672C30.6109 32.8263 30.5277 32.9712 30.4101 33.0855L29.0694 34.3927L29.387 36.239C29.4148 36.4006 29.3967 36.5668 29.3348 36.7186C29.2729 36.8705 29.1696 37.002 29.0368 37.0981C28.9043 37.1948 28.7473 37.2523 28.5838 37.2641C28.4202 37.276 28.2566 37.2416 28.1116 37.1651ZM49.2053 37.1651L47.5471 36.2939L45.8888 37.1651C45.5936 37.3196 45.2348 37.2964 44.9636 37.0981C44.8307 37.002 44.7275 36.8705 44.6656 36.7186C44.6037 36.5668 44.5856 36.4006 44.6134 36.239L44.9309 34.3927L43.5902 33.0855C43.4727 32.9712 43.3895 32.8263 43.35 32.6672C43.3106 32.5081 43.3165 32.3411 43.3671 32.1851C43.4177 32.0293 43.511 31.8906 43.6362 31.7849C43.7615 31.6792 43.9139 31.6106 44.076 31.5869L45.93 31.3174L46.7591 29.6385C47.0544 29.0377 48.0397 29.0377 48.335 29.6385L49.1641 31.3174L51.0181 31.5869C51.1803 31.6106 51.3326 31.6792 51.4579 31.7849C51.5831 31.8906 51.6764 32.0293 51.727 32.1851C51.7777 32.3411 51.7836 32.5081 51.7441 32.6672C51.7047 32.8263 51.6214 32.9712 51.5039 33.0855L50.1632 34.3927L50.4808 36.239C50.5085 36.4006 50.4904 36.5668 50.4285 36.7186C50.3666 36.8705 50.2634 37.002 50.1305 37.0981C49.9981 37.1948 49.8411 37.2523 49.6775 37.2641C49.514 37.276 49.3504 37.2416 49.2053 37.1651ZM37.0002 52.0001C36.5487 52.0001 36.1711 51.6585 36.1265 51.2087C34.2463 32.4604 34.3635 33.7822 34.3635 33.5431C34.3635 32.0891 35.5463 30.9063 37.0002 30.9063C38.4542 30.9063 39.6369 32.0891 39.6369 33.5431C39.6369 33.7543 39.728 32.721 37.874 51.2087C37.8526 51.4256 37.7513 51.6267 37.5897 51.773C37.4282 51.9192 37.2181 52.0002 37.0002 52.0001ZM32.7052 51.5272L27.6292 41.7914C27.4352 41.4154 27.3322 40.9957 27.3322 40.5743C27.3322 39.1204 28.515 37.9376 29.969 37.9376C31.2685 37.9376 32.3619 38.8663 32.5696 40.146L34.3515 50.9787C34.3857 51.1848 34.3451 51.3964 34.2372 51.5753C34.1292 51.7542 33.961 51.8887 33.7627 51.9546C33.3491 52.0925 32.9022 51.9069 32.7052 51.5272ZM40.2377 51.9546C40.0395 51.8887 39.8712 51.7542 39.7632 51.5753C39.6553 51.3964 39.6148 51.1849 39.6489 50.9787L41.4308 40.1443C41.6385 38.8663 42.732 37.9376 44.0315 37.9376C45.4854 37.9376 46.6682 39.1204 46.6682 40.5743C46.6682 40.9957 46.5652 41.4154 46.3729 41.7897L41.2952 51.5272C41.0989 51.9045 40.6535 52.0932 40.2377 51.9546ZM29.3476 51.7426L24.953 47.348C24.6097 47.0047 24.6097 46.4485 24.953 46.1052C25.2963 45.7619 25.8526 45.7619 26.1959 46.1052L30.5904 50.4997C30.9337 50.843 30.9337 51.3993 30.5904 51.7426C30.247 52.0859 29.6909 52.0859 29.3476 51.7426Z" fill="#1ED760"/>
<path d="M22.8789 44.9102C23.3643 44.9102 23.7578 44.5167 23.7578 44.0312C23.7578 43.5458 23.3643 43.1523 22.8789 43.1523C22.3935 43.1523 22 43.5458 22 44.0312C22 44.5167 22.3935 44.9102 22.8789 44.9102Z" fill="#1ED760"/>
<path d="M43.4098 51.7425C43.0665 51.3992 43.0665 50.843 43.4098 50.4997L47.8044 46.1051C48.1477 45.7618 48.7039 45.7618 49.0472 46.1051C49.3905 46.4484 49.3905 47.0047 49.0472 47.348L44.6527 51.7425C44.3093 52.0859 43.7531 52.0859 43.4098 51.7425Z" fill="#1ED760"/>
<path d="M51.1211 44.9102C51.6065 44.9102 52 44.5167 52 44.0312C52 43.5458 51.6065 43.1523 51.1211 43.1523C50.6357 43.1523 50.2422 43.5458 50.2422 44.0312C50.2422 44.5167 50.6357 44.9102 51.1211 44.9102Z" fill="#1ED760"/>
</g>
<defs>
<linearGradient id="paint0_linear_543_906" x1="37" y1="0" x2="37" y2="74" gradientUnits="userSpaceOnUse">
<stop stop-color="#CAFF33"/>
<stop offset="1" stop-color="#CAFF33" stop-opacity="0"/>
</linearGradient>
<linearGradient id="paint1_linear_543_906" x1="37" y1="-28.0811" x2="37" y2="153.541" gradientUnits="userSpaceOnUse">
<stop stop-color="#4AFF86"/>
<stop offset="0.465" stop-color="#101A11"/>
</linearGradient>
<linearGradient id="paint2_linear_543_906" x1="37" y1="-88.2432" x2="37" y2="115.703" gradientUnits="userSpaceOnUse">
<stop stop-color="#CAFF33"/>
<stop offset="0.716291" stop-color="#CAFF33" stop-opacity="0"/>
</linearGradient>
<clipPath id="clip0_543_906">
<rect width="30" height="30" fill="white" transform="translate(22 22)"/>
</clipPath>
</defs>
</svg>
