<svg width="74" height="74" viewBox="0 0 74 74" fill="none" xmlns="http://www.w3.org/2000/svg">
<rect width="74" height="74" rx="37" fill="url(#paint0_linear_543_916)" fill-opacity="0.05"/>
<rect x="9" y="9" width="56" height="56" rx="28" fill="url(#paint1_linear_543_916)" fill-opacity="0.1"/>
<rect x="9.5" y="9.5" width="55" height="55" rx="27.5" stroke="url(#paint2_linear_543_916)" stroke-opacity="0.2"/>
<g clip-path="url(#clip0_543_916)">
<path d="M23.861 30.1499C28.0876 23.2058 34.4547 28.0369 34.4547 28.0369C34.8676 28.349 35.6291 28.6055 36.1464 28.6067L37.8519 28.6079C38.3692 28.6085 39.1306 28.3519 39.543 28.0399C39.543 28.0399 45.9106 23.2076 50.1378 30.1517C54.3639 37.0934 52.6608 44.6533 52.6608 44.6533C52.3624 46.5043 51.379 47.7395 49.5232 47.5844C47.6728 47.4298 43.6562 42.5994 43.6562 42.5994C43.3244 42.2013 42.6292 41.8761 42.1131 41.8761L31.8888 41.8743C31.372 41.8743 30.6774 42.1996 30.3463 42.5976C30.3463 42.5976 26.3291 47.4281 24.4757 47.5826C22.6222 47.7378 21.6364 46.5013 21.3399 44.6515C21.3405 44.6515 19.6344 37.0928 23.861 30.1499ZM40.8421 35.8021H43.0344V37.9151C43.0344 37.9151 43.4987 38.2695 44.2171 38.2606C44.9344 38.2498 45.259 37.8739 45.259 37.8739V35.8027H47.3297C47.3297 35.8027 47.588 35.5377 47.6573 34.8401C47.7253 34.1426 47.3714 33.5787 47.3714 33.5787H45.1785V31.3863C45.1785 31.3863 44.7273 31.1446 44.0787 31.1631C43.6898 31.1749 43.3073 31.2648 42.9539 31.4275L42.9628 33.5781H40.8922C40.8922 33.5781 40.5306 34.0423 40.5007 34.6032C40.4709 35.1648 40.8421 35.8021 40.8421 35.8021ZM30.786 38.2104C31.0139 38.2106 31.2396 38.1658 31.4501 38.0786C31.6606 37.9915 31.8519 37.8637 32.013 37.7025C32.1741 37.5413 32.3018 37.3499 32.3888 37.1393C32.4758 36.9287 32.5204 36.703 32.5201 36.4752C32.5206 36.2473 32.4761 36.0215 32.3891 35.8108C32.3021 35.6002 32.1744 35.4087 32.0133 35.2475C31.8522 35.0863 31.6609 34.9585 31.4503 34.8714C31.2397 34.7843 31.014 34.7396 30.786 34.7399C30.5543 34.7338 30.3237 34.7742 30.1079 34.8587C29.8921 34.9431 29.6953 35.07 29.5293 35.2317C29.3632 35.3935 29.2313 35.5868 29.1412 35.8004C29.0511 36.0139 29.0047 36.2434 29.0047 36.4752C29.0047 36.707 29.0511 36.9364 29.1412 37.15C29.2313 37.3635 29.3632 37.5569 29.5293 37.7186C29.6953 37.8803 29.8921 38.0072 30.1079 38.0917C30.3237 38.1761 30.5543 38.2165 30.786 38.2104ZM30.786 33.436C31.0139 33.4363 31.2395 33.3916 31.4501 33.3045C31.6606 33.2174 31.8519 33.0896 32.013 32.9285C32.174 32.7673 32.3017 32.576 32.3888 32.3654C32.4758 32.1549 32.5204 31.9292 32.5201 31.7014C32.5206 31.4734 32.4761 31.2477 32.3891 31.037C32.3021 30.8263 32.1744 30.6349 32.0133 30.4737C31.8522 30.3125 31.6609 30.1847 31.4503 30.0976C31.2397 30.0104 31.014 29.9658 30.786 29.9661C30.3258 29.9661 29.8843 30.1489 29.5588 30.4743C29.2333 30.7997 29.0503 31.2411 29.0502 31.7014C29.0506 32.1615 29.2337 32.6026 29.5592 32.9279C29.8847 33.2531 30.3259 33.4359 30.786 33.436ZM26.4646 35.999C26.6924 35.9992 26.9181 35.9545 27.1287 35.8673C27.3393 35.7802 27.5306 35.6524 27.6917 35.4912C27.8528 35.33 27.9805 35.1386 28.0675 34.9279C28.1545 34.7173 28.199 34.4916 28.1986 34.2637C28.199 34.0358 28.1545 33.8101 28.0675 33.5994C27.9805 33.3888 27.8528 33.1974 27.6917 33.0362C27.5306 32.875 27.3393 32.7472 27.1287 32.6601C26.9181 32.5729 26.6924 32.5282 26.4646 32.5284C26.0043 32.5286 25.563 32.7114 25.2375 33.0368C24.912 33.3622 24.729 33.8035 24.7287 34.2637C24.729 34.7239 24.912 35.1652 25.2375 35.4906C25.563 35.816 26.0043 35.9988 26.4646 35.999Z" fill="#1ED760"/>
</g>
<defs>
<linearGradient id="paint0_linear_543_916" x1="37" y1="0" x2="37" y2="74" gradientUnits="userSpaceOnUse">
<stop stop-color="#CAFF33"/>
<stop offset="1" stop-color="#CAFF33" stop-opacity="0"/>
</linearGradient>
<linearGradient id="paint1_linear_543_916" x1="37" y1="-28.0811" x2="37" y2="153.541" gradientUnits="userSpaceOnUse">
<stop stop-color="#4AFF86"/>
<stop offset="0.465" stop-color="#101A11"/>
</linearGradient>
<linearGradient id="paint2_linear_543_916" x1="37" y1="-88.2432" x2="37" y2="115.703" gradientUnits="userSpaceOnUse">
<stop stop-color="#CAFF33"/>
<stop offset="0.716291" stop-color="#CAFF33" stop-opacity="0"/>
</linearGradient>
<clipPath id="clip0_543_916">
<rect width="32" height="32" fill="white" transform="matrix(-1 0 0 1 53 21)"/>
</clipPath>
</defs>
</svg>
