<svg width="30" height="29" viewBox="0 0 30 29" fill="none" xmlns="http://www.w3.org/2000/svg">
<path d="M1.25 0.25C0.918479 0.25 0.600537 0.381696 0.366117 0.616117C0.131696 0.850537 0 1.16848 0 1.5C0 1.83152 0.131696 2.14946 0.366117 2.38388C0.600537 2.6183 0.918479 2.75 1.25 2.75H3.475C3.65669 2.75032 3.8337 2.80767 3.98105 2.91398C4.1284 3.02029 4.23865 3.17018 4.29625 3.3425L8.4175 15.7088C8.60125 16.2588 8.62375 16.8488 8.48375 17.4113L8.145 18.77C7.64625 20.7625 9.1975 22.75 11.25 22.75H26.25C26.5815 22.75 26.8995 22.6183 27.1339 22.3839C27.3683 22.1495 27.5 21.8315 27.5 21.5C27.5 21.1685 27.3683 20.8505 27.1339 20.6161C26.8995 20.3817 26.5815 20.25 26.25 20.25H11.25C10.7625 20.25 10.45 19.85 10.5688 19.3788L10.825 18.3563C10.8682 18.1833 10.9679 18.0297 11.1083 17.9199C11.2487 17.8101 11.4217 17.7503 11.6 17.75H25C25.2627 17.7503 25.5188 17.6679 25.7319 17.5144C25.9451 17.3609 26.1045 17.1442 26.1875 16.895L29.5187 6.895C29.5813 6.70708 29.5984 6.50699 29.5685 6.31119C29.5385 6.1154 29.4625 5.92952 29.3467 5.76887C29.2308 5.60822 29.0785 5.4774 28.9021 5.38718C28.7258 5.29697 28.5306 5.24995 28.3325 5.25H8.19375C8.01184 5.24995 7.83455 5.19271 7.68695 5.08638C7.53936 4.98006 7.42892 4.83003 7.37125 4.6575L6.18625 1.105C6.10331 0.855993 5.9441 0.639408 5.73119 0.485947C5.51827 0.332486 5.26246 0.249937 5 0.25H1.25ZM10 24C9.33696 24 8.70107 24.2634 8.23223 24.7322C7.76339 25.2011 7.5 25.837 7.5 26.5C7.5 27.163 7.76339 27.7989 8.23223 28.2678C8.70107 28.7366 9.33696 29 10 29C10.663 29 11.2989 28.7366 11.7678 28.2678C12.2366 27.7989 12.5 27.163 12.5 26.5C12.5 25.837 12.2366 25.2011 11.7678 24.7322C11.2989 24.2634 10.663 24 10 24ZM25 24C24.337 24 23.7011 24.2634 23.2322 24.7322C22.7634 25.2011 22.5 25.837 22.5 26.5C22.5 27.163 22.7634 27.7989 23.2322 28.2678C23.7011 28.7366 24.337 29 25 29C25.663 29 26.2989 28.7366 26.7678 28.2678C27.2366 27.7989 27.5 27.163 27.5 26.5C27.5 25.837 27.2366 25.2011 26.7678 24.7322C26.2989 24.2634 25.663 24 25 24Z" fill="#1ED760"/>
</svg>
