<svg width="21" height="23" viewBox="0 0 21 23" fill="none" xmlns="http://www.w3.org/2000/svg">
<path d="M15.0938 0H6.46875C4.94786 0 3.59376 1.3951 3.59376 2.87502L2.76288 2.89442C1.24272 2.89442 0 4.27009 0 5.75V20.125C0 21.6049 1.35413 23 2.87502 23H13.6563C15.1771 23 16.5313 21.6049 16.5313 20.125H17.25C18.7709 20.125 20.125 18.7299 20.125 17.25V5.76726L15.0938 0ZM13.6563 21.5625H2.87502C2.12033 21.5625 1.43752 20.8575 1.43752 20.125V5.75C1.43752 5.01761 2.05206 4.33622 2.80675 4.33622L3.59376 4.31251V17.25C3.59376 18.7299 4.94786 20.125 6.46875 20.125H15.0938C15.0938 20.8574 14.4109 21.5625 13.6563 21.5625ZM18.6875 17.25C18.6875 17.9824 18.0047 18.6875 17.25 18.6875H6.46875C5.71406 18.6875 5.03125 17.9824 5.03125 17.25V2.87502C5.03125 2.14262 5.71406 1.43752 6.46875 1.43752H13.6563C13.6447 3.09281 13.6563 4.3305 13.6563 4.3305C13.6563 5.82406 15.0003 7.18753 16.5313 7.18753H18.6875V17.25ZM16.5313 5.75C15.7658 5.75 15.0938 4.35924 15.0938 3.61316V1.45834L18.6875 5.75H16.5313ZM15.0938 10.0755H8.62502C8.22827 10.0755 7.90627 10.3967 7.90627 10.7935C7.90627 11.1902 8.22827 11.5115 8.62502 11.5115H15.0938C15.4905 11.5115 15.8125 11.1902 15.8125 10.7935C15.8125 10.3967 15.4905 10.0755 15.0938 10.0755ZM15.0938 13.6656H8.62502C8.22827 13.6656 7.90627 13.9869 7.90627 14.3836C7.90627 14.7804 8.22827 15.1017 8.62502 15.1017H15.0938C15.4905 15.1017 15.8125 14.7804 15.8125 14.3836C15.8125 13.9869 15.4905 13.6656 15.0938 13.6656Z" fill="white"/>
</svg>
