<svg width="1400" height="240" viewBox="0 0 1400 240" fill="none" xmlns="http://www.w3.org/2000/svg">
<g clip-path="url(#clip0_261_846)">
<rect width="1400" height="240" fill="#050505"/>
<g opacity="0.5">
<path d="M784.667 151.293C789.908 158.395 788.93 169.131 782.972 180.818C777.022 192.49 766.138 205.034 751.724 215.671C737.309 226.307 722.113 233.008 709.206 235.251C696.282 237.497 685.734 235.265 680.494 228.163C675.253 221.061 676.231 210.325 682.188 198.638C688.138 186.966 699.022 174.422 713.437 163.785C727.851 153.149 743.047 146.448 755.955 144.205C768.879 141.959 779.426 144.19 784.667 151.293Z" stroke="url(#paint0_linear_261_846)" stroke-width="0.5"/>
<path d="M786.81 154.197C792.051 161.3 791.073 172.036 785.115 183.723C779.165 195.395 768.281 207.939 753.867 218.575C739.452 229.212 724.256 235.913 711.349 238.156C698.425 240.402 687.877 238.17 682.637 231.068C677.396 223.966 678.374 213.229 684.332 201.543C690.282 189.87 701.165 177.326 715.58 166.69C729.994 156.053 745.19 149.353 758.098 147.11C771.022 144.863 781.569 147.095 786.81 154.197Z" stroke="url(#paint1_linear_261_846)" stroke-width="0.5"/>
<path d="M788.954 157.102C794.194 164.205 793.216 174.941 787.259 186.628C781.309 198.3 770.425 210.844 756.01 221.48C741.596 232.117 726.4 238.818 713.492 241.061C700.568 243.307 690.021 241.075 684.78 233.973C679.539 226.871 680.517 216.134 686.475 204.448C692.425 192.775 703.309 180.231 717.723 169.595C732.138 158.958 747.334 152.258 760.241 150.015C773.166 147.769 783.713 150 788.954 157.102Z" stroke="url(#paint2_linear_261_846)" stroke-width="0.5"/>
<path d="M791.097 160.007C796.338 167.109 795.36 177.845 789.402 189.532C783.452 201.204 772.568 213.748 758.154 224.385C743.739 235.021 728.544 241.722 715.636 243.965C702.712 246.211 692.165 243.98 686.924 236.877C681.683 229.775 682.661 219.039 688.619 207.352C694.569 195.68 705.453 183.136 719.867 172.499C734.281 161.863 749.477 155.162 762.385 152.919C775.309 150.673 785.856 152.904 791.097 160.007Z" stroke="url(#paint3_linear_261_846)" stroke-width="0.5"/>
<path d="M793.241 162.912C798.482 170.014 797.503 180.75 791.546 192.437C785.596 204.109 774.712 216.653 760.297 227.29C745.883 237.926 730.687 244.627 717.78 246.87C704.855 249.116 694.308 246.885 689.067 239.782C683.826 232.68 684.805 221.944 690.762 210.257C696.712 198.585 707.596 186.041 722.011 175.404C736.425 164.768 751.621 158.067 764.528 155.824C777.453 153.578 788 155.809 793.241 162.912Z" stroke="url(#paint4_linear_261_846)" stroke-width="0.5"/>
<path d="M795.384 165.817C800.625 172.919 799.647 183.655 793.689 195.342C787.739 207.014 776.855 219.558 762.441 230.195C748.027 240.831 732.831 247.532 719.923 249.775C706.999 252.021 696.452 249.79 691.211 242.687C685.97 235.585 686.948 224.849 692.906 213.162C698.856 201.49 709.74 188.946 724.154 178.309C738.569 167.673 753.764 160.972 766.672 158.729C779.596 156.483 790.143 158.714 795.384 165.817Z" stroke="url(#paint5_linear_261_846)" stroke-width="0.5"/>
<path d="M797.528 168.722C802.769 175.824 801.791 186.56 795.833 198.247C789.883 209.919 778.999 222.463 764.585 233.1C750.17 243.736 734.974 250.437 722.067 252.68C709.142 254.926 698.595 252.695 693.354 245.592C688.114 238.49 689.092 227.754 695.049 216.067C700.999 204.395 711.883 191.851 726.298 181.214C740.712 170.578 755.908 163.877 768.816 161.634C781.74 159.388 792.287 161.62 797.528 168.722Z" stroke="url(#paint6_linear_261_846)" stroke-width="0.5"/>
<path d="M799.671 171.627C804.912 178.729 803.934 189.465 797.976 201.152C792.026 212.824 781.143 225.368 766.728 236.005C752.314 246.641 737.118 253.342 724.21 255.585C711.286 257.831 700.739 255.6 695.498 248.497C690.257 241.395 691.235 230.659 697.193 218.972C703.143 207.3 714.027 194.756 728.441 184.119C742.856 173.483 758.052 166.782 770.959 164.539C783.883 162.293 794.431 164.525 799.671 171.627Z" stroke="url(#paint7_linear_261_846)" stroke-width="0.5"/>
<path d="M801.815 174.531C807.056 181.633 806.078 192.37 800.12 204.057C794.17 215.729 783.286 228.273 768.872 238.909C754.457 249.546 739.261 256.246 726.354 258.49C713.43 260.736 702.882 258.504 697.641 251.402C692.401 244.3 693.379 233.563 699.336 221.876C705.286 210.204 716.17 197.66 730.585 187.024C744.999 176.387 760.195 169.687 773.103 167.443C786.027 165.197 796.574 167.429 801.815 174.531Z" stroke="url(#paint8_linear_261_846)" stroke-width="0.5"/>
<path d="M803.959 177.436C809.199 184.538 808.221 195.275 802.264 206.962C796.314 218.634 785.43 231.178 771.015 241.814C756.601 252.451 741.405 259.151 728.497 261.395C715.573 263.641 705.026 261.409 699.785 254.307C694.544 247.205 695.522 236.468 701.48 224.781C707.43 213.109 718.314 200.565 732.728 189.929C747.143 179.292 762.339 172.592 775.246 170.348C788.17 168.102 798.718 170.334 803.959 177.436Z" stroke="url(#paint9_linear_261_846)" stroke-width="0.5"/>
<path d="M806.102 180.341C811.343 187.443 810.365 198.18 804.407 209.867C798.457 221.539 787.573 234.083 773.159 244.719C758.744 255.356 743.548 262.056 730.641 264.3C717.717 266.546 707.169 264.314 701.929 257.212C696.688 250.11 697.666 239.373 703.624 227.686C709.574 216.014 720.457 203.47 734.872 192.834C749.286 182.197 764.482 175.497 777.39 173.253C790.314 171.007 800.861 173.239 806.102 180.341Z" stroke="url(#paint10_linear_261_846)" stroke-width="0.5"/>
<path d="M808.246 183.246C813.486 190.348 812.508 201.085 806.551 212.772C800.601 224.444 789.717 236.988 775.302 247.624C760.888 258.261 745.692 264.961 732.784 267.205C719.86 269.451 709.313 267.219 704.072 260.117C698.831 253.015 699.809 242.278 705.767 230.591C711.717 218.919 722.601 206.375 737.015 195.739C751.43 185.102 766.626 178.402 779.533 176.158C792.458 173.912 803.005 176.144 808.246 183.246Z" stroke="url(#paint11_linear_261_846)" stroke-width="0.5"/>
<path d="M810.389 186.151C815.63 193.253 814.652 203.99 808.694 215.677C802.744 227.349 791.86 239.893 777.446 250.529C763.031 261.166 747.836 267.866 734.928 270.11C722.004 272.356 711.457 270.124 706.216 263.022C700.975 255.92 701.953 245.183 707.911 233.496C713.861 221.824 724.745 209.28 739.159 198.644C753.573 188.007 768.769 181.307 781.677 179.063C794.601 176.817 805.148 179.049 810.389 186.151Z" stroke="url(#paint12_linear_261_846)" stroke-width="0.5"/>
<path d="M812.533 189.055C817.774 196.158 816.795 206.894 810.838 218.581C804.888 230.253 794.004 242.797 779.589 253.434C765.175 264.07 749.979 270.771 737.071 273.014C724.147 275.26 713.6 273.028 708.359 265.926C703.118 258.824 704.097 248.088 710.054 236.401C716.004 224.729 726.888 212.185 741.303 201.548C755.717 190.911 770.913 184.211 783.82 181.968C796.745 179.722 807.292 181.953 812.533 189.055Z" stroke="url(#paint13_linear_261_846)" stroke-width="0.5"/>
<path d="M814.676 191.96C819.917 199.063 818.939 209.799 812.981 221.486C807.031 233.158 796.147 245.702 781.733 256.339C767.319 266.975 752.123 273.676 739.215 275.919C726.291 278.165 715.744 275.933 710.503 268.831C705.262 261.729 706.24 250.993 712.198 239.306C718.148 227.634 729.032 215.09 743.446 204.453C757.861 193.816 773.056 187.116 785.964 184.873C798.888 182.627 809.435 184.858 814.676 191.96Z" stroke="url(#paint14_linear_261_846)" stroke-width="0.5"/>
</g>
<path d="M299.737 163.474V150H302.263V163.474H299.737Z" fill="url(#paint15_linear_261_846)"/>
<path d="M297.951 180.737L289.389 172.175L291.175 170.389L299.737 178.95V166.842H302.263V178.95L310.825 170.389L312.611 172.175L304.049 180.737H316.158V183.263H304.05L312.611 191.825L310.825 193.611L302.263 185.049V197.158H299.737V185.049L291.175 193.611L289.389 191.825L297.95 183.263H285.842V180.737H297.951Z" fill="url(#paint16_linear_261_846)"/>
<path d="M269 180.737H282.474V183.263H269V180.737Z" fill="url(#paint17_linear_261_846)"/>
<path d="M319.526 180.737H333V183.263H319.526V180.737Z" fill="url(#paint18_linear_261_846)"/>
<path d="M299.737 200.526V214H302.263V200.526H299.737Z" fill="url(#paint19_linear_261_846)"/>
<path d="M287.007 194.207L277.479 203.734L279.266 205.521L288.793 195.993L287.007 194.207Z" fill="url(#paint20_linear_261_846)"/>
<path d="M313.207 168.007L322.734 158.479L324.521 160.266L314.993 169.793L313.207 168.007Z" fill="url(#paint21_linear_261_846)"/>
<path d="M314.993 194.207L324.521 203.734L322.734 205.521L313.207 195.993L314.993 194.207Z" fill="url(#paint22_linear_261_846)"/>
<path d="M288.793 168.007L279.266 158.479L277.479 160.266L287.007 169.793L288.793 168.007Z" fill="url(#paint23_linear_261_846)"/>
</g>
<path opacity="0.5" fill-rule="evenodd" clip-rule="evenodd" d="M1339.31 62.8208L1293.23 63.3441L1271.21 101.492L1292.31 144.176L1339.67 144.386L1363.16 103.707L1339.31 62.8208ZM1349.65 124.217L1361.08 104.424L1342.81 104.343L1331.24 124.381L1349.65 124.217ZM1348.81 125.667L1338.84 142.941L1320.57 142.86L1330.41 125.831L1348.81 125.667ZM1328.73 125.846L1318.91 142.852L1294.01 142.741L1303.63 126.069L1328.73 125.846ZM1302.39 125.342L1292.81 141.93L1281.67 119.407L1290.67 103.825L1302.39 125.342ZM1291.51 102.362L1303.23 123.878L1315 103.497L1303.15 82.4266L1303.02 82.4288L1291.51 102.362ZM1289.86 102.341L1280.91 117.854L1272.84 101.545L1281.38 86.7599L1289.86 102.341ZM1282.22 85.2966L1290.71 100.878L1302.18 81.0009L1302.35 80.9982L1293.64 65.5163L1282.22 85.2966ZM1304.47 124.62L1329.57 124.396L1341.15 104.335L1316.24 104.224L1304.47 124.62ZM1340.93 102.892L1316.25 102.783L1304.79 82.399L1328.74 81.9961L1340.93 102.892ZM1327.91 80.5681L1303.99 80.9706L1294.87 64.7673L1318.54 64.4986L1327.91 80.5681ZM1320.19 64.4797L1329.56 80.5403L1347.8 80.2336L1338.49 64.272L1320.19 64.4797ZM1348.63 81.6616L1330.39 81.9683L1342.6 102.9L1361.06 102.982L1348.63 81.6616Z" fill="url(#paint24_linear_261_846)"/>
<path fill-rule="evenodd" clip-rule="evenodd" d="M398.853 77.1844L395.586 89.4858L407.887 92.7534L411.155 80.452L398.853 77.1844ZM407.177 91.5301L396.809 88.776L399.563 78.4076L409.931 81.1618L407.177 91.5301Z" fill="url(#paint25_radial_261_846)"/>
<path fill-rule="evenodd" clip-rule="evenodd" d="M428.261 60.1207L440.562 63.3883L437.295 75.6896L424.994 72.422L428.261 60.1207ZM426.217 71.7123L436.585 74.4664L439.339 64.098L428.971 61.3439L426.217 71.7123Z" fill="url(#paint26_radial_261_846)"/>
<path fill-rule="evenodd" clip-rule="evenodd" d="M399.003 43.5693L449.826 57.4352L436.643 108.44L385.82 94.5739L399.003 43.5693ZM396.555 57.0344L399.717 44.8008L411.907 48.1266L408.685 60.2565L396.555 57.0344ZM396.305 58.0027L387.035 93.8689L423.456 103.805L426.625 91.8776L414.806 88.7384L418.074 76.437L430.375 79.7046L427.236 91.5227L439.164 94.6911L448.611 58.1402L412.872 48.3898L409.524 60.9965L421.342 64.1357L418.074 76.437L405.773 73.1694L408.912 61.3513L396.305 58.0027ZM438.914 95.6593L427.463 92.6176L424.421 104.069L435.929 107.208L438.914 95.6593ZM406.996 72.4597L417.364 75.2138L420.118 64.8454L409.75 62.0913L406.996 72.4597ZM426.398 90.7827L416.03 88.0286L418.784 77.6602L429.152 80.4144L426.398 90.7827Z" fill="url(#paint27_radial_261_846)"/>
<path fill-rule="evenodd" clip-rule="evenodd" d="M942.639 38.5308L962.639 24H987.361L1007.36 38.5309L1015 62.0423L1007.36 85.5537L987.361 100.085H962.639L942.639 85.5537L935 62.0423L942.639 38.5308ZM975 28.0162L965.717 25L984.283 25L975 28.0162ZM973.382 28.542L963.021 25.1756L956.618 33.9889L973.382 28.542ZM957.073 34.8925L973.914 29.4207L967.421 38.387L957.073 34.8925ZM955.307 35.7937L944.503 50.6633L955.262 47.2164L955.307 35.7937ZM955.258 48.2678L944.313 51.7745L951.019 61.0364L955.23 55.2213L955.258 48.2678ZM956.236 53.8328L956.259 47.947L961.779 46.1785L956.236 53.8328ZM955.224 56.9356L951.637 61.8889L955.185 66.7887L955.224 56.9356ZM956.18 68.1622L956.229 55.5471L963.386 45.6635L974.909 41.9716L987.121 46.0955L994.262 55.9567L994.36 68.4166L982.666 84.131L963.235 77.9057L956.18 68.1622ZM955.178 68.4845L951.019 62.7414L944.407 71.8733L955.151 75.3157L955.178 68.4845ZM956.15 75.6357L956.173 69.858L961.628 77.3906L956.15 75.6357ZM955.147 76.3645L944.061 72.8126L955.101 88.0083L955.147 76.3645ZM956.098 88.8752L956.146 76.6845L962.618 78.7579L974.204 94.7582L956.098 88.8752ZM988.755 46.6475L994.248 54.2329L994.203 48.4872L988.755 46.6475ZM994.194 47.4289L987.743 45.2503L983.399 39.2515L994.102 35.8223L994.194 47.4289ZM995.205 48.8258L995.259 55.6292L999.509 61.498L1006.18 52.5324L995.205 48.8258ZM1006.06 51.4353L995.197 47.7675L995.107 36.3629L1006.06 51.4353ZM986.109 44.6984L976.513 41.4577L982.397 39.5725L986.109 44.6984ZM974.918 40.9189L981.78 38.7202L975.097 29.4914L968.413 38.7221L974.918 40.9189ZM966.807 39.2351L962.769 44.8112L956.263 46.8956L956.307 35.6893L966.807 39.2351ZM967.799 39.5702L973.314 41.4327L964.376 44.2962L967.799 39.5702ZM983.672 84.4535L994.373 70.074L994.514 87.9272L983.672 84.4535ZM995.363 68.7443L995.508 87.1687L1006.24 72.3968L1006.19 72.4321L999.498 63.1878L995.363 68.7443ZM995.273 57.353L995.35 67.0869L998.883 62.3388L995.273 57.353ZM976.34 29.5032L993.324 35.0216L982.782 38.3991L976.34 29.5032ZM943.639 52.5497V71.2281L950.402 61.8889L943.639 52.5497ZM976.07 94.6692L994.048 88.8278L983.041 85.3014L976.07 94.6692ZM982.035 84.9789L975.103 94.294L964.225 79.2729L982.035 84.9789ZM1000.12 62.3469L1006.36 70.96V53.9659L1000.12 62.3469ZM955 34.5146L960.737 26.618L945.717 37.5308L955 34.5146ZM945.717 86.5537L960.737 97.4665L955 89.5699L945.717 86.5537ZM954 88.1935L943.639 73.9332V84.8271L954 88.1935ZM942.639 72.5568V82.3175L936.902 64.6603L942.639 72.5568ZM942.639 53.229L936.236 62.0423L942.639 70.8555V53.229ZM942.639 51.5277L936.902 59.4242L942.639 41.767V51.5277ZM943.639 50.1513V39.2574L954 35.891L943.639 50.1513ZM956.618 90.0956L963.021 98.909L973.382 95.5426L956.618 90.0956ZM975 96.0683L965.717 99.0845H984.283L975 96.0683ZM989.263 97.4666L1004.28 86.5537L995 89.5699L989.263 97.4666ZM993.382 90.0956L976.618 95.5426L986.979 98.909L993.382 90.0956ZM996 88.1935L1006.36 84.8271V73.9332L996 88.1935ZM1007.36 72.5568V82.3176L1013.1 64.6602L1007.36 72.5568ZM1013.1 59.4243L1007.36 41.7669V51.5277L1013.1 59.4243ZM1007.36 70.8555L1013.76 62.0423L1007.36 53.229V70.8555ZM1006.36 50.1513V39.2574L996 35.891L1006.36 50.1513ZM995 34.5146L1004.28 37.5309L989.263 26.618L995 34.5146ZM993.382 33.9889L976.618 28.542L986.979 25.1756L993.382 33.9889Z" fill="url(#paint28_radial_261_846)"/>
<g opacity="0.2">
<path fill-rule="evenodd" clip-rule="evenodd" d="M1.75 45.75H55.1875V90.75H1.75V45.75ZM4.5625 48.5625H52.375V87.9375H4.5625V48.5625Z" fill="url(#paint29_linear_261_846)"/>
<path fill-rule="evenodd" clip-rule="evenodd" d="M-3.875 40.125V107.625H72.0625V40.125H-3.875ZM69.25 42.9375H-1.0625V104.812H69.25V42.9375Z" fill="url(#paint30_linear_261_846)"/>
<path fill-rule="evenodd" clip-rule="evenodd" d="M-9.5 34.5H88.9375V124.5H-9.5V34.5ZM-6.6875 37.3125H86.125V121.688H-6.6875V37.3125Z" fill="url(#paint31_linear_261_846)"/>
<path fill-rule="evenodd" clip-rule="evenodd" d="M-15.125 28.875V141.375H103V28.875H-15.125ZM100.188 31.6875H-12.3125V138.562H100.188V31.6875Z" fill="url(#paint32_linear_261_846)"/>
<path fill-rule="evenodd" clip-rule="evenodd" d="M-20.75 23.25H117.062V158.25H-20.75V23.25ZM-17.9375 26.0625H114.25V155.438H-17.9375V26.0625Z" fill="url(#paint33_linear_261_846)"/>
<path fill-rule="evenodd" clip-rule="evenodd" d="M-26.375 17.625V175.125H131.125V17.625H-26.375ZM128.312 20.4375H-23.5625V172.312H128.312V20.4375Z" fill="url(#paint34_linear_261_846)"/>
<path fill-rule="evenodd" clip-rule="evenodd" d="M-32 12V192H148V12H-32ZM145.188 14.8125H-29.1875V189.188H145.188V14.8125Z" fill="url(#paint35_linear_261_846)"/>
</g>
<defs>
<linearGradient id="paint0_linear_261_846" x1="713.288" y1="163.584" x2="751.872" y2="215.872" gradientUnits="userSpaceOnUse">
<stop stop-color="#00CD44"/>
<stop offset="1" stop-color="#00CD44" stop-opacity="0.54"/>
</linearGradient>
<linearGradient id="paint1_linear_261_846" x1="715.431" y1="166.489" x2="754.015" y2="218.777" gradientUnits="userSpaceOnUse">
<stop stop-color="#00CD44"/>
<stop offset="1" stop-color="#00CD44" stop-opacity="0.54"/>
</linearGradient>
<linearGradient id="paint2_linear_261_846" x1="717.575" y1="169.394" x2="756.159" y2="221.682" gradientUnits="userSpaceOnUse">
<stop stop-color="#00CD44"/>
<stop offset="1" stop-color="#00CD44" stop-opacity="0.54"/>
</linearGradient>
<linearGradient id="paint3_linear_261_846" x1="719.719" y1="172.298" x2="758.302" y2="224.586" gradientUnits="userSpaceOnUse">
<stop stop-color="#00CD44"/>
<stop offset="1" stop-color="#00CD44" stop-opacity="0.54"/>
</linearGradient>
<linearGradient id="paint4_linear_261_846" x1="721.862" y1="175.203" x2="760.446" y2="227.491" gradientUnits="userSpaceOnUse">
<stop stop-color="#00CD44"/>
<stop offset="1" stop-color="#00CD44" stop-opacity="0.54"/>
</linearGradient>
<linearGradient id="paint5_linear_261_846" x1="724.006" y1="178.108" x2="762.589" y2="230.396" gradientUnits="userSpaceOnUse">
<stop stop-color="#00CD44"/>
<stop offset="1" stop-color="#00CD44" stop-opacity="0.54"/>
</linearGradient>
<linearGradient id="paint6_linear_261_846" x1="726.149" y1="181.013" x2="764.733" y2="233.301" gradientUnits="userSpaceOnUse">
<stop stop-color="#00CD44"/>
<stop offset="1" stop-color="#00CD44" stop-opacity="0.54"/>
</linearGradient>
<linearGradient id="paint7_linear_261_846" x1="728.293" y1="183.918" x2="766.877" y2="236.206" gradientUnits="userSpaceOnUse">
<stop stop-color="#00CD44"/>
<stop offset="1" stop-color="#00CD44" stop-opacity="0.54"/>
</linearGradient>
<linearGradient id="paint8_linear_261_846" x1="730.436" y1="186.822" x2="769.02" y2="239.11" gradientUnits="userSpaceOnUse">
<stop stop-color="#00CD44"/>
<stop offset="1" stop-color="#00CD44" stop-opacity="0.54"/>
</linearGradient>
<linearGradient id="paint9_linear_261_846" x1="732.58" y1="189.727" x2="771.164" y2="242.015" gradientUnits="userSpaceOnUse">
<stop stop-color="#00CD44"/>
<stop offset="1" stop-color="#00CD44" stop-opacity="0.54"/>
</linearGradient>
<linearGradient id="paint10_linear_261_846" x1="734.723" y1="192.633" x2="773.307" y2="244.92" gradientUnits="userSpaceOnUse">
<stop stop-color="#00CD44"/>
<stop offset="1" stop-color="#00CD44" stop-opacity="0.54"/>
</linearGradient>
<linearGradient id="paint11_linear_261_846" x1="736.867" y1="195.538" x2="775.451" y2="247.825" gradientUnits="userSpaceOnUse">
<stop stop-color="#00CD44"/>
<stop offset="1" stop-color="#00CD44" stop-opacity="0.54"/>
</linearGradient>
<linearGradient id="paint12_linear_261_846" x1="739.011" y1="198.443" x2="777.594" y2="250.73" gradientUnits="userSpaceOnUse">
<stop stop-color="#00CD44"/>
<stop offset="1" stop-color="#00CD44" stop-opacity="0.54"/>
</linearGradient>
<linearGradient id="paint13_linear_261_846" x1="741.154" y1="201.347" x2="779.738" y2="253.635" gradientUnits="userSpaceOnUse">
<stop stop-color="#00CD44"/>
<stop offset="1" stop-color="#00CD44" stop-opacity="0.54"/>
</linearGradient>
<linearGradient id="paint14_linear_261_846" x1="743.298" y1="204.252" x2="781.881" y2="256.54" gradientUnits="userSpaceOnUse">
<stop stop-color="#00CD44"/>
<stop offset="1" stop-color="#00CD44" stop-opacity="0.54"/>
</linearGradient>
<linearGradient id="paint15_linear_261_846" x1="280.368" y1="155.895" x2="314.474" y2="214.421" gradientUnits="userSpaceOnUse">
<stop stop-color="#1ED760"/>
<stop offset="1" stop-color="#1ED760" stop-opacity="0.06"/>
</linearGradient>
<linearGradient id="paint16_linear_261_846" x1="280.368" y1="155.895" x2="314.474" y2="214.421" gradientUnits="userSpaceOnUse">
<stop stop-color="#1ED760"/>
<stop offset="1" stop-color="#1ED760" stop-opacity="0.06"/>
</linearGradient>
<linearGradient id="paint17_linear_261_846" x1="280.368" y1="155.895" x2="314.474" y2="214.421" gradientUnits="userSpaceOnUse">
<stop stop-color="#1ED760"/>
<stop offset="1" stop-color="#1ED760" stop-opacity="0.06"/>
</linearGradient>
<linearGradient id="paint18_linear_261_846" x1="280.368" y1="155.895" x2="314.474" y2="214.421" gradientUnits="userSpaceOnUse">
<stop stop-color="#1ED760"/>
<stop offset="1" stop-color="#1ED760" stop-opacity="0.06"/>
</linearGradient>
<linearGradient id="paint19_linear_261_846" x1="280.368" y1="155.895" x2="314.474" y2="214.421" gradientUnits="userSpaceOnUse">
<stop stop-color="#1ED760"/>
<stop offset="1" stop-color="#1ED760" stop-opacity="0.06"/>
</linearGradient>
<linearGradient id="paint20_linear_261_846" x1="280.368" y1="155.895" x2="314.474" y2="214.421" gradientUnits="userSpaceOnUse">
<stop stop-color="#1ED760"/>
<stop offset="1" stop-color="#1ED760" stop-opacity="0.06"/>
</linearGradient>
<linearGradient id="paint21_linear_261_846" x1="280.368" y1="155.895" x2="314.474" y2="214.421" gradientUnits="userSpaceOnUse">
<stop stop-color="#1ED760"/>
<stop offset="1" stop-color="#1ED760" stop-opacity="0.06"/>
</linearGradient>
<linearGradient id="paint22_linear_261_846" x1="280.368" y1="155.895" x2="314.474" y2="214.421" gradientUnits="userSpaceOnUse">
<stop stop-color="#1ED760"/>
<stop offset="1" stop-color="#1ED760" stop-opacity="0.06"/>
</linearGradient>
<linearGradient id="paint23_linear_261_846" x1="280.368" y1="155.895" x2="314.474" y2="214.421" gradientUnits="userSpaceOnUse">
<stop stop-color="#1ED760"/>
<stop offset="1" stop-color="#1ED760" stop-opacity="0.06"/>
</linearGradient>
<linearGradient id="paint24_linear_261_846" x1="1292" y1="63.1845" x2="1338.85" y2="146.806" gradientUnits="userSpaceOnUse">
<stop stop-color="#00CD44"/>
<stop offset="1" stop-color="#043213"/>
</linearGradient>
<radialGradient id="paint25_radial_261_846" cx="0" cy="0" r="1" gradientUnits="userSpaceOnUse" gradientTransform="translate(418.074 76.437) rotate(59.8759) scale(42 41.44)">
<stop stop-color="#00CD44"/>
<stop offset="1" stop-color="#00CD44" stop-opacity="0"/>
</radialGradient>
<radialGradient id="paint26_radial_261_846" cx="0" cy="0" r="1" gradientUnits="userSpaceOnUse" gradientTransform="translate(418.074 76.437) rotate(59.8759) scale(42 41.44)">
<stop stop-color="#00CD44"/>
<stop offset="1" stop-color="#00CD44" stop-opacity="0"/>
</radialGradient>
<radialGradient id="paint27_radial_261_846" cx="0" cy="0" r="1" gradientUnits="userSpaceOnUse" gradientTransform="translate(418.074 76.437) rotate(59.8759) scale(42 41.44)">
<stop stop-color="#00CD44"/>
<stop offset="1" stop-color="#00CD44" stop-opacity="0"/>
</radialGradient>
<radialGradient id="paint28_radial_261_846" cx="0" cy="0" r="1" gradientUnits="userSpaceOnUse" gradientTransform="translate(976.097 61.6389) rotate(57.1886) scale(45.2134 47.5402)">
<stop stop-color="#00CD44"/>
<stop offset="1" stop-color="#00CD44" stop-opacity="0"/>
</radialGradient>
<linearGradient id="paint29_linear_261_846" x1="-29.1875" y1="12" x2="150.812" y2="196.219" gradientUnits="userSpaceOnUse">
<stop stop-color="#098131"/>
<stop offset="1" stop-color="#037529" stop-opacity="0"/>
</linearGradient>
<linearGradient id="paint30_linear_261_846" x1="-29.1875" y1="12" x2="150.812" y2="196.219" gradientUnits="userSpaceOnUse">
<stop stop-color="#098131"/>
<stop offset="1" stop-color="#037529" stop-opacity="0"/>
</linearGradient>
<linearGradient id="paint31_linear_261_846" x1="-29.1875" y1="12" x2="150.812" y2="196.219" gradientUnits="userSpaceOnUse">
<stop stop-color="#098131"/>
<stop offset="1" stop-color="#037529" stop-opacity="0"/>
</linearGradient>
<linearGradient id="paint32_linear_261_846" x1="-29.1875" y1="12" x2="150.812" y2="196.219" gradientUnits="userSpaceOnUse">
<stop stop-color="#098131"/>
<stop offset="1" stop-color="#037529" stop-opacity="0"/>
</linearGradient>
<linearGradient id="paint33_linear_261_846" x1="-29.1875" y1="12" x2="150.812" y2="196.219" gradientUnits="userSpaceOnUse">
<stop stop-color="#098131"/>
<stop offset="1" stop-color="#037529" stop-opacity="0"/>
</linearGradient>
<linearGradient id="paint34_linear_261_846" x1="-29.1875" y1="12" x2="150.812" y2="196.219" gradientUnits="userSpaceOnUse">
<stop stop-color="#098131"/>
<stop offset="1" stop-color="#037529" stop-opacity="0"/>
</linearGradient>
<linearGradient id="paint35_linear_261_846" x1="-29.1875" y1="12" x2="150.812" y2="196.219" gradientUnits="userSpaceOnUse">
<stop stop-color="#098131"/>
<stop offset="1" stop-color="#037529" stop-opacity="0"/>
</linearGradient>
<clipPath id="clip0_261_846">
<rect width="1400" height="240" fill="white"/>
</clipPath>
</defs>
</svg>
