<svg width="22" height="22" viewBox="0 0 22 22" fill="none" xmlns="http://www.w3.org/2000/svg">
<path d="M13.0154 11.0965L21.5819 19.5586C22.1394 20.109 22.1394 20.999 21.5819 21.5493C21.0247 22.0998 20.1237 22.0998 19.5665 21.5493L10.9999 13.0874L2.43351 21.5493C1.87602 22.0998 0.975357 22.0998 0.418125 21.5493C-0.139375 20.9989 -0.139375 20.109 0.418125 19.5586L8.9844 11.0965L0.418191 2.63459C-0.139308 2.08416 -0.139308 1.19417 0.418191 0.64381C0.55037 0.512875 0.707437 0.409031 0.88037 0.338242C1.0533 0.267454 1.23869 0.231115 1.42589 0.231319C1.79069 0.231319 2.15563 0.369255 2.43358 0.64381L10.9999 9.10576L19.5665 0.64381C19.6987 0.512896 19.8558 0.409063 20.0287 0.338276C20.2017 0.267488 20.387 0.23114 20.5742 0.231319C20.939 0.231319 21.304 0.369255 21.5819 0.64381C22.1394 1.19424 22.1394 2.08416 21.5819 2.63459L13.0154 11.0965Z" fill="white"/>
</svg>
