<svg width="74" height="74" viewBox="0 0 74 74" fill="none" xmlns="http://www.w3.org/2000/svg">
<rect width="74" height="74" rx="37" fill="url(#paint0_linear_561_433)" fill-opacity="0.05"/>
<rect x="9" y="9" width="56" height="56" rx="28" fill="url(#paint1_linear_561_433)" fill-opacity="0.1"/>
<rect x="9.5" y="9.5" width="55" height="55" rx="27.5" stroke="url(#paint2_linear_561_433)" stroke-opacity="0.2"/>
<g clip-path="url(#clip0_561_433)">
<path d="M30.7891 30.7891H43.2109V43.2109H30.7891V30.7891Z" fill="#1ED760"/>
<path d="M51.1211 34.3633C51.6065 34.3633 52 33.9698 52 33.4844C52 32.9989 51.6065 32.6055 51.1211 32.6055H48.4844V30.8477H51.1211C51.6065 30.8477 52 30.4542 52 29.9688C52 29.4833 51.6065 29.0898 51.1211 29.0898H48.4844V27.5664C48.4844 26.4355 47.5645 25.5156 46.4336 25.5156H44.9102V22.8789C44.9102 22.3935 44.5167 22 44.0312 22C43.5458 22 43.1523 22.3935 43.1523 22.8789V25.5156H41.3945V22.8789C41.3945 22.3935 41.0011 22 40.5156 22C40.0302 22 39.6367 22.3935 39.6367 22.8789V25.5156H37.8789V22.8789C37.8789 22.3935 37.4854 22 37 22C36.5146 22 36.1211 22.3935 36.1211 22.8789V25.5156H34.3633V22.8789C34.3633 22.3935 33.9698 22 33.4844 22C32.9989 22 32.6055 22.3935 32.6055 22.8789V25.5156H30.8477V22.8789C30.8477 22.3935 30.4542 22 29.9688 22C29.4833 22 29.0898 22.3935 29.0898 22.8789V25.5156H27.5664C26.4355 25.5156 25.5156 26.4355 25.5156 27.5664V29.0898H22.8789C22.3935 29.0898 22 29.4833 22 29.9688C22 30.4542 22.3935 30.8477 22.8789 30.8477H25.5156V32.6055H22.8789C22.3935 32.6055 22 32.9989 22 33.4844C22 33.9698 22.3935 34.3633 22.8789 34.3633H25.5156V36.1211H22.8789C22.3935 36.1211 22 36.5146 22 37C22 37.4854 22.3935 37.8789 22.8789 37.8789H25.5156V39.6367H22.8789C22.3935 39.6367 22 40.0302 22 40.5156C22 41.0011 22.3935 41.3945 22.8789 41.3945H25.5156V43.1523H22.8789C22.3935 43.1523 22 43.5458 22 44.0312C22 44.5167 22.3935 44.9102 22.8789 44.9102H25.5156V46.4336C25.5156 47.5645 26.4355 48.4844 27.5664 48.4844H29.0898V51.1211C29.0898 51.6065 29.4833 52 29.9688 52C30.4542 52 30.8477 51.6065 30.8477 51.1211V48.4844H32.6055V51.1211C32.6055 51.6065 32.9989 52 33.4844 52C33.9698 52 34.3633 51.6065 34.3633 51.1211V48.4844H36.1211V51.1211C36.1211 51.6065 36.5146 52 37 52C37.4854 52 37.8789 51.6065 37.8789 51.1211V48.4844H39.6367V51.1211C39.6367 51.6065 40.0302 52 40.5156 52C41.0011 52 41.3945 51.6065 41.3945 51.1211V48.4844H43.1523V51.1211C43.1523 51.6065 43.5458 52 44.0312 52C44.5167 52 44.9102 51.6065 44.9102 51.1211V48.4844H46.4336C47.5645 48.4844 48.4844 47.5645 48.4844 46.4336V44.9102H51.1211C51.6065 44.9102 52 44.5167 52 44.0312C52 43.5458 51.6065 43.1523 51.1211 43.1523H48.4844V41.3945H51.1211C51.6065 41.3945 52 41.0011 52 40.5156C52 40.0302 51.6065 39.6367 51.1211 39.6367H48.4844V37.8789H51.1211C51.6065 37.8789 52 37.4854 52 37C52 36.5146 51.6065 36.1211 51.1211 36.1211H48.4844V34.3633H51.1211ZM44.9688 44.0898C44.9688 44.5753 44.5753 44.9688 44.0898 44.9688H29.9102C29.4247 44.9688 29.0312 44.5753 29.0312 44.0898V29.9102C29.0312 29.4247 29.4247 29.0312 29.9102 29.0312H44.0898C44.5753 29.0312 44.9688 29.4247 44.9688 29.9102V44.0898Z" fill="#1ED760"/>
</g>
<defs>
<linearGradient id="paint0_linear_561_433" x1="37" y1="0" x2="37" y2="74" gradientUnits="userSpaceOnUse">
<stop stop-color="#CAFF33"/>
<stop offset="1" stop-color="#CAFF33" stop-opacity="0"/>
</linearGradient>
<linearGradient id="paint1_linear_561_433" x1="37" y1="-28.0811" x2="37" y2="153.541" gradientUnits="userSpaceOnUse">
<stop stop-color="#4AFF86"/>
<stop offset="0.465" stop-color="#101A11"/>
</linearGradient>
<linearGradient id="paint2_linear_561_433" x1="37" y1="-88.2432" x2="37" y2="115.703" gradientUnits="userSpaceOnUse">
<stop stop-color="#CAFF33"/>
<stop offset="0.716291" stop-color="#CAFF33" stop-opacity="0"/>
</linearGradient>
<clipPath id="clip0_561_433">
<rect width="30" height="30" fill="white" transform="translate(22 22)"/>
</clipPath>
</defs>
</svg>
