<svg width="74" height="74" viewBox="0 0 74 74" fill="none" xmlns="http://www.w3.org/2000/svg">
<rect width="74" height="74" rx="37" fill="url(#paint0_linear_561_484)" fill-opacity="0.05"/>
<rect x="9" y="9" width="56" height="56" rx="28" fill="url(#paint1_linear_561_484)" fill-opacity="0.1"/>
<rect x="9.5" y="9.5" width="55" height="55" rx="27.5" stroke="url(#paint2_linear_561_484)" stroke-opacity="0.2"/>
<g clip-path="url(#clip0_561_484)">
<path d="M48.8821 35.0788C48.4356 32.2209 45.958 30.0273 42.9766 30.0273C41.855 30.0273 40.7772 30.3377 39.8424 30.9165C38.4202 28.5264 35.8599 27.0391 33.0156 27.0391C28.6217 27.0391 25.0469 30.6139 25.0469 35.0078C25.0469 35.035 25.0469 35.0633 25.0479 35.0905C22.2239 35.5662 20 38.0282 20 40.9844C20 44.2801 22.7473 46.9609 26.043 46.9609H47.957C51.2527 46.9609 54 44.2801 54 40.9844C54 38.0029 51.7401 35.5253 48.8821 35.0788Z" fill="#1ED760"/>
</g>
<defs>
<linearGradient id="paint0_linear_561_484" x1="37" y1="0" x2="37" y2="74" gradientUnits="userSpaceOnUse">
<stop stop-color="#CAFF33"/>
<stop offset="1" stop-color="#CAFF33" stop-opacity="0"/>
</linearGradient>
<linearGradient id="paint1_linear_561_484" x1="37" y1="-28.0811" x2="37" y2="153.541" gradientUnits="userSpaceOnUse">
<stop stop-color="#4AFF86"/>
<stop offset="0.465" stop-color="#101A11"/>
</linearGradient>
<linearGradient id="paint2_linear_561_484" x1="37" y1="-88.2432" x2="37" y2="115.703" gradientUnits="userSpaceOnUse">
<stop stop-color="#CAFF33"/>
<stop offset="0.716291" stop-color="#CAFF33" stop-opacity="0"/>
</linearGradient>
<clipPath id="clip0_561_484">
<rect width="34" height="34" fill="white" transform="translate(20 20)"/>
</clipPath>
</defs>
</svg>
