<svg width="31" height="36" viewBox="0 0 31 36" fill="none" xmlns="http://www.w3.org/2000/svg">
<path d="M15.3281 11.1416C11.5458 11.1416 8.46875 14.2186 8.46875 18.0006C8.46875 21.783 11.5458 24.8599 15.3281 24.8599C19.1102 24.8599 22.1871 21.783 22.1871 18.0007C22.1871 14.2185 19.1102 11.1416 15.3281 11.1416ZM19.4004 16.7089L14.4865 21.6228C14.3885 21.7211 14.2721 21.799 14.1439 21.8521C14.0157 21.9053 13.8782 21.9325 13.7394 21.9324C13.6007 21.9326 13.4633 21.9053 13.3352 21.8522C13.207 21.7991 13.0906 21.7211 12.9927 21.6228L11.1148 19.745C10.7023 19.3327 10.7023 18.6639 11.1148 18.2514C11.5271 17.8389 12.1959 17.8389 12.6084 18.2514L13.7394 19.3824L17.9069 15.2154C18.3191 14.8028 18.9879 14.8028 19.4004 15.2154C19.813 15.6276 19.813 16.2964 19.4004 16.7089Z" fill="#4AFF86"/>
<path d="M30.6202 9.76771L30.6191 9.73972C30.6028 9.36701 30.5919 8.99408 30.5867 8.62105C30.5573 6.63606 28.9794 4.99413 26.9942 4.88325C22.8551 4.6522 19.6531 3.30255 16.9173 0.635887L16.8939 0.613669C16.0015 -0.204556 14.6555 -0.204556 13.7628 0.613669L13.7394 0.635887C11.0036 3.30255 7.80163 4.6522 3.66256 4.88346C1.67764 4.99413 0.0994075 6.63613 0.0700169 8.62126C0.0648583 8.99422 0.0540758 9.36709 0.0376733 9.73972L0.0359858 9.80476C-0.0445219 14.0255 -0.144506 19.2783 1.61274 24.046C2.57904 26.668 4.04238 28.947 5.96198 30.8205C8.14827 32.9541 11.0118 34.6479 14.4731 35.8547C14.587 35.8943 14.7035 35.9261 14.8218 35.9497C14.9899 35.9832 15.1592 36 15.3284 36C15.4975 36 15.667 35.9832 15.8348 35.9497C15.9536 35.9259 16.0706 35.894 16.185 35.8541C19.6421 34.6451 22.5027 32.9505 24.687 30.8172C26.6058 28.9432 28.0692 26.6636 29.0362 24.0411C30.8001 19.259 30.7004 13.9963 30.6202 9.76771ZM15.3278 26.9722C10.3806 26.9722 6.35608 22.9477 6.35608 18.0006C6.35608 13.0534 10.3807 9.02886 15.3278 9.02886C20.2747 9.02886 24.2995 13.0534 24.2995 18.0006C24.2995 22.9478 20.2747 26.9722 15.3278 26.9722Z" fill="#1ED760"/>
</svg>
