<svg width="32" height="32" viewBox="0 0 32 32" fill="none" xmlns="http://www.w3.org/2000/svg">
<path d="M22.5713 13.4337L16.5714 17.032V22.8349L22.5713 19.2366V13.4337ZM9.42867 19.2366L15.4286 22.8349V17.032L9.42867 13.4337V19.2366ZM22.0342 12.4228L16 8.80738L9.9658 12.4228L16 16.0382L22.0342 12.4228ZM15.4286 4.62084V6.85404C15.4286 7.00552 15.4888 7.15079 15.5959 7.25791C15.7031 7.36502 15.8485 7.42519 16 7.42519C16.1516 7.42519 16.2969 7.36502 16.4041 7.25791C16.5112 7.15079 16.5714 7.00552 16.5714 6.85404V4.62084C17.1267 4.48149 17.612 4.14404 17.9357 3.67201C18.2594 3.19998 18.3993 2.62594 18.3291 2.05797C18.2589 1.49 17.9833 0.96729 17.5543 0.588252C17.1254 0.209214 16.5726 0 16 0C15.4274 0 14.8746 0.209214 14.4457 0.588252C14.0167 0.96729 13.7411 1.49 13.6709 2.05797C13.6007 2.62594 13.7406 3.19998 14.0643 3.67201C14.388 4.14404 14.8733 4.48149 15.4286 4.62084ZM7.98869 8.79024L9.13153 9.93826C9.1848 9.99151 9.24805 10.0338 9.31767 10.0626C9.38728 10.0914 9.46189 10.1062 9.53724 10.1062C9.61258 10.1062 9.68719 10.0914 9.7568 10.0626C9.82641 10.0338 9.88966 9.99151 9.94294 9.93826C9.99622 9.885 10.0385 9.82178 10.0673 9.7522C10.0962 9.68263 10.111 9.60805 10.111 9.53274C10.111 9.45743 10.0962 9.38285 10.0673 9.31328C10.0385 9.2437 9.99622 9.18048 9.94294 9.12722L8.79439 7.98492C10.7292 5.04292 6.80242 1.80107 4.26874 4.26673C1.80592 6.80664 5.03444 10.7093 7.98869 8.79024ZM4.62302 16.5636H6.85727C7.00882 16.5636 7.15417 16.5034 7.26133 16.3963C7.36849 16.2892 7.42869 16.1439 7.42869 15.9925C7.42869 15.841 7.36849 15.6957 7.26133 15.5886C7.15417 15.4815 7.00882 15.4213 6.85727 15.4213H4.62302C4.48361 14.8662 4.14599 14.3813 3.67374 14.0577C3.20149 13.7341 2.62718 13.5943 2.05894 13.6645C1.4907 13.7347 0.967746 14.0101 0.58853 14.4388C0.209313 14.8676 0 15.4202 0 15.9925C0 16.5648 0.209313 17.1173 0.58853 17.5461C0.967746 17.9748 1.4907 18.2503 2.05894 18.3205C2.62718 18.3907 3.20149 18.2508 3.67374 17.9272C4.14599 17.6037 4.48361 17.1187 4.62302 16.5636ZM24.0113 23.1947L22.8685 22.0467C22.7609 21.9391 22.6149 21.8787 22.4628 21.8787C22.3106 21.8787 22.1647 21.9391 22.0571 22.0467C21.9495 22.1542 21.889 22.3001 21.889 22.4522C21.889 22.6043 21.9495 22.7501 22.0571 22.8577L23.2056 24C22.8769 24.4834 22.7017 25.0547 22.7028 25.6392C22.71 26.2183 22.8871 26.7825 23.2121 27.2619C23.5371 27.7413 23.9957 28.1148 24.5311 28.3361C25.0665 28.5575 25.6551 28.6169 26.2239 28.5071C26.7928 28.3972 27.3169 28.1229 27.7313 27.7182C30.1958 25.1726 26.9598 21.2785 24.0113 23.1947ZM27.377 15.4213H25.1427C24.9912 15.4213 24.8458 15.4815 24.7387 15.5886C24.6315 15.6957 24.5713 15.841 24.5713 15.9925C24.5713 16.1439 24.6315 16.2892 24.7387 16.3963C24.8458 16.5034 24.9912 16.5636 25.1427 16.5636H27.377C27.5164 17.1187 27.854 17.6037 28.3263 17.9272C28.7985 18.2508 29.3728 18.3907 29.9411 18.3205C30.5093 18.2503 31.0323 17.9748 31.4115 17.5461C31.7907 17.1173 32 16.5648 32 15.9925C32 15.4202 31.7907 14.8676 31.4115 14.4388C31.0323 14.0101 30.5093 13.7347 29.9411 13.6645C29.3728 13.5943 28.7985 13.7341 28.3263 14.0577C27.854 14.3813 27.5164 14.8662 27.377 15.4213ZM9.13153 22.0467L7.98869 23.1947C5.03901 21.2785 1.80477 25.1714 4.26874 27.7182C6.79327 30.1861 10.7326 26.9426 8.79439 24L9.94294 22.8577C10.0505 22.7501 10.111 22.6043 10.111 22.4522C10.111 22.3001 10.0505 22.1542 9.94294 22.0467C9.83534 21.9391 9.68941 21.8787 9.53724 21.8787C9.38507 21.8787 9.23913 21.9391 9.13153 22.0467ZM16.5714 27.3641V25.1309C16.5714 24.9794 16.5112 24.8341 16.4041 24.727C16.2969 24.6199 16.1516 24.5597 16 24.5597C15.8485 24.5597 15.7031 24.6199 15.5959 24.727C15.4888 24.8341 15.4286 24.9794 15.4286 25.1309V27.3641C14.8712 27.5035 14.3841 27.8418 14.059 28.3152C13.7339 28.7887 13.5932 29.3646 13.6634 29.9346C13.7337 30.5045 14.01 31.0291 14.4404 31.4096C14.8708 31.79 15.4255 32 16 32C16.5745 32 17.1292 31.79 17.5596 31.4096C17.99 31.0291 18.2663 30.5045 18.3366 29.9346C18.4068 29.3646 18.2661 28.7887 17.941 28.3152C17.6159 27.8418 17.1288 27.5035 16.5714 27.3641ZM22.8685 9.93826L24.0113 8.79024C24.557 9.15457 25.2089 9.32616 25.8634 9.27775C26.5178 9.22935 27.1373 8.96372 27.6234 8.52307C28.1096 8.08243 28.4344 7.49204 28.5464 6.84571C28.6583 6.19939 28.551 5.53421 28.2414 4.95585C27.9318 4.37749 27.4377 3.91913 26.8376 3.6536C26.2376 3.38807 25.5659 3.33061 24.9294 3.49033C24.2929 3.65005 23.7281 4.0178 23.3247 4.53515C22.9212 5.0525 22.7023 5.68978 22.7028 6.34572C22.7017 6.93022 22.8769 7.50147 23.2056 7.98492L22.0571 9.12722C21.9495 9.23477 21.889 9.38064 21.889 9.53274C21.889 9.68484 21.9495 9.83071 22.0571 9.93826C22.1647 10.0458 22.3106 10.1062 22.4628 10.1062C22.6149 10.1062 22.7609 10.0458 22.8685 9.93826Z" fill="#1ED760"/>
</svg>
