<svg width="30" height="30" viewBox="0 0 30 30" fill="none" xmlns="http://www.w3.org/2000/svg">
<path d="M1.65758 11.8069C1.76448 11.8504 1.87893 11.8724 1.99436 11.8717C2.10979 11.8709 2.22393 11.8473 2.33023 11.8023L4.95916 10.6929C5.40617 10.5041 5.61582 9.98859 5.42697 9.54141C5.23836 9.09416 4.72267 8.88475 4.27549 9.07336L3.63254 9.34477C5.62765 4.80293 10.1422 1.81641 15.1652 1.81641C20.9083 1.81641 25.9236 5.69982 27.3614 11.2601C27.464 11.6563 27.8206 11.9193 28.2117 11.9193C28.2845 11.9193 28.3586 11.9101 28.4323 11.8911C28.9023 11.7696 29.1847 11.2901 29.0632 10.8202C27.4248 4.48383 21.7096 0.0585938 15.1652 0.0585938C9.40906 0.0585938 4.23951 3.50051 1.98552 8.7252L1.68886 8.02207C1.50008 7.57506 0.984568 7.36541 0.53738 7.55402C0.090134 7.74287 -0.11928 8.2585 0.0693332 8.70551L1.17869 11.3344C1.22355 11.4408 1.28892 11.5372 1.37108 11.6183C1.45324 11.6994 1.55058 11.7635 1.65752 11.8069H1.65758ZM29.9306 21.2329L28.8212 18.6042C28.7306 18.3894 28.5584 18.2194 28.3424 18.1315C28.1264 18.0439 27.8845 18.0455 27.6697 18.1361L25.0408 19.2458C24.5937 19.4344 24.3841 19.9501 24.5729 20.3972C24.7616 20.8445 25.2772 21.0539 25.7244 20.8651L26.4603 20.5545C24.515 25.2182 19.9374 28.3003 14.835 28.3003C9.0916 28.3003 4.07633 24.4169 2.63849 18.8566C2.51697 18.3865 2.03744 18.1045 1.56758 18.2256C1.09765 18.3472 0.815232 18.8267 0.936755 19.2966C2.57509 25.6329 8.29027 30.0581 14.835 30.0581C20.6234 30.0581 25.8188 26.5773 28.0522 21.3029L28.3111 21.9164C28.4527 22.2521 28.7784 22.4537 29.1213 22.4537C29.235 22.4537 29.3511 22.4316 29.4625 22.3844C29.9098 22.1956 30.1192 21.6801 29.9306 21.2329Z" fill="#1ED760"/>
<path d="M13.2372 24.7328C13.4074 24.7941 13.5924 24.8014 13.7669 24.7536C13.9414 24.7058 14.0969 24.6053 14.2122 24.4659L21.575 15.56C21.6812 15.4314 21.7487 15.2753 21.7696 15.1098C21.7905 14.9443 21.7638 14.7763 21.6928 14.6254C21.6217 14.4746 21.5093 14.3471 21.3685 14.2578C21.2277 14.1685 21.0644 14.121 20.8977 14.121H17.6949V6.15241C17.6949 5.97147 17.6391 5.79493 17.535 5.64689C17.431 5.49885 17.2838 5.38653 17.1135 5.32524C16.9433 5.26407 16.7583 5.25689 16.5838 5.30468C16.4093 5.35248 16.2538 5.45292 16.1385 5.59231L8.77575 14.4984C8.66949 14.6269 8.60198 14.783 8.58112 14.9485C8.56026 15.114 8.58691 15.2819 8.65795 15.4328C8.729 15.5837 8.8415 15.7113 8.98233 15.8006C9.12316 15.8899 9.2865 15.9374 9.45327 15.9373H12.656V23.9058C12.6559 24.0868 12.7116 24.2633 12.8157 24.4113C12.9197 24.5593 13.0669 24.6716 13.2372 24.7328Z" fill="#1ED760"/>
</svg>
