<svg width="375" height="107" viewBox="0 0 375 107" fill="none" xmlns="http://www.w3.org/2000/svg">
<rect width="374.773" height="76.435" transform="matrix(0.996735 0.080745 -0.0150516 0.999887 1.15625 0.3125)" fill="url(#paint0_linear_802_1411)"/>
<path d="M21.9982 55.9867L27.2653 35.2286L32.1489 35.4783L39.9107 49.9337L37.8765 49.7695L41.3768 35.9503L47.1892 36.2475L41.9221 57.0056L37.0385 56.7559L29.3067 42.3021L31.311 42.4647L27.8106 56.2839L21.9982 55.9867ZM54.5885 45.848L64.2658 46.3429L63.1026 50.8794L53.4552 50.386L54.5885 45.848ZM52.0688 57.5245L46.1366 57.2212L51.4037 36.4631L67.8222 37.3028L66.659 41.8393L56.1727 41.303L52.0688 57.5245ZM69.94 58.4385L74.0377 42.3368L67.5962 42.0074L68.7955 37.3525L87.5809 38.3133L86.3816 42.9681L79.97 42.6402L75.8722 58.7419L69.94 58.4385ZM93.243 59.6303L98.5101 38.8722L104.442 39.1756L100.375 55.2788L110.381 55.7906L109.182 60.4454L93.243 59.6303ZM118.588 61.1968C117.429 61.1376 116.336 60.7913 115.307 60.1579C114.278 59.5245 113.462 58.6417 112.859 57.5094C112.276 56.3782 112.025 55.0236 112.105 53.4456C112.175 52.0874 112.468 50.8508 112.986 49.7358C113.504 48.6207 114.183 47.6642 115.025 46.8662C115.887 46.0691 116.859 45.468 117.941 45.0627C119.044 44.6385 120.195 44.4571 121.394 44.5184C122.712 44.5858 123.827 44.9032 124.739 45.4705C125.672 46.0189 126.33 46.8736 126.711 48.0345C127.093 49.1755 127.115 50.6987 126.778 52.6039C126.505 54.4123 125.994 55.9783 125.246 57.3018C124.497 58.6253 123.565 59.629 122.448 60.3128C121.333 60.9767 120.046 61.2714 118.588 61.1968ZM120.8 56.714C121.559 56.7528 122.238 56.5972 122.836 56.2474C123.435 55.8975 123.911 55.3912 124.266 54.7284C124.64 54.0666 124.85 53.2864 124.896 52.3875C124.944 51.4488 124.713 50.6859 124.202 50.0991C123.692 49.4923 122.948 49.1638 121.97 49.1138C121.231 49.076 120.551 49.2415 119.932 49.6103C119.333 49.9602 118.846 50.466 118.472 51.1278C118.118 51.7905 117.918 52.5713 117.872 53.4702C117.824 54.4089 118.055 55.1718 118.566 55.7586C119.076 56.3454 119.821 56.6639 120.8 56.714ZM122.976 61.1509L123.685 58.4536L125.038 53.1457L126.031 47.8195L126.743 45.0623L132.435 45.3534L128.369 61.4267L122.976 61.1509ZM139.001 62.2408C137.682 62.1734 136.548 61.835 135.598 61.2257C134.669 60.5974 134.033 59.7138 133.691 58.5748C133.349 57.4358 133.38 56.0456 133.784 54.4041L136.04 45.5378L141.732 45.8289L139.624 54.1621C139.351 55.1895 139.37 55.9915 139.681 56.5681C140.012 57.1458 140.627 57.4576 141.526 57.5036C142.485 57.5526 143.298 57.3039 143.967 56.7573C144.657 56.1918 145.153 55.296 145.456 54.0699L147.485 46.1231L153.178 46.4142L149.111 62.4875L143.718 62.2117L144.882 57.6752L145.533 59.0302C144.692 60.2088 143.687 61.0586 142.519 61.5796C141.372 62.0817 140.199 62.3021 139.001 62.2408ZM167.015 46.8515C168.393 46.922 169.547 47.2714 170.476 47.8997C171.406 48.508 172.042 49.3816 172.384 50.5206C172.748 51.6406 172.717 53.0208 172.293 54.6613L170.035 63.5576L164.343 63.2665L166.453 54.9033C166.726 53.8759 166.697 53.0734 166.366 52.4957C166.055 51.9191 165.43 51.6068 164.491 51.5588C163.532 51.5097 162.708 51.768 162.018 52.3335C161.328 52.899 160.822 53.7943 160.499 55.0194L158.471 62.9662L152.778 62.675L156.844 46.6017L162.237 46.8775L161.075 51.3841L160.424 50.029C161.265 48.8505 162.269 48.0107 163.436 47.5096C164.624 47.0096 165.816 46.7902 167.015 46.8515ZM182.821 64.4818C181.083 64.393 179.591 64.0063 178.344 63.3217C177.098 62.6371 176.143 61.7272 175.48 60.5918C174.838 59.4375 174.555 58.1214 174.63 56.6433C174.722 54.8456 175.234 53.2697 176.164 51.9154C177.095 50.5412 178.341 49.4835 179.901 48.7422C181.461 48.0009 183.219 47.6803 185.177 47.7804C187.014 47.8744 188.582 48.3451 189.881 49.1925C191.199 50.0409 192.123 51.1696 192.652 52.5784L187.68 54.6372C187.419 53.8628 187.018 53.2916 186.476 52.9234C185.954 52.5563 185.343 52.3549 184.644 52.3191C183.885 52.2803 183.186 52.4448 182.546 52.8126C181.928 53.1615 181.432 53.6568 181.059 54.2985C180.685 54.9403 180.476 55.7106 180.43 56.6094C180.382 57.5482 180.613 58.321 181.122 58.9278C181.632 59.5347 182.406 59.8646 183.445 59.9178C184.184 59.9555 184.851 59.8295 185.447 59.5395C186.063 59.2306 186.601 58.7074 187.059 57.9698L191.095 60.6995C190.248 61.9779 189.097 62.9504 187.641 63.6169C186.205 64.2844 184.598 64.5728 182.821 64.4818ZM205.958 48.8432C207.296 48.9116 208.43 49.26 209.359 49.8883C210.309 50.4976 210.965 51.3722 211.328 52.5122C211.691 53.6322 211.66 55.0125 211.236 56.6529L208.979 65.5493L203.286 65.2581L205.396 56.895C205.669 55.8676 205.64 55.065 205.309 54.4874C204.998 53.9108 204.373 53.5984 203.434 53.5504C202.476 53.5014 201.651 53.7596 200.961 54.3251C200.272 54.8906 199.765 55.7859 199.442 57.011L197.414 64.9578L191.721 64.6667L197.292 42.6625L202.985 42.9536L200.35 53.3626L199.367 52.0207C200.208 50.8421 201.213 50.0023 202.38 49.5013C203.567 49.0013 204.76 48.7819 205.958 48.8432ZM212.583 65.7336L216.649 49.6603L222.311 49.9499L218.245 66.0232L212.583 65.7336ZM220.366 48.048C219.367 47.997 218.582 47.6865 218.011 47.1165C217.46 46.5276 217.205 45.8437 217.244 45.0647C217.291 44.1459 217.66 43.3938 218.351 42.8083C219.062 42.2238 219.967 41.9597 221.065 42.0159C222.064 42.0669 222.849 42.3675 223.422 42.9174C223.995 43.4674 224.261 44.1319 224.221 44.9109C224.171 45.8896 223.791 46.6712 223.08 47.2556C222.369 47.8401 221.465 48.1042 220.366 48.048ZM236.153 50.3874C237.531 50.4579 238.685 50.8073 239.614 51.4356C240.544 52.0439 241.18 52.9175 241.523 54.0565C241.886 55.1765 241.855 56.5567 241.431 58.1972L239.174 67.0935L233.481 66.8024L235.591 58.4392C235.864 57.4118 235.835 56.6093 235.504 56.0316C235.193 55.455 234.568 55.1427 233.629 55.0947C232.67 55.0456 231.846 55.3039 231.156 55.8694C230.467 56.4349 229.96 57.3302 229.637 58.5553L227.609 66.502L221.916 66.2109L225.982 50.1376L231.375 50.4134L230.214 54.92L229.562 53.5649C230.403 52.3864 231.408 51.5466 232.575 51.0455C233.762 50.5455 234.954 50.3261 236.153 50.3874ZM249.924 73.7413C248.306 73.6585 246.837 73.4032 245.517 72.9752C244.196 72.5672 243.064 71.9886 242.122 71.2395L244.87 67.4149C245.484 67.9469 246.273 68.3878 247.236 68.7374C248.218 69.1081 249.239 69.3205 250.297 69.3746C251.776 69.4502 252.88 69.1863 253.612 68.5829C254.343 67.9995 254.858 67.1246 255.158 65.9584L255.796 63.4678L257.151 59.3015L258.284 54.7635L259.005 51.8265L264.428 52.1038L261.114 65.2117C260.311 68.3948 258.954 70.6484 257.044 71.9726C255.153 73.2978 252.78 73.8873 249.924 73.7413ZM250.697 66.8418C249.419 66.7764 248.254 66.4465 247.203 65.852C246.153 65.2376 245.325 64.4042 244.718 63.3518C244.132 62.2805 243.876 61.0157 243.951 59.5576C244.013 58.3392 244.291 57.212 244.784 56.1758C245.298 55.1407 245.975 54.2441 246.814 53.486C247.674 52.7289 248.655 52.1583 249.756 51.774C250.858 51.3698 252.038 51.1998 253.296 51.2642C254.495 51.3255 255.542 51.6093 256.437 52.1157C257.352 52.6231 258.013 53.4179 258.418 54.5C258.843 55.5831 258.889 57.0273 258.557 58.8327C258.266 60.6002 257.759 62.0962 257.035 63.3209C256.333 64.5266 255.446 65.4324 254.373 66.0384C253.301 66.6445 252.076 66.9122 250.697 66.8418ZM252.608 62.3735C253.367 62.4123 254.034 62.2862 254.61 61.9953C255.206 61.7053 255.678 61.2789 256.027 60.716C256.397 60.1341 256.602 59.4537 256.642 58.6747C256.683 57.8758 256.446 57.2228 255.931 56.7159C255.438 56.19 254.711 55.9025 253.753 55.8535C252.994 55.8146 252.316 55.9502 251.719 56.2601C251.124 56.5501 250.641 56.986 250.27 57.5678C249.921 58.1307 249.727 58.8017 249.687 59.5807C249.646 60.3796 249.883 61.0326 250.398 61.5395C250.933 62.0475 251.669 62.3255 252.608 62.3735ZM280.806 69.6432C279.608 69.5819 278.465 69.4233 277.376 69.1674C276.287 68.9315 275.301 68.6207 274.42 68.2352C273.539 67.8297 272.79 67.4009 272.173 66.9488L274.736 62.6341C275.433 63.1103 276.153 63.5276 276.895 63.886C277.659 64.2254 278.436 64.4955 279.227 64.6961C280.018 64.8968 280.813 65.0175 281.612 65.0584C282.371 65.0972 283.023 65.0605 283.57 64.9483C284.117 64.816 284.538 64.6173 284.832 64.3519C285.126 64.0866 285.282 63.7642 285.302 63.3847C285.323 62.9652 285.15 62.626 284.783 62.3669C284.437 62.0888 283.969 61.8446 283.379 61.6342C282.789 61.4238 282.129 61.2098 281.399 60.9922C280.69 60.7557 279.973 60.4887 279.247 60.1913C278.542 59.8749 277.901 59.5016 277.322 59.0715C276.744 58.6214 276.282 58.067 275.935 57.4085C275.608 56.7509 275.469 55.9527 275.517 55.014C275.594 53.496 276.071 52.1986 276.947 51.122C277.823 50.0453 279.026 49.2357 280.556 48.6931C282.106 48.1516 283.909 47.9334 285.967 48.0386C287.465 48.1152 288.855 48.3465 290.137 48.7325C291.42 49.0985 292.516 49.5951 293.425 50.2224L291.042 54.5163C290.25 53.9551 289.361 53.5191 288.376 53.2084C287.411 52.8787 286.41 52.6873 285.371 52.6342C284.572 52.5933 283.878 52.648 283.29 52.7981C282.722 52.9493 282.279 53.177 281.963 53.4812C281.668 53.7665 281.511 54.099 281.492 54.4785C281.471 54.8779 281.634 55.2167 281.981 55.4947C282.327 55.7728 282.795 56.017 283.385 56.2274C283.995 56.4389 284.654 56.6628 285.363 56.8993C286.093 57.1169 286.811 57.3739 287.517 57.6703C288.223 57.9468 288.876 58.3106 289.473 58.7617C290.072 59.1929 290.536 59.7272 290.863 60.3648C291.191 61.0024 291.332 61.7806 291.285 62.6994C291.208 64.1974 290.732 65.4848 289.856 66.5614C288.979 67.6381 287.767 68.4472 286.217 68.9887C284.667 69.5303 282.864 69.7485 280.806 69.6432ZM301.141 70.533C299.424 70.4452 297.941 70.059 296.695 69.3744C295.448 68.6898 294.503 67.7804 293.86 66.6461C293.218 65.4918 292.935 64.1756 293.011 62.6975C293.103 60.8999 293.614 59.3239 294.544 57.9697C295.476 56.5955 296.711 55.5372 298.251 54.7949C299.791 54.0526 301.53 53.7309 303.467 53.83C305.205 53.9189 306.687 54.3051 307.914 54.9887C309.162 55.6532 310.107 56.5527 310.75 57.687C311.393 58.8213 311.676 60.1375 311.599 61.6356C311.507 63.4332 310.996 65.0191 310.064 66.3934C309.133 67.7676 307.897 68.8259 306.357 69.5682C304.817 70.3105 303.079 70.6321 301.141 70.533ZM301.702 66.0258C302.461 66.0646 303.14 65.9091 303.739 65.5592C304.338 65.1893 304.815 64.673 305.17 64.0103C305.544 63.3485 305.755 62.5582 305.802 61.6394C305.848 60.7406 305.616 59.9778 305.108 59.351C304.619 58.7252 303.885 58.3873 302.906 58.3373C302.147 58.2984 301.469 58.454 300.87 58.8039C300.271 59.1537 299.784 59.6695 299.409 60.3513C299.055 61.014 298.854 61.8048 298.807 62.7236C298.758 63.6824 298.988 64.4651 299.498 65.072C300.009 65.6588 300.743 65.9768 301.702 66.0258ZM321.066 71.552C319.349 71.4642 317.866 71.078 316.62 70.3934C315.373 69.7088 314.428 68.7994 313.785 67.6651C313.144 66.5108 312.86 65.1946 312.936 63.7165C313.028 61.9189 313.539 60.3429 314.469 58.9887C315.401 57.6145 316.637 56.5562 318.176 55.8139C319.716 55.0716 321.455 54.75 323.393 54.849C325.13 54.9379 326.612 55.3241 327.839 56.0077C329.087 56.6723 330.032 57.5717 330.675 58.706C331.318 59.8403 331.601 61.1565 331.524 62.6546C331.433 64.4522 330.921 66.0382 329.989 67.4124C329.058 68.7866 327.822 69.8449 326.282 70.5872C324.743 71.3295 323.004 71.6511 321.066 71.552ZM321.627 67.0448C322.386 67.0836 323.065 66.9281 323.664 66.5782C324.264 66.2084 324.741 65.692 325.095 65.0293C325.469 64.3675 325.68 63.5773 325.727 62.6585C325.773 61.7596 325.541 60.9968 325.033 60.37C324.544 59.7442 323.81 59.4063 322.832 59.3563C322.073 59.3175 321.394 59.473 320.795 59.8229C320.196 60.1727 319.709 60.6885 319.334 61.3703C318.98 62.033 318.779 62.8238 318.732 63.7426C318.683 64.7014 318.914 65.4842 319.423 66.091C319.934 66.6778 320.669 66.9958 321.627 67.0448ZM346.224 56.0167C347.602 56.0872 348.756 56.4366 349.685 57.0648C350.615 57.6731 351.251 58.5468 351.594 59.6857C351.957 60.8057 351.926 62.186 351.502 63.8265L349.245 72.7228L343.552 72.4316L345.662 64.0685C345.935 63.0411 345.906 62.2386 345.575 61.6609C345.264 61.0843 344.639 60.7719 343.7 60.7239C342.741 60.6749 341.917 60.9331 341.227 61.4986C340.538 62.0641 340.031 62.9595 339.708 64.1846L337.68 72.1313L331.987 71.8402L336.053 55.7669L341.446 56.0427L340.285 60.5493L339.633 59.1942C340.474 58.0156 341.478 57.1758 342.646 56.6748C343.833 56.1748 345.025 55.9554 346.224 56.0167Z" fill="black"/>
<defs>
<linearGradient id="paint0_linear_802_1411" x1="0" y1="38.2175" x2="374.773" y2="38.2175" gradientUnits="userSpaceOnUse">
<stop stop-color="#05EB51"/>
<stop offset="1" stop-color="#0EAB42"/>
</linearGradient>
</defs>
</svg>
