<svg width="1400" height="173" viewBox="0 0 1400 173" fill="none" xmlns="http://www.w3.org/2000/svg">
<rect width="1412.48" height="123.346" transform="matrix(0.999408 -0.0344055 0.0354006 0.999373 -10 48.5977)" fill="#1A1A1A"/>
<rect width="1411.38" height="123.346" transform="matrix(0.999402 0.0345822 -0.0352196 0.99938 -5.63477 0.504883)" fill="url(#paint0_linear_739_528)"/>
<path d="M365.996 94.3444L376.531 52.8283L386.298 53.3278L401.821 82.2384L397.753 81.9102L404.754 54.2717L416.378 54.8662L405.844 96.3823L396.077 95.8828L380.613 66.9753L384.622 67.3004L377.621 94.9389L365.996 94.3444ZM431.177 74.0671L450.532 75.0569L448.205 84.1299L428.91 83.1432L431.177 74.0671ZM426.138 97.4202L414.273 96.8134L424.807 55.2973L457.644 56.9766L455.318 66.0496L434.345 64.977L426.138 97.4202ZM461.88 99.2481L470.075 67.0447L457.192 66.3858L459.591 57.0762L497.162 58.9976L494.763 68.3073L481.94 67.6515L473.744 99.8549L461.88 99.2481ZM508.486 101.632L519.02 60.1155L530.885 60.7223L522.749 92.9288L542.763 93.9523L540.364 103.262L508.486 101.632ZM559.176 104.765C556.859 104.646 554.672 103.954 552.614 102.687C550.556 101.42 548.924 99.6544 547.718 97.3899C546.552 95.1274 546.049 92.4182 546.211 89.2623C546.35 86.5459 546.937 84.0726 547.972 81.8426C549.007 79.6126 550.367 77.6995 552.051 76.1034C553.774 74.5094 555.718 73.3071 557.882 72.4966C560.089 71.6482 562.39 71.2852 564.787 71.4078C567.424 71.5427 569.654 72.1774 571.478 73.3121C573.345 74.4088 574.659 76.1182 575.422 78.4402C576.186 80.7222 576.231 83.7684 575.555 87.5789C575.01 91.1958 573.988 94.3277 572.491 96.9747C570.994 99.6217 569.129 101.629 566.896 102.997C564.666 104.325 562.092 104.914 559.176 104.765ZM563.6 95.799C565.118 95.8766 566.475 95.5656 567.673 94.8658C568.87 94.1661 569.823 93.1534 570.532 91.8279C571.28 90.5044 571.7 88.9438 571.792 87.1462C571.888 85.2686 571.426 83.743 570.404 82.5693C569.385 81.3556 567.897 80.6988 565.939 80.5987C564.461 80.5231 563.102 80.8541 561.863 81.5918C560.666 82.2915 559.693 83.3031 558.944 84.6266C558.236 85.9522 557.835 87.5138 557.743 89.3114C557.647 91.189 558.11 92.7146 559.131 93.8883C560.153 95.062 561.642 95.6989 563.6 95.799ZM567.952 104.673L569.369 99.2782L572.075 88.6626L574.062 78.0101L575.485 72.4957L586.871 73.0779L578.738 105.225L567.952 104.673ZM600.001 106.853C597.365 106.718 595.096 106.041 593.196 104.822C591.338 103.566 590.067 101.799 589.382 99.5207C588.697 97.2428 588.76 94.4623 589.568 91.1793L594.08 73.4466L605.465 74.0289L601.248 90.6953C600.703 92.7501 600.741 94.3541 601.363 95.5074C602.024 96.6627 603.254 97.2863 605.052 97.3783C606.969 97.4763 608.597 96.9788 609.934 95.8857C611.314 94.7547 612.307 92.963 612.913 90.5108L616.97 74.6173L628.355 75.1995L620.223 107.346L609.437 106.795L611.763 97.7215L613.066 100.432C611.384 102.789 609.374 104.488 607.038 105.53C604.744 106.534 602.398 106.975 600.001 106.853ZM656.029 76.0742C658.786 76.2151 661.093 76.9139 662.951 78.1704C664.812 79.387 666.084 81.1343 666.769 83.4122C667.495 85.6523 667.434 88.4128 666.585 91.6937L662.071 109.486L650.686 108.904L654.906 92.1778C655.451 90.123 655.393 88.5179 654.731 87.3626C654.109 86.2093 652.86 85.5847 650.982 85.4886C649.065 85.3906 647.416 85.9071 646.036 87.0381C644.657 88.1691 643.644 89.9597 642.998 92.4099L638.941 108.303L627.556 107.721L635.688 75.5746L646.474 76.1262L644.151 85.1393L642.848 82.4292C644.53 80.072 646.539 78.3924 648.873 77.3903C651.247 76.3903 653.633 75.9516 656.029 76.0742ZM687.641 111.335C684.166 111.157 681.182 110.384 678.688 109.014C676.195 107.645 674.285 105.825 672.96 103.555C671.676 101.246 671.11 98.6138 671.261 95.6577C671.445 92.0624 672.467 88.9105 674.328 86.202C676.191 83.4535 678.682 81.338 681.802 79.8554C684.921 78.3728 688.439 77.7316 692.354 77.9319C696.029 78.1198 699.165 79.0612 701.762 80.7561C704.399 82.453 706.246 84.7102 707.303 87.5279L697.36 91.6454C696.838 90.0968 696.036 88.9543 694.952 88.218C693.908 87.4837 692.687 87.0808 691.289 87.0093C689.771 86.9317 688.372 87.2607 687.093 87.9963C685.856 88.694 684.864 89.6846 684.117 90.9682C683.371 92.2517 682.951 93.7923 682.859 95.59C682.763 97.4675 683.225 99.0131 684.244 100.227C685.264 101.44 686.812 102.1 688.889 102.207C690.367 102.282 691.702 102.03 692.893 101.45C694.126 100.832 695.201 99.7858 696.118 98.3107L704.189 103.77C702.497 106.327 700.194 108.272 697.282 109.605C694.41 110.94 691.197 111.517 687.641 111.335ZM733.916 80.0574C736.592 80.1943 738.86 80.891 740.718 82.1476C742.618 83.3662 743.931 85.1156 744.655 87.3955C745.382 89.6356 745.321 92.396 744.472 95.677L739.957 113.47L728.572 112.887L732.792 96.1611C733.338 94.1062 733.28 92.5012 732.618 91.3459C731.996 90.1926 730.746 89.568 728.869 89.4719C726.951 89.3739 725.302 89.8903 723.923 91.0214C722.543 92.1524 721.531 93.943 720.885 96.3932L716.828 112.287L705.442 111.704L716.585 67.6961L727.97 68.2784L722.7 89.0964L720.734 86.4125C722.417 84.0553 724.425 82.3757 726.759 81.3736C729.134 80.3736 731.519 79.9349 733.916 80.0574ZM747.165 113.838L755.298 81.6917L766.623 82.2709L758.49 114.417L747.165 113.838ZM762.732 78.4672C760.735 78.365 759.164 77.744 758.021 76.6041C756.92 75.4263 756.409 74.0585 756.489 72.5005C756.583 70.6629 757.321 69.1586 758.702 67.9877C760.124 66.8187 761.933 66.2905 764.13 66.4028C766.128 66.505 767.699 67.106 768.844 68.206C769.99 69.3059 770.522 70.6348 770.443 72.1928C770.343 74.1502 769.582 75.7134 768.16 76.8823C766.739 78.0513 764.929 78.5795 762.732 78.4672ZM794.306 83.1459C797.062 83.2869 799.369 83.9856 801.228 85.2422C803.088 86.4588 804.36 88.2061 805.045 90.484C805.772 92.724 805.71 95.4845 804.862 98.7655L800.347 116.558L788.962 115.976L793.182 99.2495C793.727 97.1947 793.669 95.5897 793.008 94.4343C792.386 93.2811 791.136 92.6564 789.258 92.5604C787.341 92.4623 785.692 92.9788 784.313 94.1098C782.933 95.2408 781.92 97.0314 781.274 99.4817L777.217 115.375L765.832 114.793L773.965 82.6463L784.751 83.1979L782.427 92.211L781.124 89.5009C782.807 87.1438 784.815 85.4642 787.149 84.4621C789.523 83.4621 791.909 83.0233 794.306 83.1459ZM821.848 129.854C818.612 129.688 815.674 129.177 813.035 128.321C810.393 127.505 808.129 126.348 806.243 124.85L811.741 117.201C812.968 118.265 814.545 119.147 816.472 119.846C818.437 120.587 820.478 121.012 822.595 121.12C825.551 121.272 827.761 120.744 829.224 119.537C830.686 118.37 831.717 116.62 832.317 114.288L833.593 109.307L836.302 100.974L838.568 91.8981L840.01 86.024L850.856 86.5787L844.228 112.794C842.621 119.161 839.907 123.668 836.087 126.316C832.307 128.967 827.56 130.146 821.848 129.854ZM823.395 116.055C820.838 115.924 818.509 115.264 816.407 114.075C814.307 112.846 812.65 111.179 811.436 109.075C810.263 106.932 809.752 104.403 809.901 101.486C810.026 99.0496 810.582 96.795 811.569 94.7227C812.596 92.6525 813.949 90.8593 815.629 89.3431C817.348 87.8289 819.309 86.6876 821.511 85.9191C823.716 85.1106 826.076 84.7707 828.593 84.8994C830.99 85.022 833.083 85.5897 834.874 86.6025C836.704 87.6173 838.025 89.2068 838.836 91.371C839.686 93.5373 839.779 96.4258 839.113 100.037C838.532 103.571 837.518 106.564 836.071 109.013C834.666 111.424 832.891 113.236 830.746 114.448C828.602 115.66 826.151 116.196 823.395 116.055ZM827.216 107.118C828.734 107.196 830.069 106.944 831.22 106.362C832.411 105.782 833.356 104.929 834.054 103.803C834.795 102.639 835.205 101.279 835.284 99.7206C835.366 98.1226 834.892 96.8167 833.863 95.8028C832.875 94.751 831.423 94.1761 829.505 94.078C827.987 94.0004 826.631 94.2715 825.438 94.8913C824.247 95.4713 823.281 96.3431 822.541 97.5068C821.842 98.6326 821.453 99.9745 821.374 101.532C821.292 103.13 821.766 104.436 822.795 105.45C823.865 106.466 825.339 107.022 827.216 107.118ZM883.613 121.658C881.216 121.535 878.929 121.218 876.752 120.706C874.574 120.234 872.603 119.613 870.84 118.842C869.079 118.031 867.581 117.173 866.345 116.269L871.473 107.639C872.866 108.592 874.305 109.426 875.791 110.143C877.318 110.822 878.872 111.362 880.454 111.763C882.035 112.165 883.625 112.406 885.223 112.488C886.741 112.565 888.047 112.492 889.139 112.268C890.234 112.003 891.076 111.606 891.664 111.075C892.252 110.544 892.565 109.899 892.604 109.14C892.647 108.302 892.301 107.623 891.566 107.105C890.874 106.549 889.938 106.06 888.758 105.639C887.577 105.219 886.258 104.791 884.798 104.356C883.38 103.882 881.946 103.349 880.494 102.754C879.085 102.121 877.801 101.374 876.643 100.514C875.488 99.6138 874.563 98.5052 873.87 97.188C873.216 95.8729 872.937 94.2766 873.033 92.399C873.189 89.363 874.142 86.7683 875.895 84.615C877.647 82.4617 880.053 80.8425 883.112 79.7573C886.211 78.6742 889.818 78.2379 893.933 78.4483C896.929 78.6015 899.709 79.0641 902.273 79.8361C904.839 80.5681 907.031 81.5613 908.849 82.8159L904.085 91.4037C902.5 90.2813 900.722 89.4094 898.751 88.7879C896.822 88.1285 894.819 87.7457 892.742 87.6395C891.144 87.5577 889.757 87.667 888.58 87.9673C887.443 88.2696 886.559 88.725 885.927 89.3336C885.337 89.9042 885.022 90.569 884.984 91.328C884.943 92.127 885.269 92.8045 885.961 93.3606C886.654 93.9167 887.59 94.4051 888.77 94.826C889.99 95.2488 891.309 95.6968 892.726 96.1698C894.186 96.6049 895.622 97.1189 897.033 97.7118C898.447 98.2647 899.751 98.9923 900.947 99.8945C902.144 100.757 903.071 101.826 903.727 103.101C904.382 104.376 904.663 105.932 904.569 107.77C904.416 110.766 903.463 113.341 901.711 115.494C899.959 117.647 897.533 119.265 894.434 120.349C891.334 121.432 887.727 121.868 883.613 121.658ZM924.283 123.437C920.847 123.261 917.883 122.489 915.389 121.12C912.896 119.751 911.006 117.932 909.721 115.663C908.437 113.355 907.871 110.722 908.022 107.766C908.206 104.171 909.228 101.019 911.089 98.3104C912.951 95.562 915.423 93.4455 918.503 91.9608C921.582 90.4762 925.06 89.833 928.935 90.0311C932.41 90.2089 935.375 90.9813 937.828 92.3484C940.323 93.6776 942.214 95.4765 943.5 97.7451C944.786 100.014 945.352 102.646 945.199 105.642C945.015 109.238 943.991 112.409 942.129 115.158C940.266 117.906 937.795 120.023 934.715 121.507C931.635 122.992 928.157 123.635 924.283 123.437ZM925.404 114.423C926.922 114.5 928.28 114.189 929.477 113.489C930.677 112.75 931.631 111.717 932.339 110.392C933.088 109.068 933.509 107.488 933.603 105.65C933.695 103.852 933.232 102.327 932.215 101.073C931.238 99.8215 929.77 99.1457 927.813 99.0456C926.295 98.968 924.937 99.279 923.74 99.9788C922.543 100.679 921.569 101.71 920.818 103.074C920.109 104.399 919.708 105.981 919.614 107.818C919.516 109.736 919.977 111.301 920.996 112.515C922.017 113.689 923.487 114.325 925.404 114.423ZM964.133 125.475C960.697 125.299 957.733 124.527 955.24 123.158C952.746 121.789 950.857 119.97 949.571 117.701C948.287 115.393 947.721 112.76 947.872 109.804C948.056 106.209 949.078 103.057 950.939 100.348C952.802 97.6 955.273 95.4835 958.353 93.9989C961.433 92.5142 964.91 91.871 968.785 92.0692C972.261 92.2469 975.225 93.0193 977.678 94.3864C980.174 95.7156 982.064 97.5145 983.35 99.7832C984.636 102.052 985.202 104.684 985.049 107.68C984.865 111.276 983.842 114.447 981.979 117.196C980.116 119.944 977.645 122.061 974.565 123.545C971.485 125.03 968.008 125.673 964.133 125.475ZM965.255 116.461C966.773 116.538 968.13 116.227 969.328 115.528C970.527 114.788 971.481 113.755 972.19 112.43C972.938 111.106 973.359 109.526 973.453 107.688C973.545 105.89 973.083 104.365 972.065 103.111C971.088 101.86 969.621 101.184 967.663 101.084C966.145 101.006 964.788 101.317 963.59 102.017C962.393 102.717 961.419 103.748 960.668 105.112C959.96 106.437 959.558 108.019 959.464 109.856C959.366 111.774 959.827 113.339 960.846 114.553C961.868 115.727 963.337 116.363 965.255 116.461ZM1014.45 94.4045C1017.2 94.5454 1019.51 95.2442 1021.37 96.5007C1023.23 97.7173 1024.5 99.4646 1025.19 101.743C1025.91 103.983 1025.85 106.743 1025 110.024L1020.49 127.817L1009.1 127.234L1013.32 110.508C1013.87 108.453 1013.81 106.848 1013.15 105.693C1012.53 104.54 1011.28 103.915 1009.4 103.819C1007.48 103.721 1005.83 104.237 1004.45 105.368C1003.08 106.499 1002.06 108.29 1001.42 110.74L997.359 126.634L985.974 126.051L994.107 93.9049L1004.89 94.4565L1002.57 103.47L1001.27 100.759C1002.95 98.4024 1004.96 96.7227 1007.29 95.7207C1009.67 94.7206 1012.05 94.2819 1014.45 94.4045Z" fill="black"/>
<defs>
<linearGradient id="paint0_linear_739_528" x1="0" y1="61.6732" x2="1411.38" y2="61.6732" gradientUnits="userSpaceOnUse">
<stop stop-color="#05EB51"/>
<stop offset="1" stop-color="#0EAB42"/>
</linearGradient>
</defs>
</svg>
